<?xml version="1.0" encoding="utf-8" standalone="no"?><svg xmlns="http://www.w3.org/2000/svg" xmlns:xlink="http://www.w3.org/1999/xlink" width="35.2044mm" height="35.2298mm" viewBox="4037.6 3718 138.6 138.7"><title>Thermeleon</title><style type="text/css">
path, polyline, polygon {stroke-linejoin:round;}
path, polyline, polygon, line {stroke-linecap:round;}
rect, circle, ellipse, polyline, polygon, line, path {shape-rendering:crispEdges;}
*[layerid="0"] {stroke:#FFFFFF; FILL:#FFFFFF;}*[layerid="1"] {stroke:#FF0000; fill:#FF0000;}*[layerid="2"] {stroke:#0000FF; fill:#0000FF;}*[layerid="3"] {stroke:#FFCC00; fill:#FFCC00;}*[layerid="4"] {stroke:#66CC33; fill:#66CC33;}*[layerid="5"] {stroke:#808080; fill:#808080;}*[layerid="6"] {stroke:#800000; fill:#800000;}*[layerid="7"] {stroke:#800080; fill:#800080;}*[layerid="8"] {stroke:#AA00FF; fill:#AA00FF;}*[layerid="9"] {display:none}*[layerid="10"] {stroke:#FF00FF; fill:#FF00FF;}*[layerid="11"] {stroke:#C0C0C0; fill:#C0C0C0;}*[layerid="12"] {stroke:#FFFFFF; fill:#FFFFFF;}*[layerid="13"] {stroke:#33CC99; fill:#33CC99;}*[layerid="14"] {stroke:#5555FF; fill:#5555FF;}*[layerid="15"] {stroke:#F022F0; fill:#F022F0;}*[layerid="16"] {stroke:#FFFFFF; FILL:#FFFFFF;}*[layerid="17"] {stroke:#FFFFFF; FILL:#FFFFFF;}*[layerid="18"] {stroke:#FFFFFF; FILL:#FFFFFF;}*[layerid="19"] {stroke:#66CCFF; fill:#66CCFF;}*[layerid="20"] {stroke:#FFFFFF; FILL:#FFFFFF;}*[layerid="21"] {stroke:#999966; fill:#999966;}*[layerid="22"] {stroke:#008000; fill:#008000;}*[layerid="23"] {stroke:#00FF00; fill:#00FF00;}*[layerid="24"] {stroke:#BC8E00; fill:#BC8E00;}*[fill="none"] {fill: none;}
*[stroke="none"] {stroke: none;}
g[c_partid="part_pad"] > * + circle {fill: #222222;}
g[c_partid="part_via"] > * + circle {fill: #222222;}
g[c_partid="part_pad"] > polyline:nth-of-type(2) {stroke: #222222;}g[c_partid="part_pad"][c_shape="ELLIPSE"]  polyline:nth-last-of-type(1) {stroke:#222222;}g[c_partid="part_pad"][c_shape="RECT"]  polyline:nth-last-of-type(1) {stroke:#222222;}g[c_partid="part_pad"][c_shape="POLYGON"]  polyline:nth-last-of-type(1) {stroke:#222222;}g[c_partid="part_pad"] > polygon[c_etype="pad_outer"], #gCurParts g[c_partid="part_pad"] > polygon[c_etype="pad_outer"] {stroke-linejoin: miter;stroke-miterlimit: 100;}</style>
<rect x="4037.6" y="3718" width="138.6" height="138.7" fill="#000000" stroke="none"/><g importFlag="0"><g><polyline points="4048 3728 4166.1102 3728 4166.1102 3846.1102 4048 3846.1102 4048 3728" stroke-width="1" c_shapetype="line" stroke-linecap="round" fill="none" layerid="10" locked="0"/></g><g><polyline points="4079.5 3748.5 4079.5 3740.5 4085 3735 4105.5 3735 4109.5 3739 4109.5 3749.5 4118.5 3758.5" stroke-width="1" c_shapetype="line" stroke-linecap="round" fill="none" layerid="1" locked="0"/><polyline points="4143.5 3819 4143.5 3811 4158 3796.5 4158 3778 4148.5 3768.5" stroke-width="1" c_shapetype="line" stroke-linecap="round" fill="none" layerid="1" locked="0"/><path d="M 4047.5591 3728.5512 L 4165.6693 3728.5512 L 4165.6693 3846.6614 L 4047.5591 3846.6614 L4047.5591,3728.5512 Z" stroke-width="1" clearance_width="1" grid_clearance="1" grid_track_width="1" fill_style="solid" fill="none" thermal="spoke" keep_island="none" stroke-dasharray="3,3" layerid="1" copper="1" c_shapetype="line" locked="0" name="gge175" order="1" to_board_outline="1" fabrication_improve="yes" spoke_width="0"/><path d="M 4049.41 3845.1002 L 4049.25693 3845.06975 4049.12716 3844.98304 4049.04045 3844.85327 4049.01 3844.7002 4049.01 3729.41 4049.04045 3729.25693 4049.12716 3729.12716 4049.25693 3729.04045 4049.41 3729.01 4164.7002 3729.01 4164.85327 3729.04045 4164.98304 3729.12716 4165.06975 3729.25693 4165.1002 3729.41 4165.1002 3844.7002 4165.06975 3844.85327 4164.98304 3844.98304 4164.85327 3845.06975 4164.7002 3845.1002 4049.41 3845.1002 Z M 4118.36604 3762.50687 L 4118.90129 3762.48897 4119.42939 3762.39989 4119.9409 3762.24122 4120.4267 3762.01578 4120.87812 3761.72761 4121.2871 3761.38184 4121.64634 3760.98464 4121.94944 3760.54311 4122.19098 3760.06511 4122.36666 3759.55919 4122.47333 3759.03436 4122.5091 3758.5 4122.47333 3757.96564 4122.36666 3757.44081 4122.19098 3756.93489 4121.94944 3756.45689 4121.64634 3756.01536 4121.2871 3755.61816 4120.87812 3755.27239 4120.4267 3754.98422 4119.9409 3754.75878 4119.42939 3754.60011 4118.90129 3754.51103 4118.36604 3754.49313 4117.83317 3754.54674 4117.3122 3754.67089 4117.18971 3754.71807 4117.03926 3754.74474 4116.88979 3754.71306 4116.7631 3754.62764 4115.32831 3753.19284 4115.2416 3753.06307 4115.21115 3752.91 4115.2416 3752.75693 4115.32831 3752.62716 4115.45807 3752.54045 4115.61115 3752.51 4121.47754 3752.51 4121.72418 3752.48221 4121.93712 3752.4077 4122.12815 3752.28767 4122.28767 3752.12815 4122.4077 3751.93712 4122.48221 3751.72418 4122.51 3751.47754 4122.51 3745.52246 4122.48221 3745.27582 4122.4077 3745.06288 4122.28767 3744.87185 4122.12815 3744.71233 4121.93712 3744.5923 4121.72418 3744.51779 4121.47754 3744.49 4115.52246 3744.49 4115.27582 3744.51779 4115.06288 3744.5923 4114.87185 3744.71233 4114.71233 3744.87185 4114.5923 3745.06288 4114.51779 3745.27582 4114.49 3745.52246 4114.49 3751.38885 4114.45955 3751.54193 4114.37284 3751.67169 4114.24307 3751.7584 4114.09 3751.78885 4113.93693 3751.7584 4113.80716 3751.67169 4111.12716 3748.99169 4111.04045 3748.86193 4111.01 3748.70885 4111.01 3739.01965 4110.97909 3738.70579 4110.89327 3738.42289 4110.75391 3738.16216 4110.55384 3737.91837 4106.58163 3733.94616 4106.33784 3733.74609 4106.07711 3733.60673 4105.79421 3733.52091 4105.48035 3733.49 4085.01965 3733.49 4084.70579 3733.52091 4084.42289 3733.60673 4084.16216 3733.74609 4083.91837 3733.94616 4078.44616 3739.41837 4078.24609 3739.66216 4078.10673 3739.92289 4078.02091 3740.20579 4077.99 3740.51965 4077.99 3744.52915 4077.96485 3744.66874 4077.89256 3744.79078 4077.78223 3744.87993 4077.34277 3745.12076 4076.91161 3745.43844 4076.52664 3745.81075 4076.19473 3746.23106 4075.9218 3746.69185 4075.71272 3747.18491 4075.57123 3747.70144 4075.49985 3748.23222 4075.49985 3748.76778 4075.57123 3749.29856 4075.71272 3749.81509 4075.9218 3750.30815 4076.19473 3750.76894 4076.52664 3751.18925 4076.91161 3751.56156 4077.34277 3751.87924 4077.81243 3752.13662 4078.3122 3752.32911 4078.83317 3752.45326 4079.36604 3752.50687 4079.90129 3752.48897 4080.42939 3752.39989 4080.9409 3752.24122 4081.4267 3752.01578 4081.87812 3751.72761 4082.2871 3751.38184 4082.64634 3750.98464 4082.94944 3750.54311 4083.19098 3750.06511 4083.36666 3749.55919 4083.47333 3749.03436 4083.5091 3748.5 4083.47333 3747.96564 4083.36666 3747.44081 4083.19098 3746.93489 4082.94944 3746.45689 4082.64634 3746.01536 4082.2871 3745.61816 4081.87812 3745.27239 4081.4267 3744.98422 4081.24163 3744.89833 4081.11939 3744.81035 4081.03835 3744.68341 4081.01 3744.53549 4081.01 3741.29115 4081.04045 3741.13807 4081.12716 3741.00831 4085.50831 3736.62716 4085.63807 3736.54045 4085.79115 3736.51 4104.70885 3736.51 4104.86193 3736.54045 4104.99169 3736.62716 4107.87284 3739.50831 4107.95955 3739.63807 4107.99 3739.79115 4107.99 3748.54614 4107.95602 3748.70746 4107.85987 3748.84138 4107.71787 3748.92515 4107.55414 3748.94453 4107.39651 3748.89623 4107.2186 3748.7979 4106.60416 3748.54339 4105.96509 3748.35927 4105.30942 3748.24787 4104.6454 3748.21058 4103.98138 3748.24787 4103.32571 3748.35927 4102.68664 3748.54339 4102.0722 3748.7979 4101.49012 3749.1196 4100.94772 3749.50445 4100.45182 3749.94762 4100.00865 3750.44352 4099.6238 3750.98592 4099.3021 3751.568 4099.04759 3752.18244 4098.86347 3752.82151 4098.75207 3753.47718 4098.71478 3754.1412 4098.75207 3754.80522 4098.86347 3755.46089 4099.04759 3756.09996 4099.3021 3756.7144 4099.6238 3757.29648 4100.00865 3757.83888 4100.45182 3758.33478 4100.94772 3758.77795 4101.49012 3759.1628 4102.0722 3759.4845 4102.68664 3759.73901 4103.32571 3759.92313 4103.98138 3760.03453 4104.6454 3760.07182 4105.30942 3760.03453 4105.96509 3759.92313 4106.60416 3759.73901 4107.2186 3759.4845 4107.80068 3759.1628 4108.34308 3758.77795 4108.83898 3758.33478 4109.28215 3757.83888 4109.667 3757.29648 4109.9887 3756.7144 4110.24321 3756.09996 4110.42733 3755.46089 4110.53873 3754.80522 4110.57602 3754.1412 4110.54971 3753.67265 4110.57278 3753.51459 4110.65586 3753.37816 4110.7857 3753.28511 4110.9416 3753.2503 4111.09869 3753.27926 4111.23192 3753.36738 4114.62229 3756.75775 4114.70245 3756.87259 4114.73812 3757.00803 4114.72491 3757.14746 4114.57115 3757.70206 4114.49985 3758.23222 4114.49985 3758.76778 4114.57123 3759.29856 4114.71272 3759.81509 4114.9218 3760.30815 4115.19473 3760.76894 4115.52664 3761.18925 4115.91161 3761.56156 4116.34277 3761.87924 4116.81243 3762.13662 4117.3122 3762.32911 4117.83317 3762.45326 4118.36604 3762.50687 Z M 4143.5 3823.94627 L 4144.09621 3823.91021 4144.68372 3823.80254 4145.25397 3823.62484 4145.79865 3823.3797 4146.3098 3823.0707 4146.77998 3822.70234 4147.20234 3822.27998 4147.5707 3821.8098 4147.8797 3821.29865 4148.12484 3820.75397 4148.30254 3820.18372 4148.41021 3819.59621 4148.44627 3819 4148.41021 3818.40379 4148.30254 3817.81628 4148.12484 3817.24603 4147.8797 3816.70135 4147.5707 3816.1902 4147.20234 3815.72002 4146.77998 3815.29766 4146.3098 3814.9293 4145.79865 3814.6203 4145.24583 3814.3715 4145.12152 3814.28383 4145.03893 3814.15608 4145.01 3814.00674 4145.01 3811.79115 4145.04045 3811.63807 4145.12716 3811.50831 4159.05384 3797.58163 4159.25391 3797.33784 4159.39327 3797.07711 4159.47909 3796.79421 4159.51 3796.48035 4159.51 3778.01965 4159.47909 3777.70579 4159.39327 3777.42289 4159.25391 3777.16216 4159.05384 3776.91837 4152.37071 3770.23524 4152.28705 3770.11265 4152.25385 3769.96799 4152.27568 3769.82119 4152.36666 3769.55919 4152.47333 3769.03436 4152.5091 3768.5 4152.47333 3767.96564 4152.36666 3767.44081 4152.19098 3766.93489 4151.94944 3766.45689 4151.64634 3766.01536 4151.2871 3765.61816 4150.87812 3765.27239 4150.4267 3764.98422 4149.9409 3764.75878 4149.42939 3764.60011 4148.90129 3764.51103 4148.36604 3764.49313 4147.83317 3764.54674 4147.3122 3764.67089 4146.81243 3764.86338 4146.34277 3765.12076 4145.91161 3765.43844 4145.52664 3765.81075 4145.19473 3766.23106 4144.9218 3766.69185 4144.71272 3767.18491 4144.57123 3767.70144 4144.49985 3768.23222 4144.49985 3768.76778 4144.57123 3769.29856 4144.71272 3769.81509 4144.9218 3770.30815 4145.19473 3770.76894 4145.52664 3771.18925 4145.91161 3771.56156 4146.34277 3771.87924 4146.81243 3772.13662 4147.3122 3772.32911 4147.83317 3772.45326 4148.36604 3772.50687 4148.90129 3772.48897 4149.42939 3772.39989 4149.83611 3772.27373 4149.97911 3772.25652 4150.11894 3772.29108 4150.23746 3772.37292 4156.37284 3778.50831 4156.45955 3778.63807 4156.49 3778.79115 4156.49 3795.70885 4156.45955 3795.86193 4156.37284 3795.99169 4142.44616 3809.91837 4142.24609 3810.16216 4142.10673 3810.42289 4142.02091 3810.70579 4141.99 3811.01965 4141.99 3814.00674 4141.96107 3814.15608 4141.87848 3814.28383 4141.75417 3814.3715 4141.20135 3814.6203 4140.6902 3814.9293 4140.22002 3815.29766 4139.79766 3815.72002 4139.4293 3816.1902 4139.1203 3816.70135 4138.87516 3817.24603 4138.69746 3817.81628 4138.58979 3818.40379 4138.55373 3819 4138.58979 3819.59621 4138.69746 3820.18372 4138.87516 3820.75397 4139.1203 3821.29865 4139.4293 3821.8098 4139.79766 3822.27998 4140.22002 3822.70234 4140.6902 3823.0707 4141.20135 3823.3797 4141.74603 3823.62484 4142.31628 3823.80254 4142.90379 3823.91021 4143.5 3823.94627 Z M 4147.83317 3782.45326 L 4148.36604 3782.50687 4148.90129 3782.48897 4149.42939 3782.39989 4149.9409 3782.24122 4150.4267 3782.01578 4150.87812 3781.72761 4151.2871 3781.38184 4151.64634 3780.98464 4151.94944 3780.54311 4152.19098 3780.06511 4152.36666 3779.55919 4152.47333 3779.03436 4152.5091 3778.5 4152.47333 3777.96564 4152.36666 3777.44081 4152.19098 3776.93489 4151.94944 3776.45689 4151.64634 3776.01536 4151.2871 3775.61816 4150.87812 3775.27239 4150.4267 3774.98422 4149.9409 3774.75878 4149.42939 3774.60011 4148.90129 3774.51103 4148.36604 3774.49313 4147.83317 3774.54674 4147.3122 3774.67089 4146.81243 3774.86338 4146.34277 3775.12076 4145.91161 3775.43844 4145.52664 3775.81075 4145.19473 3776.23106 4144.9218 3776.69185 4144.71272 3777.18491 4144.57123 3777.70144 4144.49985 3778.23222 4144.49985 3778.76778 4144.57123 3779.29856 4144.71272 3779.81509 4144.9218 3780.30815 4145.19473 3780.76894 4145.52664 3781.18925 4145.91161 3781.56156 4146.34277 3781.87924 4146.81243 3782.13662 4147.3122 3782.32911 4147.83317 3782.45326 Z M 4117.83317 3772.45326 L 4118.36604 3772.50687 4118.90129 3772.48897 4119.42939 3772.39989 4119.9409 3772.24122 4120.4267 3772.01578 4120.87812 3771.72761 4121.2871 3771.38184 4121.64634 3770.98464 4121.94944 3770.54311 4122.19098 3770.06511 4122.36666 3769.55919 4122.47333 3769.03436 4122.5091 3768.5 4122.47333 3767.96564 4122.36666 3767.44081 4122.19098 3766.93489 4121.94944 3766.45689 4121.64634 3766.01536 4121.2871 3765.61816 4120.87812 3765.27239 4120.4267 3764.98422 4119.9409 3764.75878 4119.42939 3764.60011 4118.90129 3764.51103 4118.36604 3764.49313 4117.83317 3764.54674 4117.3122 3764.67089 4116.81243 3764.86338 4116.34277 3765.12076 4115.91161 3765.43844 4115.52664 3765.81075 4115.19473 3766.23106 4114.9218 3766.69185 4114.71272 3767.18491 4114.57123 3767.70144 4114.49985 3768.23222 4114.49985 3768.76778 4114.57123 3769.29856 4114.71272 3769.81509 4114.9218 3770.30815 4115.19473 3770.76894 4115.52664 3771.18925 4115.91161 3771.56156 4116.34277 3771.87924 4116.81243 3772.13662 4117.3122 3772.32911 4117.83317 3772.45326 Z M 4118.36604 3782.50687 L 4118.90129 3782.48897 4119.42939 3782.39989 4119.9409 3782.24122 4120.4267 3782.01578 4120.87812 3781.72761 4121.2871 3781.38184 4121.64634 3780.98464 4121.94944 3780.54311 4122.19098 3780.06511 4122.36666 3779.55919 4122.47333 3779.03436 4122.5091 3778.5 4122.47333 3777.96564 4122.36666 3777.44081 4122.19098 3776.93489 4121.94944 3776.45689 4121.64634 3776.01536 4121.2871 3775.61816 4120.87812 3775.27239 4120.4267 3774.98422 4119.9409 3774.75878 4119.42939 3774.60011 4118.90129 3774.51103 4118.36604 3774.49313 4117.83317 3774.54674 4117.3122 3774.67089 4116.81243 3774.86338 4116.34277 3775.12076 4115.91161 3775.43844 4115.52664 3775.81075 4115.19473 3776.23106 4114.9218 3776.69185 4114.71272 3777.18491 4114.57123 3777.70144 4114.49985 3778.23222 4114.49985 3778.76778 4114.57123 3779.29856 4114.71272 3779.81509 4114.9218 3780.30815 4115.19473 3780.76894 4115.52664 3781.18925 4115.91161 3781.56156 4116.34277 3781.87924 4116.81243 3782.13662 4117.3122 3782.32911 4117.83317 3782.45326 4118.36604 3782.50687 Z M 4148.36604 3762.50687 L 4148.90129 3762.48897 4149.42939 3762.39989 4149.9409 3762.24122 4150.4267 3762.01578 4150.87812 3761.72761 4151.2871 3761.38184 4151.64634 3760.98464 4151.94944 3760.54311 4152.19098 3760.06511 4152.36666 3759.55919 4152.47333 3759.03436 4152.5091 3758.5 4152.47333 3757.96564 4152.36666 3757.44081 4152.19098 3756.93489 4151.94944 3756.45689 4151.64634 3756.01536 4151.2871 3755.61816 4150.87812 3755.27239 4150.4267 3754.98422 4149.9409 3754.75878 4149.42939 3754.60011 4148.90129 3754.51103 4148.36604 3754.49313 4147.83317 3754.54674 4147.3122 3754.67089 4146.81243 3754.86338 4146.34277 3755.12076 4145.91161 3755.43844 4145.52664 3755.81075 4145.19473 3756.23106 4144.9218 3756.69185 4144.71272 3757.18491 4144.57123 3757.70144 4144.49985 3758.23222 4144.49985 3758.76778 4144.57123 3759.29856 4144.71272 3759.81509 4144.9218 3760.30815 4145.19473 3760.76894 4145.52664 3761.18925 4145.91161 3761.56156 4146.34277 3761.87924 4146.81243 3762.13662 4147.3122 3762.32911 4147.83317 3762.45326 4148.36604 3762.50687 Z M 4089.36604 3798.00687 L 4089.90129 3797.98897 4090.42939 3797.89989 4090.9409 3797.74122 4091.4267 3797.51578 4091.87812 3797.22761 4092.2871 3796.88184 4092.64634 3796.48464 4092.94944 3796.04311 4093.19098 3795.56511 4093.36666 3795.05919 4093.47333 3794.53436 4093.5091 3794 4093.47333 3793.46564 4093.36666 3792.94081 4093.19098 3792.43489 4092.94944 3791.95689 4092.64634 3791.51536 4092.2871 3791.11816 4091.87812 3790.77239 4091.4267 3790.48422 4090.9409 3790.25878 4090.42939 3790.10011 4089.90129 3790.01103 4089.36604 3789.99313 4088.83317 3790.04674 4088.3122 3790.17089 4087.81243 3790.36338 4087.34277 3790.62076 4086.91161 3790.93844 4086.52664 3791.31075 4086.19473 3791.73106 4085.9218 3792.19185 4085.71272 3792.68491 4085.57123 3793.20144 4085.49985 3793.73222 4085.49985 3794.26778 4085.57123 3794.79856 4085.71272 3795.31509 4085.9218 3795.80815 4086.19473 3796.26894 4086.52664 3796.68925 4086.91161 3797.06156 4087.34277 3797.37924 4087.81243 3797.63662 4088.3122 3797.82911 4088.83317 3797.95326 4089.36604 3798.00687 Z M 4069.36604 3798.00687 L 4069.90129 3797.98897 4070.42939 3797.89989 4070.9409 3797.74122 4071.4267 3797.51578 4071.87812 3797.22761 4072.2871 3796.88184 4072.64634 3796.48464 4072.94944 3796.04311 4073.19098 3795.56511 4073.36666 3795.05919 4073.47333 3794.53436 4073.5091 3794 4073.47333 3793.46564 4073.36666 3792.94081 4073.19098 3792.43489 4072.94944 3791.95689 4072.64634 3791.51536 4072.2871 3791.11816 4071.87812 3790.77239 4071.4267 3790.48422 4070.9409 3790.25878 4070.42939 3790.10011 4069.90129 3790.01103 4069.36604 3789.99313 4068.83317 3790.04674 4068.3122 3790.17089 4067.81243 3790.36338 4067.34277 3790.62076 4066.91161 3790.93844 4066.52664 3791.31075 4066.19473 3791.73106 4065.9218 3792.19185 4065.71272 3792.68491 4065.57123 3793.20144 4065.49985 3793.73222 4065.49985 3794.26778 4065.57123 3794.79856 4065.71272 3795.31509 4065.9218 3795.80815 4066.19473 3796.26894 4066.52664 3796.68925 4066.91161 3797.06156 4067.34277 3797.37924 4067.81243 3797.63662 4068.3122 3797.82911 4068.83317 3797.95326 4069.36604 3798.00687 Z M 4078.83317 3797.95326 L 4079.36604 3798.00687 4079.90129 3797.98897 4080.42939 3797.89989 4080.9409 3797.74122 4081.4267 3797.51578 4081.87812 3797.22761 4082.2871 3796.88184 4082.64634 3796.48464 4082.94944 3796.04311 4083.19098 3795.56511 4083.36666 3795.05919 4083.47333 3794.53436 4083.5091 3794 4083.47333 3793.46564 4083.36666 3792.94081 4083.19098 3792.43489 4082.94944 3791.95689 4082.64634 3791.51536 4082.2871 3791.11816 4081.87812 3790.77239 4081.4267 3790.48422 4080.9409 3790.25878 4080.42939 3790.10011 4079.90129 3790.01103 4079.36604 3789.99313 4078.83317 3790.04674 4078.3122 3790.17089 4077.81243 3790.36338 4077.34277 3790.62076 4076.91161 3790.93844 4076.52664 3791.31075 4076.19473 3791.73106 4075.9218 3792.19185 4075.71272 3792.68491 4075.57123 3793.20144 4075.49985 3793.73222 4075.49985 3794.26778 4075.57123 3794.79856 4075.71272 3795.31509 4075.9218 3795.80815 4076.19473 3796.26894 4076.52664 3796.68925 4076.91161 3797.06156 4077.34277 3797.37924 4077.81243 3797.63662 4078.3122 3797.82911 4078.83317 3797.95326 Z M 4089.36604 3752.50687 L 4089.90129 3752.48897 4090.42939 3752.39989 4090.9409 3752.24122 4091.4267 3752.01578 4091.87812 3751.72761 4092.2871 3751.38184 4092.64634 3750.98464 4092.94944 3750.54311 4093.19098 3750.06511 4093.36666 3749.55919 4093.47333 3749.03436 4093.5091 3748.5 4093.47333 3747.96564 4093.36666 3747.44081 4093.19098 3746.93489 4092.94944 3746.45689 4092.64634 3746.01536 4092.2871 3745.61816 4091.87812 3745.27239 4091.4267 3744.98422 4090.9409 3744.75878 4090.42939 3744.60011 4089.90129 3744.51103 4089.36604 3744.49313 4088.83317 3744.54674 4088.3122 3744.67089 4087.81243 3744.86338 4087.34277 3745.12076 4086.91161 3745.43844 4086.52664 3745.81075 4086.19473 3746.23106 4085.9218 3746.69185 4085.71272 3747.18491 4085.57123 3747.70144 4085.49985 3748.23222 4085.49985 3748.76778 4085.57123 3749.29856 4085.71272 3749.81509 4085.9218 3750.30815 4086.19473 3750.76894 4086.52664 3751.18925 4086.91161 3751.56156 4087.34277 3751.87924 4087.81243 3752.13662 4088.3122 3752.32911 4088.83317 3752.45326 4089.36604 3752.50687 Z M 4101.93478 3830.17078 L 4101.93478 3827.61405 4101.49012 3827.8598 4100.94772 3828.24465 4100.45182 3828.68782 4100.00865 3829.18372 4099.6238 3829.72612 4099.37805 3830.17078 4101.93478 3830.17078 Z M 4107.35603 3838.14875 L 4107.80068 3837.903 4108.34308 3837.51815 4108.83898 3837.07498 4109.28215 3836.57908 4109.667 3836.03668 4109.91275 3835.59203 4107.35603 3835.59203 4107.35603 3838.14875 Z M 4101.93478 3838.14875 L 4101.93478 3835.59203 4099.37805 3835.59203 4099.6238 3836.03668 4100.00865 3836.57908 4100.45182 3837.07498 4100.94772 3837.51815 4101.49012 3837.903 4101.93478 3838.14875 Z M 4107.35603 3827.61405 L 4107.35603 3830.17078 4109.91275 3830.17078 4109.667 3829.72612 4109.28215 3829.18372 4108.83898 3828.68782 4108.34308 3828.24465 4107.80068 3827.8598 4107.35603 3827.61405 Z M 4120.7815 3823.41577 L 4120.7815 3821.2185 4118.58423 3821.2185 4118.6203 3821.29865 4118.9293 3821.8098 4119.29766 3822.27998 4119.72002 3822.70234 4120.1902 3823.0707 4120.70135 3823.3797 4120.7815 3823.41577 Z M 4125.2185 3814.58423 L 4125.2185 3816.7815 4127.41577 3816.7815 4127.3797 3816.70135 4127.0707 3816.1902 4126.70234 3815.72002 4126.27998 3815.29766 4125.8098 3814.9293 4125.29865 3814.6203 4125.2185 3814.58423 Z M 4120.7815 3816.7815 L 4120.7815 3814.58423 4120.70135 3814.6203 4120.1902 3814.9293 4119.72002 3815.29766 4119.29766 3815.72002 4118.9293 3816.1902 4118.6203 3816.70135 4118.58423 3816.7815 4120.7815 3816.7815 Z M 4125.2185 3821.2185 L 4125.2185 3823.41577 4125.29865 3823.3797 4125.8098 3823.0707 4126.27998 3822.70234 4126.70234 3822.27998 4127.0707 3821.8098 4127.3797 3821.29865 4127.41577 3821.2185 4125.2185 3821.2185 Z M 4146.75 3746.75 L 4146.75 3744.89759 4146.34277 3745.12076 4145.91161 3745.43844 4145.52664 3745.81075 4145.19473 3746.23106 4144.9218 3746.69185 4144.89714 3746.75 4146.75 3746.75 Z M 4146.75 3752.10241 L 4146.75 3750.25 4144.89714 3750.25 4144.9218 3750.30815 4145.19473 3750.76894 4145.52664 3751.18925 4145.91161 3751.56156 4146.34277 3751.87924 4146.75 3752.10241 Z M 4065.9218 3746.69185 L 4065.89714 3746.75 4067.75 3746.75 4067.75 3744.89759 4067.34277 3745.12076 4066.91161 3745.43844 4066.52664 3745.81075 4066.19473 3746.23106 4065.9218 3746.69185 Z M 4067.75 3752.10241 L 4067.75 3750.25 4065.89714 3750.25 4065.9218 3750.30815 4066.19473 3750.76894 4066.52664 3751.18925 4066.91161 3751.56156 4067.34277 3751.87924 4067.75 3752.10241 Z M 4071.25 3744.90222 L 4071.25 3746.75 4073.09755 3746.75 4072.94944 3746.45689 4072.64634 3746.01536 4072.2871 3745.61816 4071.87812 3745.27239 4071.4267 3744.98422 4071.25 3744.90222 Z M 4071.25 3752.09778 L 4071.4267 3752.01578 4071.87812 3751.72761 4072.2871 3751.38184 4072.64634 3750.98464 4072.94944 3750.54311 4073.09755 3750.25 4071.25 3750.25 4071.25 3752.09778 Z M 4150.25 3750.25 L 4150.25 3752.09778 4150.4267 3752.01578 4150.87812 3751.72761 4151.2871 3751.38184 4151.64634 3750.98464 4151.94944 3750.54311 4152.09755 3750.25 4150.25 3750.25 Z M 4152.09755 3746.75 L 4151.94944 3746.45689 4151.64634 3746.01536 4151.2871 3745.61816 4150.87812 3745.27239 4150.4267 3744.98422 4150.25 3744.90222 4150.25 3746.75 4152.09755 3746.75 Z " stroke-width="0" layerid="1" attachedcopperid="gge175" c_shapetype="line"/></g><g before-id="layer_10"><path d="M 4047.5591 3728.5512 L 4165.6693 3728.5512 L 4165.6693 3846.6614 L 4047.5591 3846.6614 L 4047.5591 3728.5512 L4053.4646,3728.5512 Z" stroke-width="1" clearance_width="1" grid_clearance="1" grid_track_width="1" fill_style="solid" fill="none" thermal="spoke" keep_island="none" stroke-dasharray="3,3" layerid="2" copper="2" c_shapetype="line" locked="0" name="gge177" order="2" to_board_outline="1" fabrication_improve="yes" spoke_width="0"/><path d="M 4049.41 3845.1002 L 4049.25693 3845.06975 4049.12716 3844.98304 4049.04045 3844.85327 4049.01 3844.7002 4049.01 3729.41 4049.04045 3729.25693 4049.12716 3729.12716 4049.25693 3729.04045 4049.41 3729.01 4164.7002 3729.01 4164.85327 3729.04045 4164.98304 3729.12716 4165.06975 3729.25693 4165.1002 3729.41 4165.1002 3844.7002 4165.06975 3844.85327 4164.98304 3844.98304 4164.85327 3845.06975 4164.7002 3845.1002 4049.41 3845.1002 Z M 4104.6454 3838.81202 L 4105.30942 3838.77473 4105.96509 3838.66333 4106.60416 3838.47921 4107.2186 3838.2247 4107.80068 3837.903 4108.34308 3837.51815 4108.83898 3837.07498 4109.28215 3836.57908 4109.667 3836.03668 4109.9887 3835.4546 4110.24321 3834.84016 4110.42733 3834.20109 4110.53873 3833.54542 4110.57602 3832.8814 4110.53873 3832.21738 4110.42733 3831.56171 4110.24321 3830.92264 4109.9887 3830.3082 4109.667 3829.72612 4109.28215 3829.18372 4108.83898 3828.68782 4108.34308 3828.24465 4107.80068 3827.8598 4107.2186 3827.5381 4106.60416 3827.28359 4105.96509 3827.09947 4105.30942 3826.98807 4104.6454 3826.95078 4103.98138 3826.98807 4103.32571 3827.09947 4102.68664 3827.28359 4102.0722 3827.5381 4101.49012 3827.8598 4100.94772 3828.24465 4100.45182 3828.68782 4100.00865 3829.18372 4099.6238 3829.72612 4099.3021 3830.3082 4099.04759 3830.92264 4098.86347 3831.56171 4098.75207 3832.21738 4098.71478 3832.8814 4098.75207 3833.54542 4098.86347 3834.20109 4099.04759 3834.84016 4099.3021 3835.4546 4099.6238 3836.03668 4100.00865 3836.57908 4100.45182 3837.07498 4100.94772 3837.51815 4101.49012 3837.903 4102.0722 3838.2247 4102.68664 3838.47921 4103.32571 3838.66333 4103.98138 3838.77473 4104.6454 3838.81202 Z M 4143.5 3823.94627 L 4144.09621 3823.91021 4144.68372 3823.80254 4145.25397 3823.62484 4145.79865 3823.3797 4146.3098 3823.0707 4146.77998 3822.70234 4147.20234 3822.27998 4147.5707 3821.8098 4147.8797 3821.29865 4148.12484 3820.75397 4148.30254 3820.18372 4148.41021 3819.59621 4148.44627 3819 4148.41021 3818.40379 4148.30254 3817.81628 4148.12484 3817.24603 4147.8797 3816.70135 4147.5707 3816.1902 4147.20234 3815.72002 4146.77998 3815.29766 4146.3098 3814.9293 4145.79865 3814.6203 4145.25397 3814.37516 4144.68372 3814.19746 4144.09621 3814.08979 4143.5 3814.05373 4142.90379 3814.08979 4142.31628 3814.19746 4141.74603 3814.37516 4141.20135 3814.6203 4140.6902 3814.9293 4140.22002 3815.29766 4139.79766 3815.72002 4139.4293 3816.1902 4139.1203 3816.70135 4138.87516 3817.24603 4138.69746 3817.81628 4138.58979 3818.40379 4138.55373 3819 4138.58979 3819.59621 4138.69746 3820.18372 4138.87516 3820.75397 4139.1203 3821.29865 4139.4293 3821.8098 4139.79766 3822.27998 4140.22002 3822.70234 4140.6902 3823.0707 4141.20135 3823.3797 4141.74603 3823.62484 4142.31628 3823.80254 4142.90379 3823.91021 4143.5 3823.94627 Z M 4123 3823.94627 L 4123.59621 3823.91021 4124.18372 3823.80254 4124.75397 3823.62484 4125.29865 3823.3797 4125.8098 3823.0707 4126.27998 3822.70234 4126.70234 3822.27998 4127.0707 3821.8098 4127.3797 3821.29865 4127.62484 3820.75397 4127.80254 3820.18372 4127.91021 3819.59621 4127.94627 3819 4127.91021 3818.40379 4127.80254 3817.81628 4127.62484 3817.24603 4127.3797 3816.70135 4127.0707 3816.1902 4126.70234 3815.72002 4126.27998 3815.29766 4125.8098 3814.9293 4125.29865 3814.6203 4124.75397 3814.37516 4124.18372 3814.19746 4123.59621 3814.08979 4123 3814.05373 4122.40379 3814.08979 4121.81628 3814.19746 4121.24603 3814.37516 4120.70135 3814.6203 4120.1902 3814.9293 4119.72002 3815.29766 4119.29766 3815.72002 4118.9293 3816.1902 4118.6203 3816.70135 4118.37516 3817.24603 4118.19746 3817.81628 4118.08979 3818.40379 4118.05373 3819 4118.08979 3819.59621 4118.19746 3820.18372 4118.37516 3820.75397 4118.6203 3821.29865 4118.9293 3821.8098 4119.29766 3822.27998 4119.72002 3822.70234 4120.1902 3823.0707 4120.70135 3823.3797 4121.24603 3823.62484 4121.81628 3823.80254 4122.40379 3823.91021 4123 3823.94627 Z M 4115.27582 3752.48221 L 4115.52246 3752.51 4121.47754 3752.51 4121.72418 3752.48221 4121.93712 3752.4077 4122.12815 3752.28767 4122.28767 3752.12815 4122.4077 3751.93712 4122.48221 3751.72418 4122.51 3751.47754 4122.51 3745.52246 4122.48221 3745.27582 4122.4077 3745.06288 4122.28767 3744.87185 4122.12815 3744.71233 4121.93712 3744.5923 4121.72418 3744.51779 4121.47754 3744.49 4115.52246 3744.49 4115.27582 3744.51779 4115.06288 3744.5923 4114.87185 3744.71233 4114.71233 3744.87185 4114.5923 3745.06288 4114.51779 3745.27582 4114.49 3745.52246 4114.49 3751.47754 4114.51779 3751.72418 4114.5923 3751.93712 4114.71233 3752.12815 4114.87185 3752.28767 4115.06288 3752.4077 4115.27582 3752.48221 Z M 4148.36604 3752.50687 L 4148.90129 3752.48897 4149.42939 3752.39989 4149.9409 3752.24122 4150.4267 3752.01578 4150.87812 3751.72761 4151.2871 3751.38184 4151.64634 3750.98464 4151.94944 3750.54311 4152.19098 3750.06511 4152.36666 3749.55919 4152.47333 3749.03436 4152.5091 3748.5 4152.47333 3747.96564 4152.36666 3747.44081 4152.19098 3746.93489 4151.94944 3746.45689 4151.64634 3746.01536 4151.2871 3745.61816 4150.87812 3745.27239 4150.4267 3744.98422 4149.9409 3744.75878 4149.42939 3744.60011 4148.90129 3744.51103 4148.36604 3744.49313 4147.83317 3744.54674 4147.3122 3744.67089 4146.81243 3744.86338 4146.34277 3745.12076 4145.91161 3745.43844 4145.52664 3745.81075 4145.19473 3746.23106 4144.9218 3746.69185 4144.71272 3747.18491 4144.57123 3747.70144 4144.49985 3748.23222 4144.49985 3748.76778 4144.57123 3749.29856 4144.71272 3749.81509 4144.9218 3750.30815 4145.19473 3750.76894 4145.52664 3751.18925 4145.91161 3751.56156 4146.34277 3751.87924 4146.81243 3752.13662 4147.3122 3752.32911 4147.83317 3752.45326 4148.36604 3752.50687 Z M 4148.36604 3782.50687 L 4148.90129 3782.48897 4149.42939 3782.39989 4149.9409 3782.24122 4150.4267 3782.01578 4150.87812 3781.72761 4151.2871 3781.38184 4151.64634 3780.98464 4151.94944 3780.54311 4152.19098 3780.06511 4152.36666 3779.55919 4152.47333 3779.03436 4152.5091 3778.5 4152.47333 3777.96564 4152.36666 3777.44081 4152.19098 3776.93489 4151.94944 3776.45689 4151.64634 3776.01536 4151.2871 3775.61816 4150.87812 3775.27239 4150.4267 3774.98422 4149.9409 3774.75878 4149.42939 3774.60011 4148.90129 3774.51103 4148.36604 3774.49313 4147.83317 3774.54674 4147.3122 3774.67089 4146.81243 3774.86338 4146.34277 3775.12076 4145.91161 3775.43844 4145.52664 3775.81075 4145.19473 3776.23106 4144.9218 3776.69185 4144.71272 3777.18491 4144.57123 3777.70144 4144.49985 3778.23222 4144.49985 3778.76778 4144.57123 3779.29856 4144.71272 3779.81509 4144.9218 3780.30815 4145.19473 3780.76894 4145.52664 3781.18925 4145.91161 3781.56156 4146.34277 3781.87924 4146.81243 3782.13662 4147.3122 3782.32911 4147.83317 3782.45326 4148.36604 3782.50687 Z M 4148.36604 3762.50687 L 4148.90129 3762.48897 4149.42939 3762.39989 4149.9409 3762.24122 4150.4267 3762.01578 4150.87812 3761.72761 4151.2871 3761.38184 4151.64634 3760.98464 4151.94944 3760.54311 4152.19098 3760.06511 4152.36666 3759.55919 4152.47333 3759.03436 4152.5091 3758.5 4152.47333 3757.96564 4152.36666 3757.44081 4152.19098 3756.93489 4151.94944 3756.45689 4151.64634 3756.01536 4151.2871 3755.61816 4150.87812 3755.27239 4150.4267 3754.98422 4149.9409 3754.75878 4149.42939 3754.60011 4148.90129 3754.51103 4148.36604 3754.49313 4147.83317 3754.54674 4147.3122 3754.67089 4146.81243 3754.86338 4146.34277 3755.12076 4145.91161 3755.43844 4145.52664 3755.81075 4145.19473 3756.23106 4144.9218 3756.69185 4144.71272 3757.18491 4144.57123 3757.70144 4144.49985 3758.23222 4144.49985 3758.76778 4144.57123 3759.29856 4144.71272 3759.81509 4144.9218 3760.30815 4145.19473 3760.76894 4145.52664 3761.18925 4145.91161 3761.56156 4146.34277 3761.87924 4146.81243 3762.13662 4147.3122 3762.32911 4147.83317 3762.45326 4148.36604 3762.50687 Z M 4117.83317 3762.45326 L 4118.36604 3762.50687 4118.90129 3762.48897 4119.42939 3762.39989 4119.9409 3762.24122 4120.4267 3762.01578 4120.87812 3761.72761 4121.2871 3761.38184 4121.64634 3760.98464 4121.94944 3760.54311 4122.19098 3760.06511 4122.36666 3759.55919 4122.47333 3759.03436 4122.5091 3758.5 4122.47333 3757.96564 4122.36666 3757.44081 4122.19098 3756.93489 4121.94944 3756.45689 4121.64634 3756.01536 4121.2871 3755.61816 4120.87812 3755.27239 4120.4267 3754.98422 4119.9409 3754.75878 4119.42939 3754.60011 4118.90129 3754.51103 4118.36604 3754.49313 4117.83317 3754.54674 4117.3122 3754.67089 4116.81243 3754.86338 4116.34277 3755.12076 4115.91161 3755.43844 4115.52664 3755.81075 4115.19473 3756.23106 4114.9218 3756.69185 4114.71272 3757.18491 4114.57123 3757.70144 4114.49985 3758.23222 4114.49985 3758.76778 4114.57123 3759.29856 4114.71272 3759.81509 4114.9218 3760.30815 4115.19473 3760.76894 4115.52664 3761.18925 4115.91161 3761.56156 4116.34277 3761.87924 4116.81243 3762.13662 4117.3122 3762.32911 4117.83317 3762.45326 Z M 4118.36604 3772.50687 L 4118.90129 3772.48897 4119.42939 3772.39989 4119.9409 3772.24122 4120.4267 3772.01578 4120.87812 3771.72761 4121.2871 3771.38184 4121.64634 3770.98464 4121.94944 3770.54311 4122.19098 3770.06511 4122.36666 3769.55919 4122.47333 3769.03436 4122.5091 3768.5 4122.47333 3767.96564 4122.36666 3767.44081 4122.19098 3766.93489 4121.94944 3766.45689 4121.64634 3766.01536 4121.2871 3765.61816 4120.87812 3765.27239 4120.4267 3764.98422 4119.9409 3764.75878 4119.42939 3764.60011 4118.90129 3764.51103 4118.36604 3764.49313 4117.83317 3764.54674 4117.3122 3764.67089 4116.81243 3764.86338 4116.34277 3765.12076 4115.91161 3765.43844 4115.52664 3765.81075 4115.19473 3766.23106 4114.9218 3766.69185 4114.71272 3767.18491 4114.57123 3767.70144 4114.49985 3768.23222 4114.49985 3768.76778 4114.57123 3769.29856 4114.71272 3769.81509 4114.9218 3770.30815 4115.19473 3770.76894 4115.52664 3771.18925 4115.91161 3771.56156 4116.34277 3771.87924 4116.81243 3772.13662 4117.3122 3772.32911 4117.83317 3772.45326 4118.36604 3772.50687 Z M 4148.36604 3772.50687 L 4148.90129 3772.48897 4149.42939 3772.39989 4149.9409 3772.24122 4150.4267 3772.01578 4150.87812 3771.72761 4151.2871 3771.38184 4151.64634 3770.98464 4151.94944 3770.54311 4152.19098 3770.06511 4152.36666 3769.55919 4152.47333 3769.03436 4152.5091 3768.5 4152.47333 3767.96564 4152.36666 3767.44081 4152.19098 3766.93489 4151.94944 3766.45689 4151.64634 3766.01536 4151.2871 3765.61816 4150.87812 3765.27239 4150.4267 3764.98422 4149.9409 3764.75878 4149.42939 3764.60011 4148.90129 3764.51103 4148.36604 3764.49313 4147.83317 3764.54674 4147.3122 3764.67089 4146.81243 3764.86338 4146.34277 3765.12076 4145.91161 3765.43844 4145.52664 3765.81075 4145.19473 3766.23106 4144.9218 3766.69185 4144.71272 3767.18491 4144.57123 3767.70144 4144.49985 3768.23222 4144.49985 3768.76778 4144.57123 3769.29856 4144.71272 3769.81509 4144.9218 3770.30815 4145.19473 3770.76894 4145.52664 3771.18925 4145.91161 3771.56156 4146.34277 3771.87924 4146.81243 3772.13662 4147.3122 3772.32911 4147.83317 3772.45326 4148.36604 3772.50687 Z M 4068.83317 3797.95326 L 4069.36604 3798.00687 4069.90129 3797.98897 4070.42939 3797.89989 4070.9409 3797.74122 4071.4267 3797.51578 4071.87812 3797.22761 4072.2871 3796.88184 4072.64634 3796.48464 4072.94944 3796.04311 4073.19098 3795.56511 4073.36666 3795.05919 4073.47333 3794.53436 4073.5091 3794 4073.47333 3793.46564 4073.36666 3792.94081 4073.19098 3792.43489 4072.94944 3791.95689 4072.64634 3791.51536 4072.2871 3791.11816 4071.87812 3790.77239 4071.4267 3790.48422 4070.9409 3790.25878 4070.42939 3790.10011 4069.90129 3790.01103 4069.36604 3789.99313 4068.83317 3790.04674 4068.3122 3790.17089 4067.81243 3790.36338 4067.34277 3790.62076 4066.91161 3790.93844 4066.52664 3791.31075 4066.19473 3791.73106 4065.9218 3792.19185 4065.71272 3792.68491 4065.57123 3793.20144 4065.49985 3793.73222 4065.49985 3794.26778 4065.57123 3794.79856 4065.71272 3795.31509 4065.9218 3795.80815 4066.19473 3796.26894 4066.52664 3796.68925 4066.91161 3797.06156 4067.34277 3797.37924 4067.81243 3797.63662 4068.3122 3797.82911 4068.83317 3797.95326 Z M 4089.36604 3798.00687 L 4089.90129 3797.98897 4090.42939 3797.89989 4090.9409 3797.74122 4091.4267 3797.51578 4091.87812 3797.22761 4092.2871 3796.88184 4092.64634 3796.48464 4092.94944 3796.04311 4093.19098 3795.56511 4093.36666 3795.05919 4093.47333 3794.53436 4093.5091 3794 4093.47333 3793.46564 4093.36666 3792.94081 4093.19098 3792.43489 4092.94944 3791.95689 4092.64634 3791.51536 4092.2871 3791.11816 4091.87812 3790.77239 4091.4267 3790.48422 4090.9409 3790.25878 4090.42939 3790.10011 4089.90129 3790.01103 4089.36604 3789.99313 4088.83317 3790.04674 4088.3122 3790.17089 4087.81243 3790.36338 4087.34277 3790.62076 4086.91161 3790.93844 4086.52664 3791.31075 4086.19473 3791.73106 4085.9218 3792.19185 4085.71272 3792.68491 4085.57123 3793.20144 4085.49985 3793.73222 4085.49985 3794.26778 4085.57123 3794.79856 4085.71272 3795.31509 4085.9218 3795.80815 4086.19473 3796.26894 4086.52664 3796.68925 4086.91161 3797.06156 4087.34277 3797.37924 4087.81243 3797.63662 4088.3122 3797.82911 4088.83317 3797.95326 4089.36604 3798.00687 Z M 4079.36604 3798.00687 L 4079.90129 3797.98897 4080.42939 3797.89989 4080.9409 3797.74122 4081.4267 3797.51578 4081.87812 3797.22761 4082.2871 3796.88184 4082.64634 3796.48464 4082.94944 3796.04311 4083.19098 3795.56511 4083.36666 3795.05919 4083.47333 3794.53436 4083.5091 3794 4083.47333 3793.46564 4083.36666 3792.94081 4083.19098 3792.43489 4082.94944 3791.95689 4082.64634 3791.51536 4082.2871 3791.11816 4081.87812 3790.77239 4081.4267 3790.48422 4080.9409 3790.25878 4080.42939 3790.10011 4079.90129 3790.01103 4079.36604 3789.99313 4078.83317 3790.04674 4078.3122 3790.17089 4077.81243 3790.36338 4077.34277 3790.62076 4076.91161 3790.93844 4076.52664 3791.31075 4076.19473 3791.73106 4075.9218 3792.19185 4075.71272 3792.68491 4075.57123 3793.20144 4075.49985 3793.73222 4075.49985 3794.26778 4075.57123 3794.79856 4075.71272 3795.31509 4075.9218 3795.80815 4076.19473 3796.26894 4076.52664 3796.68925 4076.91161 3797.06156 4077.34277 3797.37924 4077.81243 3797.63662 4078.3122 3797.82911 4078.83317 3797.95326 4079.36604 3798.00687 Z M 4079.36604 3752.50687 L 4079.90129 3752.48897 4080.42939 3752.39989 4080.9409 3752.24122 4081.4267 3752.01578 4081.87812 3751.72761 4082.2871 3751.38184 4082.64634 3750.98464 4082.94944 3750.54311 4083.19098 3750.06511 4083.36666 3749.55919 4083.47333 3749.03436 4083.5091 3748.5 4083.47333 3747.96564 4083.36666 3747.44081 4083.19098 3746.93489 4082.94944 3746.45689 4082.64634 3746.01536 4082.2871 3745.61816 4081.87812 3745.27239 4081.4267 3744.98422 4080.9409 3744.75878 4080.42939 3744.60011 4079.90129 3744.51103 4079.36604 3744.49313 4078.83317 3744.54674 4078.3122 3744.67089 4077.81243 3744.86338 4077.34277 3745.12076 4076.91161 3745.43844 4076.52664 3745.81075 4076.19473 3746.23106 4075.9218 3746.69185 4075.71272 3747.18491 4075.57123 3747.70144 4075.49985 3748.23222 4075.49985 3748.76778 4075.57123 3749.29856 4075.71272 3749.81509 4075.9218 3750.30815 4076.19473 3750.76894 4076.52664 3751.18925 4076.91161 3751.56156 4077.34277 3751.87924 4077.81243 3752.13662 4078.3122 3752.32911 4078.83317 3752.45326 4079.36604 3752.50687 Z M 4069.36604 3752.50687 L 4069.90129 3752.48897 4070.42939 3752.39989 4070.9409 3752.24122 4071.4267 3752.01578 4071.87812 3751.72761 4072.2871 3751.38184 4072.64634 3750.98464 4072.94944 3750.54311 4073.19098 3750.06511 4073.36666 3749.55919 4073.47333 3749.03436 4073.5091 3748.5 4073.47333 3747.96564 4073.36666 3747.44081 4073.19098 3746.93489 4072.94944 3746.45689 4072.64634 3746.01536 4072.2871 3745.61816 4071.87812 3745.27239 4071.4267 3744.98422 4070.9409 3744.75878 4070.42939 3744.60011 4069.90129 3744.51103 4069.36604 3744.49313 4068.83317 3744.54674 4068.3122 3744.67089 4067.81243 3744.86338 4067.34277 3745.12076 4066.91161 3745.43844 4066.52664 3745.81075 4066.19473 3746.23106 4065.9218 3746.69185 4065.71272 3747.18491 4065.57123 3747.70144 4065.49985 3748.23222 4065.49985 3748.76778 4065.57123 3749.29856 4065.71272 3749.81509 4065.9218 3750.30815 4066.19473 3750.76894 4066.52664 3751.18925 4066.91161 3751.56156 4067.34277 3751.87924 4067.81243 3752.13662 4068.3122 3752.32911 4068.83317 3752.45326 4069.36604 3752.50687 Z M 4107.35603 3756.85183 L 4107.35603 3759.40855 4107.80068 3759.1628 4108.34308 3758.77795 4108.83898 3758.33478 4109.28215 3757.83888 4109.667 3757.29648 4109.91275 3756.85183 4107.35603 3756.85183 Z M 4101.93478 3751.43057 L 4101.93478 3748.87385 4101.49012 3749.1196 4100.94772 3749.50445 4100.45182 3749.94762 4100.00865 3750.44352 4099.6238 3750.98592 4099.37805 3751.43057 4101.93478 3751.43057 Z M 4101.93478 3759.40855 L 4101.93478 3756.85183 4099.37805 3756.85183 4099.6238 3757.29648 4100.00865 3757.83888 4100.45182 3758.33478 4100.94772 3758.77795 4101.49012 3759.1628 4101.93478 3759.40855 Z M 4109.91275 3751.43057 L 4109.667 3750.98592 4109.28215 3750.44352 4108.83898 3749.94762 4108.34308 3749.50445 4107.80068 3749.1196 4107.35603 3748.87385 4107.35603 3751.43057 4109.91275 3751.43057 Z M 4116.75 3776.75 L 4116.75 3774.89759 4116.34277 3775.12076 4115.91161 3775.43844 4115.52664 3775.81075 4115.19473 3776.23106 4114.9218 3776.69185 4114.89714 3776.75 4116.75 3776.75 Z M 4116.75 3782.10241 L 4116.75 3780.25 4114.89714 3780.25 4114.9218 3780.30815 4115.19473 3780.76894 4115.52664 3781.18925 4115.91161 3781.56156 4116.34277 3781.87924 4116.75 3782.10241 Z M 4087.75 3746.75 L 4087.75 3744.89759 4087.34277 3745.12076 4086.91161 3745.43844 4086.52664 3745.81075 4086.19473 3746.23106 4085.9218 3746.69185 4085.89714 3746.75 4087.75 3746.75 Z M 4087.34277 3751.87924 L 4087.75 3752.10241 4087.75 3750.25 4085.89714 3750.25 4085.9218 3750.30815 4086.19473 3750.76894 4086.52664 3751.18925 4086.91161 3751.56156 4087.34277 3751.87924 Z M 4093.09755 3746.75 L 4092.94944 3746.45689 4092.64634 3746.01536 4092.2871 3745.61816 4091.87812 3745.27239 4091.4267 3744.98422 4091.25 3744.90222 4091.25 3746.75 4093.09755 3746.75 Z M 4091.25 3750.25 L 4091.25 3752.09778 4091.4267 3752.01578 4091.87812 3751.72761 4092.2871 3751.38184 4092.64634 3750.98464 4092.94944 3750.54311 4093.09755 3750.25 4091.25 3750.25 Z M 4120.25 3782.09778 L 4120.4267 3782.01578 4120.87812 3781.72761 4121.2871 3781.38184 4121.64634 3780.98464 4121.94944 3780.54311 4122.09755 3780.25 4120.25 3780.25 4120.25 3782.09778 Z M 4120.25 3774.90222 L 4120.25 3776.75 4122.09755 3776.75 4121.94944 3776.45689 4121.64634 3776.01536 4121.2871 3775.61816 4120.87812 3775.27239 4120.4267 3774.98422 4120.25 3774.90222 Z " stroke-width="0" layerid="2" attachedcopperid="gge177" c_shapetype="line"/><g c_origin="4104.6457,3793.5118" c_para="package`BAT-TH_BS-2-1`" c_partid="part_lib_gge71971f0aebd0e106" locked="0" c_shapetype="group" c_etype="pinpart" layerid="2" uuid="25a043cd6bfe4528a121551d6550b565" utime="1585829145"><g c_partid="part_pcbtext" c_etype="" c_origin="4105.098,3737.536" c_rotation="0" c_mirror="1" locked="0" layerid="4" c_shapetype="group" display="none" before-id="gge128" style=""><path c_fontsize="4.5" c_fontfamily="" c_text="CR2032-BS-2-1" d="M 4102.0277 3734.0158 L 4102.2377 3733.6058 L 4102.6477 3733.1958 L 4103.0477 3732.9958 L 4103.8677 3732.9958 L 4104.2777 3733.1958 L 4104.6877 3733.6058 L 4104.8977 3734.0158 L 4105.0977 3734.6358 L 4105.0977 3735.6558 L 4104.8977 3736.2658 L 4104.6877 3736.6758 L 4104.2777 3737.0858 L 4103.8677 3737.2858 L 4103.0477 3737.2858 L 4102.6477 3737.0858 L 4102.2377 3736.6758 L 4102.0277 3736.2658 M 4100.6777 3732.9958 L 4100.6777 3737.2858 M 4100.6777 3732.9958 L 4098.8377 3732.9958 L 4098.2277 3733.1958 L 4098.0177 3733.4058 L 4097.8177 3733.8158 L 4097.8177 3734.2258 L 4098.0177 3734.6358 L 4098.2277 3734.8358 L 4098.8377 3735.0358 L 4100.6777 3735.0358 M 4099.2477 3735.0358 L 4097.8177 3737.2858 M 4096.2577 3734.0158 L 4096.2577 3733.8158 L 4096.0577 3733.4058 L 4095.8477 3733.1958 L 4095.4477 3732.9958 L 4094.6277 3732.9958 L 4094.2177 3733.1958 L 4094.0077 3733.4058 L 4093.8077 3733.8158 L 4093.8077 3734.2258 L 4094.0077 3734.6358 L 4094.4177 3735.2458 L 4096.4677 3737.2858 L 4093.5977 3737.2858 M 4091.0277 3732.9958 L 4091.6377 3733.1958 L 4092.0477 3733.8158 L 4092.2477 3734.8358 L 4092.2477 3735.4458 L 4092.0477 3736.4758 L 4091.6377 3737.0858 L 4091.0277 3737.2858 L 4090.6177 3737.2858 L 4089.9977 3737.0858 L 4089.5977 3736.4758 L 4089.3877 3735.4458 L 4089.3877 3734.8358 L 4089.5977 3733.8158 L 4089.9977 3733.1958 L 4090.6177 3732.9958 L 4091.0277 3732.9958 M 4087.6277 3732.9958 L 4085.3777 3732.9958 L 4086.6077 3734.6358 L 4085.9977 3734.6358 L 4085.5877 3734.8358 L 4085.3777 3735.0358 L 4085.1777 3735.6558 L 4085.1777 3736.0658 L 4085.3777 3736.6758 L 4085.7877 3737.0858 L 4086.3977 3737.2858 L 4087.0177 3737.2858 L 4087.6277 3737.0858 L 4087.8377 3736.8858 L 4088.0377 3736.4758 M 4083.6177 3734.0158 L 4083.6177 3733.8158 L 4083.4177 3733.4058 L 4083.2077 3733.1958 L 4082.7977 3732.9958 L 4081.9877 3732.9958 L 4081.5777 3733.1958 L 4081.3677 3733.4058 L 4081.1677 3733.8158 L 4081.1677 3734.2258 L 4081.3677 3734.6358 L 4081.7777 3735.2458 L 4083.8277 3737.2858 L 4080.9577 3737.2858 M 4079.6077 3735.4458 L 4075.9277 3735.4458 M 4074.5777 3732.9958 L 4074.5777 3737.2858 M 4074.5777 3732.9958 L 4072.7377 3732.9958 L 4072.1277 3733.1958 L 4071.9177 3733.4058 L 4071.7177 3733.8158 L 4071.7177 3734.2258 L 4071.9177 3734.6358 L 4072.1277 3734.8358 L 4072.7377 3735.0358 M 4074.5777 3735.0358 L 4072.7377 3735.0358 L 4072.1277 3735.2458 L 4071.9177 3735.4458 L 4071.7177 3735.8558 L 4071.7177 3736.4758 L 4071.9177 3736.8858 L 4072.1277 3737.0858 L 4072.7377 3737.2858 L 4074.5777 3737.2858 M 4067.4977 3733.6058 L 4067.9077 3733.1958 L 4068.5277 3732.9958 L 4069.3477 3732.9958 L 4069.9577 3733.1958 L 4070.3677 3733.6058 L 4070.3677 3734.0158 L 4070.1577 3734.4258 L 4069.9577 3734.6358 L 4069.5477 3734.8358 L 4068.3177 3735.2458 L 4067.9077 3735.4458 L 4067.7077 3735.6558 L 4067.4977 3736.0658 L 4067.4977 3736.6758 L 4067.9077 3737.0858 L 4068.5277 3737.2858 L 4069.3477 3737.2858 L 4069.9577 3737.0858 L 4070.3677 3736.6758 M 4066.1477 3735.4458 L 4062.4677 3735.4458 M 4060.9177 3734.0158 L 4060.9177 3733.8158 L 4060.7077 3733.4058 L 4060.5077 3733.1958 L 4060.0977 3732.9958 L 4059.2777 3732.9958 L 4058.8677 3733.1958 L 4058.6677 3733.4058 L 4058.4577 3733.8158 L 4058.4577 3734.2258 L 4058.6677 3734.6358 L 4059.0777 3735.2458 L 4061.1177 3737.2858 L 4058.2577 3737.2858 M 4056.9077 3735.4458 L 4053.2277 3735.4458 M 4051.8777 3733.8158 L 4051.4677 3733.6058 L 4050.8477 3732.9958 L 4050.8477 3737.2858" fill="none" stroke-width="0.6" c_note="note_name" style=""/></g><g c_partid="part_pcbtext" c_etype="" c_origin="4105.098,3744.536" c_rotation="0" c_mirror="1" locked="0" layerid="4" c_shapetype="group" before-id="gge130" style=""><path c_fontsize="4.5" c_fontfamily="" c_text="B1" d="M 4105.0977 3739.9958 L 4105.0977 3744.2858 M 4105.0977 3739.9958 L 4103.2577 3739.9958 L 4102.6477 3740.1958 L 4102.4377 3740.4058 L 4102.2377 3740.8158 L 4102.2377 3741.2258 L 4102.4377 3741.6358 L 4102.6477 3741.8358 L 4103.2577 3742.0358 M 4105.0977 3742.0358 L 4103.2577 3742.0358 L 4102.6477 3742.2458 L 4102.4377 3742.4458 L 4102.2377 3742.8558 L 4102.2377 3743.4758 L 4102.4377 3743.8858 L 4102.6477 3744.0858 L 4103.2577 3744.2858 L 4105.0977 3744.2858 M 4100.8877 3740.8158 L 4100.4777 3740.6058 L 4099.8577 3739.9958 L 4099.8577 3744.2858" fill="none" stroke-width="0.6" c_note="note_pre" style=""/></g><polyline points="4089.4879 3840.3617 4089.4879 3828.9444" stroke-width="1" c_shapetype="line" stroke-linecap="round" fill="none" layerid="4" locked="0" before-id="gge131"/><polyline points="4119.8029 3840.3617 4119.8029 3829.3381" stroke-width="1" c_shapetype="line" stroke-linecap="round" fill="none" layerid="4" locked="0" before-id="gge132"/><polyline points="4119.8029 3840.3617 4089.4879 3840.3617" stroke-width="1" c_shapetype="line" stroke-linecap="round" fill="none" layerid="4" locked="0" before-id="gge133"/><polyline points="4104.6454 3825.6767 4104.6454 3815.6767" stroke-width="1" c_shapetype="line" stroke-linecap="round" fill="none" layerid="4" locked="0" before-id="gge134"/><polyline points="4104.2517 3774.2199 4104.2517 3764.2199" stroke-width="1" c_shapetype="line" stroke-linecap="round" fill="none" layerid="4" locked="0" before-id="gge135"/><polyline points="4099.2517 3820.6767 4109.2517 3820.6767" stroke-width="1" c_shapetype="line" stroke-linecap="round" fill="none" layerid="4" locked="0" before-id="gge136"/><path d="M 4089.4879 3828.9444 A 43.5039 43.5039 0 1 1 4119.7634 3828.9738" locked="0" c_shapetype="line" fill="none" stroke-width="1" c_helper_type="arc2" layerid="4" before-id="gge137"/><path d="M 4088.11 3823.0389 A 38.5959 38.5959 0 1 1 4088.4577 3823.2019" locked="0" c_shapetype="line" fill="none" stroke-width="1" c_helper_type="arc2" layerid="4" before-id="gge138"/><g c_width="96.022618978" c_height="87.39978583" c_rotation="0,0,90" z="-11.811" c_origin="4104.6454,3789.5742" uuid="661e46af028a451e91a13c58568baeba" c_etype="outline3D" layerid="19" transform="scale(1) translate(0, 0)" before-id="gge140" style=""><polyline fill="none" c_shapetype="line" points="4102.7556 3741.5626 4104.8422 3741.5626 4106.5351 3741.5626 4107.3619 3741.6019 4110.2359 3741.8775 4112.7556 3742.2712 4113.9367 3742.5074 4117.5587 3743.4917 4117.9918 3743.6098 4121.102 3744.7515 4123.0705 3745.5783 4124.4878 3746.287 4127.5981 3748.0586 4127.3618 3747.9011 4125.7083 3746.9956 4125.787 3747.0744 4127.7555 3748.1373 4127.3618 3747.9011 4127.5981 3748.0586 4127.8343 3748.1767 4127.7555 3748.1767 4127.8343 3748.1767 4127.5981 3748.0586 4124.4878 3746.3263 4127.3618 3747.9011 4127.7555 3748.1373 4127.8343 3748.1767 4130.8658 3750.2633 4132.2437 3751.3263 4133.7398 3752.6255 4136.0232 3754.7909 4136.0626 3754.8302 4138.3461 3757.4287 4138.976 3758.2554 4139.0154 3758.3342 4139.0941 3758.4129 4139.724 3759.1609 4140.7083 3760.4995 4142.6768 3763.7279 4142.5587 3763.531 4142.6374 3763.6885 4142.6768 3763.7279 4140.7083 3760.4995 4142.6374 3763.6885 4142.5587 3763.531 4140.7083 3760.5783 4140.7476 3760.657 4142.5193 3763.4523 4142.6768 3763.7279 4142.7161 3763.7672 4142.7949 3763.9247 4142.8343 3763.9641 4142.9524 3764.2003 4142.9524 3764.1609 4142.7555 3763.8853 4142.6768 3763.7672 4142.7161 3763.7672 4142.6768 3763.7279 4142.7555 3763.846 4142.9524 3764.1609 4143.1098 3764.5153 4143.2673 3764.7515 4143.1886 3764.6334 4143.228 3764.7121 4143.2673 3764.7515 4143.1098 3764.5153 4143.228 3764.7121 4142.9524 3764.2397 4143.1098 3764.5153 4142.9524 3764.2397 4143.228 3764.7121 4143.1886 3764.6334 4143.1098 3764.5153 4142.9524 3764.2397 4143.0705 3764.4759 4143.1098 3764.594 4143.1492 3764.6334 4143.0705 3764.5153 4143.1098 3764.594 4143.0311 3764.4365 4143.0705 3764.5153 4142.9524 3764.279 4143.0311 3764.4365 4143.0705 3764.4759 4142.9524 3764.2397 4143.1098 3764.5546 4143.228 3764.7121 4143.1098 3764.5153 4142.9524 3764.1609 4142.9524 3764.2003 4143.1886 3764.6334 4143.2673 3764.7515 4143.5823 3765.342 4143.8972 3766.0113 4143.9366 3766.1294 4144.2909 3766.8381 4144.6453 3767.5861 4145.0783 3768.6097 4145.9445 3770.9326 4146.8106 3773.7672 4146.9681 3774.3578 4147.7161 3777.8617 4147.913 3779.0822 4148.1886 3781.405 4148.3461 3784.4759 4148.3461 3784.9483 4148.2279 3788.531 4148.1098 3789.9089 4147.7949 3792.0743 4147.2831 3794.6727 4147.165 3795.2632 4147.1256 3795.4207 4147.0862 3795.5782 4146.102 3799.0034 4145.5902 3800.4601 4144.8421 3802.3498 4143.3854 3805.4601 4143.3067 3805.5782 4143.2673 3805.6963 4142.913 3806.3262 4142.7949 3806.5624 4142.5193 3807.0349 4142.4406 3807.1923 4142.0469 3807.8616 4141.6925 3808.4128 4141.4169 3808.8459 4141.2201 3809.1215 4141.1807 3809.2002 4140.5902 3810.0664 4138.7004 3812.586 4139.6453 3811.2475 4140.4721 3810.1057 4139.5272 3811.4049 4139.6059 3811.3262 4139.6453 3811.2475 4138.7004 3812.586 4138.4248 3812.9404 4138.3461 3813.0191 4137.2437 3814.3183 4135.2358 3816.4049 4135.354 3816.2868 4135.5508 3816.0506 4135.2358 3816.4049 4136.3382 3815.2238 4136.2988 3815.2632 4135.5508 3816.0506 4135.354 3816.2868 4136.102 3815.4207 4135.8264 3815.7356 4137.0469 3814.3971 4136.9681 3814.3971 4135.6295 3815.8931 4135.8264 3815.7356 4136.102 3815.4207 4137.0862 3814.3577 4137.0469 3814.3971 4135.8264 3815.7356 4135.1965 3816.4049 4135.1965 3816.4443 4135.2358 3816.4049 4135.5508 3816.0506 4136.2201 3815.3026 4136.102 3815.4207 4135.354 3816.2868 4135.2358 3816.4049 4135.1965 3816.4443 4135.1571 3816.4837 4133.3855 3818.1372 4132.165 3819.1215 4132.1256 3819.1608 4132.6768 3818.6884 4132.5981 3818.7671 4132.0862 3819.2002 4131.6532 3819.5939 4130.8658 3820.1451 4129.0941 3821.4443 4128.1099 3822.0742 4127.7555 3822.3104 4126.5744 3822.9797 4124.4091 3824.2002 4123.8579 3824.4758 4123.6217 3824.5939 4119.4091 3826.3655 4119.4091 3837.586 4108.7792 3837.586 4106.3383 3837.586 4103.3855 3837.586 4100.7477 3837.586 4089.8816 3837.586 4089.8816 3826.3655 4089.2911 3826.1293 4084.9604 3824.2396 4084.8816 3824.2002 4080.8265 3821.8774 4080.1966 3821.4443 4079.4486 3820.8931 4077.0076 3819.0821 4076.3777 3818.5309 4075.9053 3818.1372 4073.5037 3815.8931 4073.4643 3815.8537 4073.0312 3815.3813 4072.5982 3814.8695 4072.047 3814.3183 4070.3541 3812.3498 4069.2517 3810.775 4068.7005 3810.0664 4067.8738 3808.8459 4067.795 3808.6884 4067.7557 3808.649 4067.9131 3808.8065 4067.6769 3808.4916 4067.8738 3808.7671 4067.8738 3808.7278 4067.6769 3808.4916 4067.9131 3808.8065 4067.9919 3808.964 4068.0706 3809.0427 4067.9525 3808.8853 4067.5982 3808.3341 4067.8738 3808.7278 4067.9525 3808.8853 4067.9919 3808.9246 4067.8738 3808.7671 4068.0706 3809.0427 4067.6376 3808.3341 4067.9525 3808.8853 4067.8738 3808.7278 4067.8738 3808.7671 4067.9919 3808.9246 4068.11 3809.0821 4067.6376 3808.2947 4068.0706 3809.0427 4068.11 3809.0821 4067.9919 3808.9246 4068.1494 3809.1215 4068.11 3809.0821 4068.2281 3809.279 4068.3068 3809.3971 4068.7793 3810.0664 4068.1494 3809.1608 4068.2281 3809.279 4068.11 3809.1215 4068.1494 3809.1608 4067.9919 3808.964 4068.0706 3809.0821 4068.0706 3809.0427 4067.9919 3808.964 4068.1494 3809.1608 4068.0706 3809.0427 4068.0706 3809.0821 4068.11 3809.1215 4067.9525 3808.9246 4067.8738 3808.7671 4067.8738 3808.8459 4067.9919 3808.964 4067.9131 3808.8459 4067.9525 3808.9246 4067.9919 3808.964 4067.8738 3808.8459 4068.7005 3810.0664 4067.795 3808.6884 4067.8738 3808.8459 4067.8738 3808.7671 4067.7557 3808.649 4067.5982 3808.4128 4067.4013 3808.0979 4067.047 3807.5073 4067.2045 3807.7829 4067.047 3807.5073 4067.2832 3807.8616 4067.4013 3808.0191 4067.047 3807.4679 4067.2045 3807.7829 4067.2832 3807.8616 4067.047 3807.5073 4067.4013 3808.0979 4067.2832 3807.8616 4067.2045 3807.7829 4067.4013 3808.0585 4067.2832 3807.8616 4067.4013 3808.0979 4067.4013 3808.0585 4067.2045 3807.7829 4067.047 3807.5073 4066.8108 3807.0742 4066.3777 3806.3262 4065.984 3805.5782 4065.9053 3805.4207 4064.4486 3802.3498 4063.7006 3800.4601 4063.1887 3799.0034 4062.2045 3795.5782 4062.1651 3795.4601 4062.1258 3795.2632 4062.0076 3794.6727 4061.4958 3792.0743 4061.1809 3789.9089 4061.0628 3788.531 4060.9447 3784.9483 4060.9447 3784.4759 4061.1021 3781.405 4061.3777 3779.0822 4061.5746 3777.8617 4062.3226 3774.3578 4062.4801 3773.7672 4063.3462 3770.9326 4064.2124 3768.6097 4064.6454 3767.5861 4064.9998 3766.8775 4065.3147 3766.1688 4065.6691 3765.4601 4065.984 3764.8696 4066.1809 3764.4759 4066.2596 3764.3578 4066.3777 3764.1216 4066.299 3764.279 4066.5352 3763.846 4066.6139 3763.7279 4066.6139 3763.7672 4066.6139 3763.7279 4066.5746 3763.8066 4066.4958 3763.9641 4066.5746 3763.7672 4066.6139 3763.7279 4066.6533 3763.6491 4066.8895 3763.2948 4068.425 3760.7751 4066.6139 3763.7279 4066.8108 3763.4129 4066.6533 3763.6491 4066.6139 3763.7279 4068.425 3760.7751 4068.6218 3760.5389 4069.5667 3759.1609 4070.7872 3757.5861 4072.4013 3755.7751 4073.2281 3754.8302 4072.6769 3755.4602 4073.0706 3755.0271 4073.2281 3754.8302 4072.4013 3755.7751 4070.7872 3757.6255 4070.7478 3757.7043 4072.362 3755.8145 4070.7872 3757.6255 4072.4013 3755.7751 4070.7872 3757.5861 4070.7872 3757.6255 4072.362 3755.8145 4072.6769 3755.4602 4073.2281 3754.8302 4073.2675 3754.7909 4075.5509 3752.6255 4077.047 3751.3263 4078.4249 3750.2633 4081.4564 3748.1767 4080.7084 3748.6885 4081.1415 3748.4129 4081.4564 3748.1767 4080.984 3748.531 4081.1415 3748.4129 4080.7084 3748.6885 4079.8816 3749.3184 4081.4564 3748.1767 4081.1415 3748.4129 4080.984 3748.531 4079.6848 3749.4366 4078.9761 3749.9484 4079.8816 3749.3184 4080.7084 3748.6885 4079.6848 3749.4366 4080.984 3748.531 4078.4249 3750.2633 4078.4643 3750.3027 4079.6848 3749.4366 4080.7084 3748.6885 4081.4564 3748.1767 4081.5352 3748.1373 4081.9289 3747.9011 4084.8029 3746.287 4081.6926 3748.0586 4081.4958 3748.1767 4081.5352 3748.1373 4081.4564 3748.1767 4081.6926 3748.0586 4081.5352 3748.1767 4083.5037 3747.0744 4081.5352 3748.1373 4081.6926 3748.0586 4081.9289 3747.9011 4081.5352 3748.1373 4083.5037 3747.0744 4083.5824 3746.9956 4081.9289 3747.9011 4081.6926 3748.0586 4084.8029 3746.287 4086.2202 3745.5783 4088.1887 3744.7515 4091.2989 3743.6098 4091.732 3743.4917 4095.354 3742.5074 4096.5351 3742.2712 4099.0548 3741.8775 4101.9288 3741.6019 4102.7556 3741.5626 4102.7556 3741.5626"/></g><g c_partid="part_pad" c_etype="pinpart" c_origin="4104.646,3832.882" layerid="11" plated="Y" c_shapetype="group" locked="0" c_rotation="270" c_width="9.8425" c_height="9.8425" c_shape="ELLIPSE" pasteexpansion="0" solderexpansion="0.4" before-id="gge145"><ellipse cx="4104.646" cy="3832.882" rx="5.32125" ry="5.32125" layerid="8" stroke-width="0" c_etype="pad_outer"/><ellipse cx="4104.646" cy="3832.882" rx="5.32125" ry="5.32125" layerid="7" stroke-width="0" c_etype="pad_outer"/><ellipse c_etype="pad_shell" cx="4104.646" cy="3832.882" rx="4.92125" ry="4.92125" layerid="11" stroke-width="0"/><circle c_etype="pad_hole" cx="4104.6454" cy="3832.8814" r="2.9528" layerid="11" stroke-width="0"/></g><g c_partid="part_pad" c_etype="pinpart" c_origin="4104.646,3754.142" layerid="11" plated="Y" c_shapetype="group" locked="0" c_rotation="270" c_width="9.8425" c_height="9.8425" c_shape="ELLIPSE" pasteexpansion="0" solderexpansion="0.4"><ellipse cx="4104.646" cy="3754.142" rx="5.32125" ry="5.32125" layerid="8" stroke-width="0" c_etype="pad_outer"/><ellipse cx="4104.646" cy="3754.142" rx="5.32125" ry="5.32125" layerid="7" stroke-width="0" c_etype="pad_outer"/><ellipse c_etype="pad_shell" cx="4104.646" cy="3754.142" rx="4.92125" ry="4.92125" layerid="11" stroke-width="0"/><circle c_etype="pad_hole" cx="4104.6454" cy="3754.1412" r="2.9528" layerid="11" stroke-width="0"/></g></g><g c_origin="4059.5,3739" c_para="package`NEOPIXEL`" c_partid="part_lib_gge16219c8612358a58" locked="0" c_shapetype="group" c_etype="pinpart" layerid="1" uuid="fa1fad393bd247db8189c8abf83e2b72" utime="1542208124" moved-from="1"><g c_partid="part_pcbtext" c_etype="" c_origin="4078.5,3731" c_rotation="0" c_mirror="0" locked="0" layerid="3" c_shapetype="group" display="none" before-id="gge5" style=""><path c_fontsize="4.5" c_fontfamily="" c_text="NEOPIXEL" d="M 4078.5 3726.46 L 4078.5 3730.75 M 4078.5 3726.46 L 4081.36 3730.75 M 4081.36 3726.46 L 4081.36 3730.75 M 4082.71 3726.46 L 4082.71 3730.75 M 4082.71 3726.46 L 4085.37 3726.46 M 4082.71 3728.5 L 4084.35 3728.5 M 4082.71 3730.75 L 4085.37 3730.75 M 4087.95 3726.46 L 4087.54 3726.66 L 4087.13 3727.07 L 4086.93 3727.48 L 4086.72 3728.1 L 4086.72 3729.12 L 4086.93 3729.73 L 4087.13 3730.14 L 4087.54 3730.55 L 4087.95 3730.75 L 4088.77 3730.75 L 4089.18 3730.55 L 4089.59 3730.14 L 4089.79 3729.73 L 4090 3729.12 L 4090 3728.1 L 4089.79 3727.48 L 4089.59 3727.07 L 4089.18 3726.66 L 4088.77 3726.46 L 4087.95 3726.46 M 4091.35 3726.46 L 4091.35 3730.75 M 4091.35 3726.46 L 4093.19 3726.46 L 4093.8 3726.66 L 4094 3726.87 L 4094.21 3727.28 L 4094.21 3727.89 L 4094 3728.3 L 4093.8 3728.5 L 4093.19 3728.71 L 4091.35 3728.71 M 4095.56 3726.46 L 4095.56 3730.75 M 4096.91 3726.46 L 4099.77 3730.75 M 4099.77 3726.46 L 4096.91 3730.75 M 4101.12 3726.46 L 4101.12 3730.75 M 4101.12 3726.46 L 4103.78 3726.46 M 4101.12 3728.5 L 4102.76 3728.5 M 4101.12 3730.75 L 4103.78 3730.75 M 4105.13 3726.46 L 4105.13 3730.75 M 4105.13 3730.75 L 4107.59 3730.75" fill="none" stroke-width="0.6" c_note="note_name" style=""/></g><g c_partid="part_pcbtext" c_etype="" c_origin="4078.5,3738" c_rotation="0" c_mirror="0" locked="0" layerid="3" c_shapetype="group" before-id="gge7" style=""><path c_fontsize="4.5" c_fontfamily="" c_text="U2" d="M 4078.5 3733.46 L 4078.5 3736.53 L 4078.7 3737.14 L 4079.11 3737.55 L 4079.73 3737.75 L 4080.14 3737.75 L 4080.75 3737.55 L 4081.16 3737.14 L 4081.36 3736.53 L 4081.36 3733.46 M 4082.92 3734.48 L 4082.92 3734.28 L 4083.12 3733.87 L 4083.33 3733.66 L 4083.74 3733.46 L 4084.55 3733.46 L 4084.96 3733.66 L 4085.17 3733.87 L 4085.37 3734.28 L 4085.37 3734.69 L 4085.17 3735.1 L 4084.76 3735.71 L 4082.71 3737.75 L 4085.58 3737.75" fill="none" stroke-width="0.6" c_note="note_pre" style=""/></g><g c_partid="part_pcbtext" c_etype="" c_origin="4067.5,3754.5" c_rotation="0" c_mirror="0" locked="0" layerid="3" c_shapetype="group" before-id="gge9" style=""><path c_fontsize="2.7559" c_fontfamily="" c_text="VIn" d="M 4067.5 3753 L 4068.5 3755.63 M 4069.5 3753 L 4068.5 3755.63 M 4070.33 3753 L 4070.33 3755.63 M 4071.16 3753.87 L 4071.16 3755.63 M 4071.16 3754.37 L 4071.53 3754 L 4071.78 3753.87 L 4072.16 3753.87 L 4072.41 3754 L 4072.54 3754.37 L 4072.54 3755.63" fill="none" stroke-width="0.3937"/></g><g c_partid="part_pcbtext" c_etype="" c_origin="4077.5,3754.5" c_rotation="0" c_mirror="0" locked="0" layerid="3" c_shapetype="group" before-id="gge11" style=""><path c_fontsize="2.7559" c_fontfamily="" c_text="DIn" d="M 4077.5 3753 L 4077.5 3755.63 M 4077.5 3753 L 4078.38 3753 L 4078.75 3753.12 L 4079 3753.37 L 4079.13 3753.62 L 4079.25 3754 L 4079.25 3754.63 L 4079.13 3755 L 4079 3755.25 L 4078.75 3755.5 L 4078.38 3755.63 L 4077.5 3755.63 M 4080.08 3753 L 4080.08 3755.63 M 4080.91 3753.87 L 4080.91 3755.63 M 4080.91 3754.37 L 4081.28 3754 L 4081.53 3753.87 L 4081.91 3753.87 L 4082.16 3754 L 4082.29 3754.37 L 4082.29 3755.63" fill="none" stroke-width="0.3937"/></g><g c_partid="part_pcbtext" c_etype="" c_origin="4087.5,3754.5" c_rotation="0" c_mirror="0" locked="0" layerid="3" c_shapetype="group" before-id="gge13" style=""><path c_fontsize="2.7559" c_fontfamily="" c_text="GIn" d="M 4089.38 3753.62 L 4089.25 3753.37 L 4089 3753.12 L 4088.75 3753 L 4088.25 3753 L 4088 3753.12 L 4087.75 3753.37 L 4087.63 3753.62 L 4087.5 3754 L 4087.5 3754.63 L 4087.63 3755 L 4087.75 3755.25 L 4088 3755.5 L 4088.25 3755.63 L 4088.75 3755.63 L 4089 3755.5 L 4089.25 3755.25 L 4089.38 3755 L 4089.38 3754.63 M 4088.75 3754.63 L 4089.38 3754.63 M 4090.21 3753 L 4090.21 3755.63 M 4091.03 3753.87 L 4091.03 3755.63 M 4091.03 3754.37 L 4091.41 3754 L 4091.66 3753.87 L 4092.03 3753.87 L 4092.29 3754 L 4092.41 3754.37 L 4092.41 3755.63" fill="none" stroke-width="0.3937"/></g><g c_partid="part_pcbtext" c_etype="" c_origin="4061.5,3742" c_rotation="0" c_mirror="0" locked="0" layerid="3" c_shapetype="group" before-id="gge15" style=""><path c_fontsize="2.7559" c_fontfamily="" c_text="NEOPIXEL" d="M 4061.5 3740.5 L 4061.5 3743.13 M 4061.5 3740.5 L 4063.25 3743.13 M 4063.25 3740.5 L 4063.25 3743.13 M 4064.08 3740.5 L 4064.08 3743.13 M 4064.08 3740.5 L 4065.71 3740.5 M 4064.08 3741.75 L 4065.08 3741.75 M 4064.08 3743.13 L 4065.71 3743.13 M 4067.29 3740.5 L 4067.04 3740.62 L 4066.79 3740.87 L 4066.66 3741.12 L 4066.54 3741.5 L 4066.54 3742.13 L 4066.66 3742.5 L 4066.79 3742.75 L 4067.04 3743 L 4067.29 3743.13 L 4067.79 3743.13 L 4068.04 3743 L 4068.29 3742.75 L 4068.41 3742.5 L 4068.54 3742.13 L 4068.54 3741.5 L 4068.41 3741.12 L 4068.29 3740.87 L 4068.04 3740.62 L 4067.79 3740.5 L 4067.29 3740.5 M 4069.37 3740.5 L 4069.37 3743.13 M 4069.37 3740.5 L 4070.49 3740.5 L 4070.87 3740.62 L 4071 3740.75 L 4071.12 3741 L 4071.12 3741.37 L 4071 3741.62 L 4070.87 3741.75 L 4070.49 3741.87 L 4069.37 3741.87 M 4071.95 3740.5 L 4071.95 3743.13 M 4072.77 3740.5 L 4074.53 3743.13 M 4074.53 3740.5 L 4072.77 3743.13 M 4075.35 3740.5 L 4075.35 3743.13 M 4075.35 3740.5 L 4076.98 3740.5 M 4075.35 3741.75 L 4076.36 3741.75 M 4075.35 3743.13 L 4076.98 3743.13 M 4077.81 3740.5 L 4077.81 3743.13 M 4077.81 3743.13 L 4079.31 3743.13" fill="none" stroke-width="0.3937"/></g><g c_partid="part_pcbtext" c_etype="" c_origin="4064.5,3787.5" c_rotation="0" c_mirror="0" locked="0" layerid="3" c_shapetype="group" before-id="gge17" style=""><path c_fontsize="2.7559" c_fontfamily="" c_text="Vout" d="M 4064.5 3786 L 4065.5 3788.63 M 4066.5 3786 L 4065.5 3788.63 M 4067.96 3786.87 L 4067.71 3787 L 4067.46 3787.25 L 4067.33 3787.63 L 4067.33 3787.88 L 4067.46 3788.25 L 4067.71 3788.5 L 4067.96 3788.63 L 4068.33 3788.63 L 4068.58 3788.5 L 4068.83 3788.25 L 4068.96 3787.88 L 4068.96 3787.63 L 4068.83 3787.25 L 4068.58 3787 L 4068.33 3786.87 L 4067.96 3786.87 M 4069.79 3786.87 L 4069.79 3788.13 L 4069.91 3788.5 L 4070.16 3788.63 L 4070.54 3788.63 L 4070.79 3788.5 L 4071.16 3788.13 M 4071.16 3786.87 L 4071.16 3788.63 M 4072.37 3786 L 4072.37 3788.13 L 4072.49 3788.5 L 4072.74 3788.63 L 4072.99 3788.63 M 4071.99 3786.87 L 4072.87 3786.87" fill="none" stroke-width="0.3937"/></g><g c_partid="part_pcbtext" c_etype="" c_origin="4075.5,3787.5" c_rotation="0" c_mirror="0" locked="0" layerid="3" c_shapetype="group" before-id="gge19" style=""><path c_fontsize="2.7559" c_fontfamily="" c_text="Dout" d="M 4075.5 3786 L 4075.5 3788.63 M 4075.5 3786 L 4076.38 3786 L 4076.75 3786.12 L 4077 3786.37 L 4077.13 3786.62 L 4077.25 3787 L 4077.25 3787.63 L 4077.13 3788 L 4077 3788.25 L 4076.75 3788.5 L 4076.38 3788.63 L 4075.5 3788.63 M 4078.71 3786.87 L 4078.46 3787 L 4078.21 3787.25 L 4078.08 3787.63 L 4078.08 3787.88 L 4078.21 3788.25 L 4078.46 3788.5 L 4078.71 3788.63 L 4079.08 3788.63 L 4079.33 3788.5 L 4079.58 3788.25 L 4079.71 3787.88 L 4079.71 3787.63 L 4079.58 3787.25 L 4079.33 3787 L 4079.08 3786.87 L 4078.71 3786.87 M 4080.54 3786.87 L 4080.54 3788.13 L 4080.66 3788.5 L 4080.91 3788.63 L 4081.29 3788.63 L 4081.54 3788.5 L 4081.91 3788.13 M 4081.91 3786.87 L 4081.91 3788.63 M 4083.12 3786 L 4083.12 3788.13 L 4083.24 3788.5 L 4083.49 3788.63 L 4083.74 3788.63 M 4082.74 3786.87 L 4083.62 3786.87" fill="none" stroke-width="0.3937"/></g><g c_partid="part_pcbtext" c_etype="" c_origin="4086.5,3787.5" c_rotation="0" c_mirror="0" locked="0" layerid="3" c_shapetype="group" before-id="gge21" style=""><path c_fontsize="2.7559" c_fontfamily="" c_text="Gout" d="M 4088.38 3786.62 L 4088.25 3786.37 L 4088 3786.12 L 4087.75 3786 L 4087.25 3786 L 4087 3786.12 L 4086.75 3786.37 L 4086.63 3786.62 L 4086.5 3787 L 4086.5 3787.63 L 4086.63 3788 L 4086.75 3788.25 L 4087 3788.5 L 4087.25 3788.63 L 4087.75 3788.63 L 4088 3788.5 L 4088.25 3788.25 L 4088.38 3788 L 4088.38 3787.63 M 4087.75 3787.63 L 4088.38 3787.63 M 4089.83 3786.87 L 4089.58 3787 L 4089.33 3787.25 L 4089.21 3787.63 L 4089.21 3787.88 L 4089.33 3788.25 L 4089.58 3788.5 L 4089.83 3788.63 L 4090.21 3788.63 L 4090.46 3788.5 L 4090.71 3788.25 L 4090.83 3787.88 L 4090.83 3787.63 L 4090.71 3787.25 L 4090.46 3787 L 4090.21 3786.87 L 4089.83 3786.87 M 4091.66 3786.87 L 4091.66 3788.13 L 4091.79 3788.5 L 4092.04 3788.63 L 4092.41 3788.63 L 4092.66 3788.5 L 4093.04 3788.13 M 4093.04 3786.87 L 4093.04 3788.63 M 4094.24 3786 L 4094.24 3788.13 L 4094.37 3788.5 L 4094.62 3788.63 L 4094.87 3788.63 M 4093.87 3786.87 L 4094.74 3786.87" fill="none" stroke-width="0.3937"/></g><circle cx="4079.5" cy="3771" r="10.259" stroke-width="1" fill="none" layerid="3" locked="0" c_shapetype="line" before-id="gge22"/><polyline points="4059.5 3803.9604 4098.8701 3803.9605" stroke-width="1" c_shapetype="line" stroke-linecap="round" fill="none" layerid="3" locked="0" before-id="gge23"/><polyline points="4098.8701 3739 4098.8701 3803.9605" stroke-width="1" c_shapetype="line" stroke-linecap="round" fill="none" layerid="3" locked="0" before-id="gge24"/><polyline points="4059.5 3739 4059.5 3803.9605" stroke-width="1" c_shapetype="line" stroke-linecap="round" fill="none" layerid="3" locked="0" before-id="gge25"/><polyline points="4059.5 3739 4098.8701 3739" stroke-width="1" c_shapetype="line" stroke-linecap="round" fill="none" layerid="3" locked="0" before-id="gge26"/><g c_partid="part_pad" c_etype="pinpart" c_origin="4069.5,3748.5" layerid="11" plated="Y" c_shapetype="group" locked="0" c_rotation="0" c_width="6" c_height="6" c_shape="ELLIPSE" pasteexpansion="0" solderexpansion="0.4" before-id="gge31"><ellipse cx="4069.5" cy="3748.5" rx="3.4" ry="3.4" layerid="8" stroke-width="0" c_etype="pad_outer"/><ellipse cx="4069.5" cy="3748.5" rx="3.4" ry="3.4" layerid="7" stroke-width="0" c_etype="pad_outer"/><ellipse c_etype="pad_shell" cx="4069.5" cy="3748.5" rx="3" ry="3" layerid="11" stroke-width="0"/><circle c_etype="pad_hole" cx="4069.5" cy="3748.5" r="1.8" layerid="11" stroke-width="0"/></g><g c_partid="part_pad" c_etype="pinpart" c_origin="4079.5,3748.5" layerid="11" plated="Y" c_shapetype="group" locked="0" c_rotation="0" c_width="6" c_height="6" c_shape="ELLIPSE" pasteexpansion="0" solderexpansion="0.4" before-id="gge36"><ellipse cx="4079.5" cy="3748.5" rx="3.4" ry="3.4" layerid="8" stroke-width="0" c_etype="pad_outer"/><ellipse cx="4079.5" cy="3748.5" rx="3.4" ry="3.4" layerid="7" stroke-width="0" c_etype="pad_outer"/><ellipse c_etype="pad_shell" cx="4079.5" cy="3748.5" rx="3" ry="3" layerid="11" stroke-width="0"/><circle c_etype="pad_hole" cx="4079.5" cy="3748.5" r="1.8" layerid="11" stroke-width="0"/></g><g c_partid="part_pad" c_etype="pinpart" c_origin="4089.5,3748.5" layerid="11" plated="Y" c_shapetype="group" locked="0" c_rotation="0" c_width="6" c_height="6" c_shape="ELLIPSE" pasteexpansion="0" solderexpansion="0.4" before-id="gge41"><ellipse cx="4089.5" cy="3748.5" rx="3.4" ry="3.4" layerid="8" stroke-width="0" c_etype="pad_outer"/><ellipse cx="4089.5" cy="3748.5" rx="3.4" ry="3.4" layerid="7" stroke-width="0" c_etype="pad_outer"/><ellipse c_etype="pad_shell" cx="4089.5" cy="3748.5" rx="3" ry="3" layerid="11" stroke-width="0"/><circle c_etype="pad_hole" cx="4089.5" cy="3748.5" r="1.8" layerid="11" stroke-width="0"/></g><g c_partid="part_pad" c_etype="pinpart" c_origin="4069.5,3794" layerid="11" plated="Y" c_shapetype="group" locked="0" c_rotation="0" c_width="6" c_height="6" c_shape="ELLIPSE" pasteexpansion="0" solderexpansion="0.4" before-id="gge46"><ellipse cx="4069.5" cy="3794" rx="3.4" ry="3.4" layerid="8" stroke-width="0" c_etype="pad_outer"/><ellipse cx="4069.5" cy="3794" rx="3.4" ry="3.4" layerid="7" stroke-width="0" c_etype="pad_outer"/><ellipse c_etype="pad_shell" cx="4069.5" cy="3794" rx="3" ry="3" layerid="11" stroke-width="0"/><circle c_etype="pad_hole" cx="4069.5" cy="3794" r="1.8" layerid="11" stroke-width="0"/></g><g c_partid="part_pad" c_etype="pinpart" c_origin="4079.5,3794" layerid="11" plated="Y" c_shapetype="group" locked="0" c_rotation="0" c_width="6" c_height="6" c_shape="ELLIPSE" pasteexpansion="0" solderexpansion="0.4" before-id="gge51"><ellipse cx="4079.5" cy="3794" rx="3.4" ry="3.4" layerid="8" stroke-width="0" c_etype="pad_outer"/><ellipse cx="4079.5" cy="3794" rx="3.4" ry="3.4" layerid="7" stroke-width="0" c_etype="pad_outer"/><ellipse c_etype="pad_shell" cx="4079.5" cy="3794" rx="3" ry="3" layerid="11" stroke-width="0"/><circle c_etype="pad_hole" cx="4079.5" cy="3794" r="1.8" layerid="11" stroke-width="0"/></g><g c_partid="part_pad" c_etype="pinpart" c_origin="4089.5,3794" layerid="11" plated="Y" c_shapetype="group" locked="0" c_rotation="0" c_width="6" c_height="6" c_shape="ELLIPSE" pasteexpansion="0" solderexpansion="0.4"><ellipse cx="4089.5" cy="3794" rx="3.4" ry="3.4" layerid="8" stroke-width="0" c_etype="pad_outer"/><ellipse cx="4089.5" cy="3794" rx="3.4" ry="3.4" layerid="7" stroke-width="0" c_etype="pad_outer"/><ellipse c_etype="pad_shell" cx="4089.5" cy="3794" rx="3" ry="3" layerid="11" stroke-width="0"/><circle c_etype="pad_hole" cx="4089.5" cy="3794" r="1.8" layerid="11" stroke-width="0"/></g></g><g c_origin="4133,3819" c_para="package`THERMISTOR`" c_partid="part_lib_gge487bc7b6ed2fdb55" locked="0" c_shapetype="group" c_etype="pinpart" layerid="1" uuid="d4d4a294828c4606bebbe6edd338a43b" utime="1551690469" moved-from="1"><g c_partid="part_pcbtext" c_etype="" c_origin="4133,3798" c_rotation="0" c_mirror="0" locked="0" layerid="3" c_shapetype="group" display="none" before-id="gge60" style=""><path c_fontsize="4.5" c_fontfamily="" c_text="THERMISTOR" d="M 4134.43 3793.46 L 4134.43 3797.75 M 4133 3793.46 L 4135.86 3793.46 M 4137.21 3793.46 L 4137.21 3797.75 M 4140.08 3793.46 L 4140.08 3797.75 M 4137.21 3795.5 L 4140.08 3795.5 M 4141.43 3793.46 L 4141.43 3797.75 M 4141.43 3793.46 L 4144.09 3793.46 M 4141.43 3795.5 L 4143.06 3795.5 M 4141.43 3797.75 L 4144.09 3797.75 M 4145.44 3793.46 L 4145.44 3797.75 M 4145.44 3793.46 L 4147.28 3793.46 L 4147.89 3793.66 L 4148.1 3793.87 L 4148.3 3794.28 L 4148.3 3794.69 L 4148.1 3795.1 L 4147.89 3795.3 L 4147.28 3795.5 L 4145.44 3795.5 M 4146.87 3795.5 L 4148.3 3797.75 M 4149.65 3793.46 L 4149.65 3797.75 M 4149.65 3793.46 L 4151.29 3797.75 M 4152.92 3793.46 L 4151.29 3797.75 M 4152.92 3793.46 L 4152.92 3797.75 M 4154.27 3793.46 L 4154.27 3797.75 M 4158.49 3794.07 L 4158.08 3793.66 L 4157.46 3793.46 L 4156.65 3793.46 L 4156.03 3793.66 L 4155.62 3794.07 L 4155.62 3794.48 L 4155.83 3794.89 L 4156.03 3795.1 L 4156.44 3795.3 L 4157.67 3795.71 L 4158.08 3795.91 L 4158.28 3796.12 L 4158.49 3796.53 L 4158.49 3797.14 L 4158.08 3797.55 L 4157.46 3797.75 L 4156.65 3797.75 L 4156.03 3797.55 L 4155.62 3797.14 M 4161.27 3793.46 L 4161.27 3797.75 M 4159.84 3793.46 L 4162.7 3793.46 M 4165.28 3793.46 L 4164.87 3793.66 L 4164.46 3794.07 L 4164.25 3794.48 L 4164.05 3795.1 L 4164.05 3796.12 L 4164.25 3796.73 L 4164.46 3797.14 L 4164.87 3797.55 L 4165.28 3797.75 L 4166.1 3797.75 L 4166.5 3797.55 L 4166.91 3797.14 L 4167.12 3796.73 L 4167.32 3796.12 L 4167.32 3795.1 L 4167.12 3794.48 L 4166.91 3794.07 L 4166.5 3793.66 L 4166.1 3793.46 L 4165.28 3793.46 M 4168.67 3793.46 L 4168.67 3797.75 M 4168.67 3793.46 L 4170.51 3793.46 L 4171.13 3793.66 L 4171.33 3793.87 L 4171.54 3794.28 L 4171.54 3794.69 L 4171.33 3795.1 L 4171.13 3795.3 L 4170.51 3795.5 L 4168.67 3795.5 M 4170.1 3795.5 L 4171.54 3797.75" fill="none" stroke-width="0.6" c_note="note_name" style=""/></g><g c_partid="part_pcbtext" c_etype="" c_origin="4133,3805" c_rotation="0" c_mirror="0" locked="0" layerid="3" c_shapetype="group" before-id="gge62" style=""><path c_fontsize="4.5" c_fontfamily="" c_text="R1" d="M 4133 3800.46 L 4133 3804.75 M 4133 3800.46 L 4134.84 3800.46 L 4135.45 3800.66 L 4135.66 3800.87 L 4135.86 3801.28 L 4135.86 3801.69 L 4135.66 3802.1 L 4135.45 3802.3 L 4134.84 3802.5 L 4133 3802.5 M 4134.43 3802.5 L 4135.86 3804.75 M 4137.21 3801.28 L 4137.62 3801.07 L 4138.24 3800.46 L 4138.24 3804.75" fill="none" stroke-width="0.6" c_note="note_pre" style=""/></g><polyline points="4116.5 3812.5 4150 3812.5 4150 3825.5 4116.5 3825.5 4116.5 3812.5" stroke-width="1" c_shapetype="line" stroke-linecap="round" fill="none" layerid="3" locked="0" before-id="gge63"/><polyline points="4121 3831 4145.5 3806.5" stroke-width="1" c_shapetype="line" stroke-linecap="round" fill="none" layerid="3" locked="0" before-id="gge64"/><polyline points="4150 3806.5 4145.5 3806.5" stroke-width="1" c_shapetype="line" stroke-linecap="round" fill="none" layerid="3" locked="0" before-id="gge65"/><polyline points="4116.5 3831 4121 3831" stroke-width="1" c_shapetype="line" stroke-linecap="round" fill="none" layerid="3" locked="0" before-id="gge66"/><g c_partid="part_pad" c_etype="pinpart" c_origin="4123,3819" layerid="11" plated="Y" c_shapetype="group" locked="0" c_rotation="0" c_width="7.874" c_height="7.874" c_shape="ELLIPSE" pasteexpansion="0" solderexpansion="0.4" before-id="gge71"><ellipse cx="4123" cy="3819" rx="4.337" ry="4.337" layerid="8" stroke-width="0" c_etype="pad_outer"/><ellipse cx="4123" cy="3819" rx="4.337" ry="4.337" layerid="7" stroke-width="0" c_etype="pad_outer"/><ellipse c_etype="pad_shell" cx="4123" cy="3819" rx="3.937" ry="3.937" layerid="11" stroke-width="0"/><circle c_etype="pad_hole" cx="4123" cy="3819" r="1.8" layerid="11" stroke-width="0"/></g><g c_partid="part_pad" c_etype="pinpart" c_origin="4143.5,3819" layerid="11" plated="Y" c_shapetype="group" locked="0" c_rotation="0" c_width="7.874" c_height="7.874" c_shape="ELLIPSE" pasteexpansion="0" solderexpansion="0.4"><ellipse cx="4143.5" cy="3819" rx="4.337" ry="4.337" layerid="8" stroke-width="0" c_etype="pad_outer"/><ellipse cx="4143.5" cy="3819" rx="4.337" ry="4.337" layerid="7" stroke-width="0" c_etype="pad_outer"/><ellipse c_etype="pad_shell" cx="4143.5" cy="3819" rx="3.937" ry="3.937" layerid="11" stroke-width="0"/><circle c_etype="pad_hole" cx="4143.5" cy="3819" r="1.8" layerid="11" stroke-width="0"/></g></g><g c_origin="4128.5,3768.5" c_para="package`ATTINY85`" c_partid="part_lib_gge97cce1aea3455f08" locked="0" c_shapetype="group" c_etype="pinpart" layerid="1" uuid="a0eff1a9d28d47b7bd163b4af7cbee96" utime="1507573815" moved-from="1"><g c_partid="part_pcbtext" c_etype="" c_origin="4133.5,3736.5" c_rotation="0" c_mirror="0" locked="0" layerid="3" c_shapetype="group" display="none" before-id="gge80" style=""><path c_fontsize="4.5" c_fontfamily="" c_text="ATTINY85 THT" d="M 4135.14 3731.96 L 4133.5 3736.25 M 4135.14 3731.96 L 4136.77 3736.25 M 4134.11 3734.82 L 4136.16 3734.82 M 4139.55 3731.96 L 4139.55 3736.25 M 4138.12 3731.96 L 4140.99 3731.96 M 4143.77 3731.96 L 4143.77 3736.25 M 4142.34 3731.96 L 4145.2 3731.96 M 4146.55 3731.96 L 4146.55 3736.25 M 4147.9 3731.96 L 4147.9 3736.25 M 4147.9 3731.96 L 4150.76 3736.25 M 4150.76 3731.96 L 4150.76 3736.25 M 4152.11 3731.96 L 4153.75 3734 L 4153.75 3736.25 M 4155.39 3731.96 L 4153.75 3734 M 4157.76 3731.96 L 4157.15 3732.16 L 4156.94 3732.57 L 4156.94 3732.98 L 4157.15 3733.39 L 4157.55 3733.6 L 4158.37 3733.8 L 4158.99 3734 L 4159.4 3734.41 L 4159.6 3734.82 L 4159.6 3735.44 L 4159.4 3735.85 L 4159.19 3736.05 L 4158.58 3736.25 L 4157.76 3736.25 L 4157.15 3736.05 L 4156.94 3735.85 L 4156.74 3735.44 L 4156.74 3734.82 L 4156.94 3734.41 L 4157.35 3734 L 4157.96 3733.8 L 4158.78 3733.6 L 4159.19 3733.39 L 4159.4 3732.98 L 4159.4 3732.57 L 4159.19 3732.16 L 4158.58 3731.96 L 4157.76 3731.96 M 4163.4 3731.96 L 4161.36 3731.96 L 4161.15 3733.8 L 4161.36 3733.6 L 4161.97 3733.39 L 4162.59 3733.39 L 4163.2 3733.6 L 4163.61 3734 L 4163.81 3734.62 L 4163.81 3735.03 L 4163.61 3735.64 L 4163.2 3736.05 L 4162.59 3736.25 L 4161.97 3736.25 L 4161.36 3736.05 L 4161.15 3735.85 L 4160.95 3735.44 M 4169.75 3731.96 L 4169.75 3736.25 M 4168.31 3731.96 L 4171.18 3731.96 M 4172.53 3731.96 L 4172.53 3736.25 M 4175.39 3731.96 L 4175.39 3736.25 M 4172.53 3734 L 4175.39 3734 M 4178.17 3731.96 L 4178.17 3736.25 M 4176.74 3731.96 L 4179.6 3731.96" fill="none" stroke-width="0.6" c_note="note_name" style=""/></g><g c_partid="part_pcbtext" c_etype="" c_origin="4133.5,3743.5" c_rotation="0" c_mirror="0" locked="0" layerid="3" c_shapetype="group" before-id="gge82" style=""><path c_fontsize="4.5" c_fontfamily="" c_text="U1" d="M 4133.5 3738.96 L 4133.5 3742.03 L 4133.7 3742.64 L 4134.11 3743.05 L 4134.73 3743.25 L 4135.14 3743.25 L 4135.75 3743.05 L 4136.16 3742.64 L 4136.36 3742.03 L 4136.36 3738.96 M 4137.71 3739.78 L 4138.12 3739.57 L 4138.74 3738.96 L 4138.74 3743.25" fill="none" stroke-width="0.6" c_note="note_pre" style=""/></g><polyline points="4136.5 3747.5 4136.5 3747.5 4143.5 3747.5 4143.5 3779.5 4123.5 3779.5 4123.5 3747.5 4130.5 3747.5 4130.5 3747.5" stroke-width="1" c_shapetype="line" stroke-linecap="round" fill="none" layerid="3" locked="0" before-id="gge83"/><path d="M 4130.5 3747.5 A 3 3 0 1 0 4136.5 3747.5" locked="0" c_shapetype="line" fill="none" stroke-width="1" c_helper_type="arc2" layerid="3" before-id="gge84"/><g c_partid="part_pad" c_etype="pinpart" c_origin="4118.5,3748.5" layerid="11" plated="Y" c_shapetype="group" locked="0" c_rotation="0" c_width="6" c_height="6" c_shape="RECT" pasteexpansion="0" solderexpansion="0.4" before-id="gge89"><polygon points="4115.5 3745.5 4121.5 3745.5 4121.5 3751.5 4115.5 3751.5" layerid="8" stroke-width="0.8" c_etype="pad_outer"/><polygon points="4115.5 3745.5 4121.5 3745.5 4121.5 3751.5 4115.5 3751.5" layerid="7" stroke-width="0.8" c_etype="pad_outer"/><polygon c_etype="pad_shell" points="4115.5 3745.5 4121.5 3745.5 4121.5 3751.5 4115.5 3751.5" layerid="11" stroke-width="0"/><circle c_etype="pad_hole" cx="4118.5" cy="3748.5" r="1.8" layerid="11" stroke-width="0"/></g><g c_partid="part_pad" c_etype="pinpart" c_origin="4118.5,3758.5" layerid="11" plated="Y" c_shapetype="group" locked="0" c_rotation="0" c_width="6" c_height="6" c_shape="ELLIPSE" pasteexpansion="0" solderexpansion="0.4" before-id="gge94"><ellipse cx="4118.5" cy="3758.5" rx="3.4" ry="3.4" layerid="8" stroke-width="0" c_etype="pad_outer"/><ellipse cx="4118.5" cy="3758.5" rx="3.4" ry="3.4" layerid="7" stroke-width="0" c_etype="pad_outer"/><ellipse c_etype="pad_shell" cx="4118.5" cy="3758.5" rx="3" ry="3" layerid="11" stroke-width="0"/><circle c_etype="pad_hole" cx="4118.5" cy="3758.5" r="1.8" layerid="11" stroke-width="0"/></g><g c_partid="part_pad" c_etype="pinpart" c_origin="4118.5,3768.5" layerid="11" plated="Y" c_shapetype="group" locked="0" c_rotation="0" c_width="6" c_height="6" c_shape="ELLIPSE" pasteexpansion="0" solderexpansion="0.4" before-id="gge99"><ellipse cx="4118.5" cy="3768.5" rx="3.4" ry="3.4" layerid="8" stroke-width="0" c_etype="pad_outer"/><ellipse cx="4118.5" cy="3768.5" rx="3.4" ry="3.4" layerid="7" stroke-width="0" c_etype="pad_outer"/><ellipse c_etype="pad_shell" cx="4118.5" cy="3768.5" rx="3" ry="3" layerid="11" stroke-width="0"/><circle c_etype="pad_hole" cx="4118.5" cy="3768.5" r="1.8" layerid="11" stroke-width="0"/></g><g c_partid="part_pad" c_etype="pinpart" c_origin="4118.5,3778.5" layerid="11" plated="Y" c_shapetype="group" locked="0" c_rotation="0" c_width="6" c_height="6" c_shape="ELLIPSE" pasteexpansion="0" solderexpansion="0.4" before-id="gge104"><ellipse cx="4118.5" cy="3778.5" rx="3.4" ry="3.4" layerid="8" stroke-width="0" c_etype="pad_outer"/><ellipse cx="4118.5" cy="3778.5" rx="3.4" ry="3.4" layerid="7" stroke-width="0" c_etype="pad_outer"/><ellipse c_etype="pad_shell" cx="4118.5" cy="3778.5" rx="3" ry="3" layerid="11" stroke-width="0"/><circle c_etype="pad_hole" cx="4118.5" cy="3778.5" r="1.8" layerid="11" stroke-width="0"/></g><g c_partid="part_pad" c_etype="pinpart" c_origin="4148.5,3778.5" layerid="11" plated="Y" c_shapetype="group" locked="0" c_rotation="0" c_width="6" c_height="6" c_shape="ELLIPSE" pasteexpansion="0" solderexpansion="0.4" before-id="gge109"><ellipse cx="4148.5" cy="3778.5" rx="3.4" ry="3.4" layerid="8" stroke-width="0" c_etype="pad_outer"/><ellipse cx="4148.5" cy="3778.5" rx="3.4" ry="3.4" layerid="7" stroke-width="0" c_etype="pad_outer"/><ellipse c_etype="pad_shell" cx="4148.5" cy="3778.5" rx="3" ry="3" layerid="11" stroke-width="0"/><circle c_etype="pad_hole" cx="4148.5" cy="3778.5" r="1.8" layerid="11" stroke-width="0"/></g><g c_partid="part_pad" c_etype="pinpart" c_origin="4148.5,3768.5" layerid="11" plated="Y" c_shapetype="group" locked="0" c_rotation="0" c_width="6" c_height="6" c_shape="ELLIPSE" pasteexpansion="0" solderexpansion="0.4" before-id="gge114"><ellipse cx="4148.5" cy="3768.5" rx="3.4" ry="3.4" layerid="8" stroke-width="0" c_etype="pad_outer"/><ellipse cx="4148.5" cy="3768.5" rx="3.4" ry="3.4" layerid="7" stroke-width="0" c_etype="pad_outer"/><ellipse c_etype="pad_shell" cx="4148.5" cy="3768.5" rx="3" ry="3" layerid="11" stroke-width="0"/><circle c_etype="pad_hole" cx="4148.5" cy="3768.5" r="1.8" layerid="11" stroke-width="0"/></g><g c_partid="part_pad" c_etype="pinpart" c_origin="4148.5,3758.5" layerid="11" plated="Y" c_shapetype="group" locked="0" c_rotation="0" c_width="6" c_height="6" c_shape="ELLIPSE" pasteexpansion="0" solderexpansion="0.4" before-id="gge119"><ellipse cx="4148.5" cy="3758.5" rx="3.4" ry="3.4" layerid="8" stroke-width="0" c_etype="pad_outer"/><ellipse cx="4148.5" cy="3758.5" rx="3.4" ry="3.4" layerid="7" stroke-width="0" c_etype="pad_outer"/><ellipse c_etype="pad_shell" cx="4148.5" cy="3758.5" rx="3" ry="3" layerid="11" stroke-width="0"/><circle c_etype="pad_hole" cx="4148.5" cy="3758.5" r="1.8" layerid="11" stroke-width="0"/></g><g c_partid="part_pad" c_etype="pinpart" c_origin="4148.5,3748.5" layerid="11" plated="Y" c_shapetype="group" locked="0" c_rotation="0" c_width="6" c_height="6" c_shape="ELLIPSE" pasteexpansion="0" solderexpansion="0.4"><ellipse cx="4148.5" cy="3748.5" rx="3.4" ry="3.4" layerid="8" stroke-width="0" c_etype="pad_outer"/><ellipse cx="4148.5" cy="3748.5" rx="3.4" ry="3.4" layerid="7" stroke-width="0" c_etype="pad_outer"/><ellipse c_etype="pad_shell" cx="4148.5" cy="3748.5" rx="3" ry="3" layerid="11" stroke-width="0"/><circle c_etype="pad_hole" cx="4148.5" cy="3748.5" r="1.8" layerid="11" stroke-width="0"/></g></g></g></g></svg>