<?xml version="1.0" encoding="utf-8" standalone="no"?><svg xmlns="http://www.w3.org/2000/svg" xmlns:xlink="http://www.w3.org/1999/xlink" width="35.306mm" height="35.179mm" viewBox="4037.5 3718 139 138.5"><title>Toad</title><style type="text/css">
path, polyline, polygon {stroke-linejoin:round;}
path, polyline, polygon, line {stroke-linecap:round;}
rect, circle, ellipse, polyline, polygon, line, path {shape-rendering:crispEdges;}
*[layerid="0"] {stroke:#FFFFFF; FILL:#FFFFFF;}*[layerid="1"] {stroke:#FF0000; fill:#FF0000;}*[layerid="2"] {stroke:#0000FF; fill:#0000FF;}*[layerid="3"] {stroke:#FFCC00; fill:#FFCC00;}*[layerid="4"] {stroke:#66CC33; fill:#66CC33;}*[layerid="5"] {stroke:#808080; fill:#808080;}*[layerid="6"] {stroke:#800000; fill:#800000;}*[layerid="7"] {stroke:#800080; fill:#800080;}*[layerid="8"] {stroke:#AA00FF; fill:#AA00FF;}*[layerid="9"] {display:none}*[layerid="10"] {stroke:#FF00FF; fill:#FF00FF;}*[layerid="11"] {stroke:#C0C0C0; fill:#C0C0C0;}*[layerid="12"] {stroke:#FFFFFF; fill:#FFFFFF;}*[layerid="13"] {stroke:#33CC99; fill:#33CC99;}*[layerid="14"] {stroke:#5555FF; fill:#5555FF;}*[layerid="15"] {stroke:#F022F0; fill:#F022F0;}*[layerid="16"] {stroke:#FFFFFF; FILL:#FFFFFF;}*[layerid="17"] {stroke:#FFFFFF; FILL:#FFFFFF;}*[layerid="18"] {stroke:#FFFFFF; FILL:#FFFFFF;}*[layerid="19"] {stroke:#66CCFF; fill:#66CCFF;}*[layerid="20"] {stroke:#FFFFFF; FILL:#FFFFFF;}*[layerid="21"] {stroke:#999966; fill:#999966;}*[layerid="22"] {stroke:#008000; fill:#008000;}*[layerid="23"] {stroke:#00FF00; fill:#00FF00;}*[layerid="24"] {stroke:#BC8E00; fill:#BC8E00;}*[fill="none"] {fill: none;}
*[stroke="none"] {stroke: none;}
g[c_partid="part_pad"] > * + circle {fill: #222222;}
g[c_partid="part_via"] > * + circle {fill: #222222;}
g[c_partid="part_pad"] > polyline:nth-of-type(2) {stroke: #222222;}g[c_partid="part_pad"][c_shape="ELLIPSE"]  polyline:nth-last-of-type(1) {stroke:#222222;}g[c_partid="part_pad"][c_shape="RECT"]  polyline:nth-last-of-type(1) {stroke:#222222;}g[c_partid="part_pad"][c_shape="POLYGON"]  polyline:nth-last-of-type(1) {stroke:#222222;}g[c_partid="part_pad"] > polygon[c_etype="pad_outer"], #gCurParts g[c_partid="part_pad"] > polygon[c_etype="pad_outer"] {stroke-linejoin: miter;stroke-miterlimit: 100;}</style>
<rect x="4037.5" y="3718" width="139" height="138.5" fill="#000000" stroke="none"/><g importFlag="0"><g><polyline points="4048 3728 4166.1102 3728 4166.1102 3846.1102 4048 3846.1102 4048 3728" stroke-width="1" c_shapetype="line" stroke-linecap="round" fill="none" layerid="10" locked="0"/></g><g><path d="M 4049.41 3845.1002 L 4049.25693 3845.06975 4049.12716 3844.98304 4049.04045 3844.85327 4049.01 3844.7002 4049.01 3729.41 4049.04045 3729.25693 4049.12716 3729.12716 4049.25693 3729.04045 4049.41 3729.01 4164.7002 3729.01 4164.85327 3729.04045 4164.98304 3729.12716 4165.06975 3729.25693 4165.1002 3729.41 4165.1002 3844.7002 4165.06975 3844.85327 4164.98304 3844.98304 4164.85327 3845.06975 4164.7002 3845.1002 4049.41 3845.1002 Z M 4056.33442 3827.50711 L 4056.99625 3827.48887 4057.65206 3827.39793 4058.29389 3827.23539 4058.91395 3827.00324 4059.5047 3826.70429 4060.05897 3826.34216 4060.57005 3825.92125 4061.03172 3825.44668 4061.43838 3824.9242 4061.7851 3824.36015 4062.06767 3823.76139 4062.28265 3823.13518 4062.42743 3822.48911 4062.50027 3821.83104 4062.50027 3821.16896 4062.42743 3820.51089 4062.28265 3819.86482 4062.06767 3819.23861 4061.81241 3818.69771 4061.77436 3818.53986 4061.80219 3818.37988 4061.89131 3818.24415 4063.05384 3817.08163 4063.25391 3816.83784 4063.39327 3816.57711 4063.47909 3816.29421 4063.51 3815.98035 4063.51 3802.51 4063.54045 3802.35693 4063.62716 3802.22716 4063.75693 3802.14045 4063.91 3802.11 4065.07754 3802.11 4065.32418 3802.08221 4065.53712 3802.0077 4065.72815 3801.88767 4065.88767 3801.72815 4066.0077 3801.53712 4066.08221 3801.32418 4066.11 3801.07754 4066.11 3799.91 4066.14045 3799.75693 4066.22716 3799.62716 4066.35693 3799.54045 4066.51 3799.51 4082.98035 3799.51 4083.29421 3799.47909 4083.57711 3799.39327 4083.83784 3799.25391 4084.08163 3799.05384 4115.76254 3767.37292 4115.88106 3767.29108 4116.02089 3767.25652 4116.16389 3767.27373 4116.57061 3767.39989 4117.09871 3767.48897 4117.63396 3767.50687 4118.16683 3767.45326 4118.6878 3767.32911 4119.18757 3767.13662 4119.65723 3766.87924 4120.08839 3766.56156 4120.47336 3766.18925 4120.80527 3765.76894 4121.0782 3765.30815 4121.28728 3764.81509 4121.42877 3764.29856 4121.50015 3763.76778 4121.50015 3763.23222 4121.42877 3762.70144 4121.28728 3762.18491 4121.0782 3761.69185 4120.80527 3761.23106 4120.47336 3760.81075 4120.08839 3760.43844 4119.65723 3760.12076 4119.18757 3759.86338 4118.6878 3759.67089 4118.16683 3759.54674 4117.63396 3759.49313 4117.09871 3759.51103 4116.57061 3759.60011 4116.0591 3759.75878 4115.5733 3759.98422 4115.12188 3760.27239 4114.7129 3760.61816 4114.35366 3761.01536 4114.05056 3761.45689 4113.80902 3761.93489 4113.63334 3762.44081 4113.52667 3762.96564 4113.4909 3763.5 4113.52667 3764.03436 4113.63334 3764.55919 4113.72432 3764.82119 4113.74615 3764.96799 4113.71295 3765.11265 4113.62929 3765.23524 4082.49169 3796.37284 4082.36193 3796.45955 4082.20885 3796.49 4066.51 3796.49 4066.35693 3796.45955 4066.22716 3796.37284 4066.14045 3796.24307 4066.11 3796.09 4066.11 3794.92246 4066.08221 3794.67582 4066.0077 3794.46288 4065.88767 3794.27185 4065.72815 3794.11233 4065.53712 3793.9923 4065.32418 3793.91779 4065.07754 3793.89 4058.92246 3793.89 4058.67582 3793.91779 4058.46288 3793.9923 4058.27185 3794.11233 4058.11233 3794.27185 4057.9923 3794.46288 4057.91779 3794.67582 4057.89 3794.92246 4057.89 3801.07754 4057.91779 3801.32418 4057.9923 3801.53712 4058.11233 3801.72815 4058.27185 3801.88767 4058.46288 3802.0077 4058.67582 3802.08221 4058.92246 3802.11 4060.09 3802.11 4060.24307 3802.14045 4060.37284 3802.22716 4060.45955 3802.35693 4060.49 3802.51 4060.49 3815.20885 4060.45955 3815.36193 4060.37284 3815.49169 4059.75218 3816.11236 4059.61303 3816.20282 4059.44913 3816.22901 4059.28872 3816.18642 4058.91395 3815.99676 4058.29389 3815.76461 4057.65206 3815.60207 4056.99625 3815.51113 4056.33442 3815.49289 4055.67459 3815.54756 4055.02478 3815.67449 4054.39288 3815.87214 4053.78656 3816.13809 4053.21317 3816.46914 4052.67969 3816.86125 4052.19257 3817.30967 4051.75775 3817.80896 4051.38048 3818.35304 4051.06536 3818.93533 4050.81621 3819.54875 4050.63606 3820.18586 4050.52708 3820.83892 4050.49061 3821.5 4050.52708 3822.16108 4050.63606 3822.81414 4050.81621 3823.45125 4051.06536 3824.06467 4051.38048 3824.64696 4051.75775 3825.19104 4052.19257 3825.69033 4052.67969 3826.13875 4053.21317 3826.53086 4053.78656 3826.86191 4054.39288 3827.12786 4055.02478 3827.32551 4055.67459 3827.45244 4056.33442 3827.50711 Z M 4155.67459 3827.45244 L 4156.33442 3827.50711 4156.99625 3827.48887 4157.65206 3827.39793 4158.29389 3827.23539 4158.91395 3827.00324 4159.5047 3826.70429 4160.05897 3826.34216 4160.57005 3825.92125 4161.03172 3825.44668 4161.43838 3824.9242 4161.7851 3824.36015 4162.06767 3823.76139 4162.28265 3823.13518 4162.42743 3822.48911 4162.50027 3821.83104 4162.50027 3821.16896 4162.42743 3820.51089 4162.28265 3819.86482 4162.06767 3819.23861 4161.7851 3818.63985 4161.43838 3818.0758 4161.03172 3817.55332 4160.57005 3817.07875 4160.05897 3816.65784 4159.5047 3816.29571 4158.91395 3815.99676 4158.29389 3815.76461 4157.65206 3815.60207 4156.99625 3815.51113 4156.33442 3815.49289 4155.67459 3815.54756 4155.02478 3815.67449 4154.39288 3815.87214 4153.78656 3816.13809 4153.72714 3816.1724 4153.562 3816.22447 4153.39033 3816.20187 4153.2443 3816.10883 4146.58163 3809.44616 4146.33784 3809.24609 4146.07711 3809.10673 4145.79421 3809.02091 4145.48035 3808.99 4105.79115 3808.99 4105.63807 3808.95955 4105.50831 3808.87284 4098.12716 3801.49169 4098.04045 3801.36193 4098.01 3801.20885 4098.01 3791.29115 4098.04045 3791.13807 4098.12716 3791.00831 4113.52378 3775.61169 4113.67068 3775.51833 4113.84333 3775.49622 4114.00903 3775.54952 4114.1364 3775.66815 4114.35366 3775.98464 4114.7129 3776.38184 4115.12188 3776.72761 4115.5733 3777.01578 4116.0591 3777.24122 4116.57061 3777.39989 4117.09871 3777.48897 4117.63396 3777.50687 4118.16683 3777.45326 4118.6878 3777.32911 4119.18757 3777.13662 4119.65723 3776.87924 4120.08839 3776.56156 4120.47336 3776.18925 4120.80527 3775.76894 4121.0782 3775.30815 4121.28728 3774.81509 4121.42877 3774.29856 4121.50015 3773.76778 4121.50015 3773.23222 4121.42877 3772.70144 4121.28728 3772.18491 4121.0782 3771.69185 4120.80527 3771.23106 4120.47336 3770.81075 4120.08839 3770.43844 4119.65723 3770.12076 4119.18757 3769.86338 4118.6878 3769.67089 4118.16683 3769.54674 4117.63396 3769.49313 4117.09871 3769.51103 4116.57061 3769.60011 4116.0591 3769.75878 4115.5733 3769.98422 4115.12188 3770.27239 4114.7129 3770.61816 4114.35366 3771.01536 4114.05056 3771.45689 4113.89214 3771.7704 4113.8122 3771.8785 4113.70096 3771.95401 4113.57099 3771.98839 4113.20417 3772.02141 4112.92289 3772.10673 4112.66216 3772.24609 4112.41837 3772.44616 4095.44616 3789.41837 4095.24609 3789.66216 4095.10673 3789.92289 4095.02091 3790.20579 4094.99 3790.51965 4094.99 3801.98035 4095.02091 3802.29421 4095.10673 3802.57711 4095.24609 3802.83784 4095.44616 3803.08163 4103.91837 3811.55384 4104.16216 3811.75391 4104.42289 3811.89327 4104.70579 3811.97909 4105.01965 3812.01 4144.70885 3812.01 4144.86193 3812.04045 4144.99169 3812.12716 4151.11238 3818.24784 4151.20414 3818.39043 4151.22858 3818.55822 4151.18132 3818.72106 4151.06536 3818.93533 4150.81621 3819.54875 4150.63606 3820.18586 4150.52708 3820.83892 4150.49061 3821.5 4150.52708 3822.16108 4150.63606 3822.81414 4150.81621 3823.45125 4151.06536 3824.06467 4151.38048 3824.64696 4151.75775 3825.19104 4152.19257 3825.69033 4152.67969 3826.13875 4153.21317 3826.53086 4153.78656 3826.86191 4154.39288 3827.12786 4155.02478 3827.32551 4155.67459 3827.45244 Z M 4147.63396 3787.50687 L 4148.16683 3787.45326 4148.6878 3787.32911 4149.18757 3787.13662 4149.65723 3786.87924 4150.08839 3786.56156 4150.47336 3786.18925 4150.80527 3785.76894 4151.0782 3785.30815 4151.26166 3784.87551 4151.30963 3784.79204 4151.37616 3784.72246 4151.58163 3784.55384 4157.55384 3778.58163 4157.75391 3778.33784 4157.89327 3778.07711 4157.97909 3777.79421 4158.01 3777.48035 4158.01 3758.01965 4157.97909 3757.70579 4157.89327 3757.42289 4157.75391 3757.16216 4157.55384 3756.91837 4153.08163 3752.44616 4152.83784 3752.24609 4152.57711 3752.10673 4152.29421 3752.02091 4151.98035 3751.99 4118.01965 3751.99 4117.70579 3752.02091 4117.42289 3752.10673 4117.16216 3752.24609 4116.91837 3752.44616 4095.99336 3773.37118 4095.8632 3773.45805 4095.70968 3773.48833 4082.0634 3773.4596 4081.90872 3773.42813 4081.77825 3773.33927 4081.69233 3773.20685 4081.61923 3773.02224 4081.34381 3772.52124 4081.00777 3772.05872 4080.61641 3771.64196 4080.1759 3771.27754 4079.69319 3770.97121 4079.17589 3770.72778 4078.63216 3770.55112 4078.07058 3770.44399 4077.5 3770.40809 4076.92942 3770.44399 4076.36784 3770.55112 4075.82411 3770.72778 4075.30681 3770.97121 4074.8241 3771.27754 4074.38359 3771.64196 4073.99223 3772.05872 4073.65619 3772.52124 4073.38077 3773.02224 4073.17031 3773.5538 4073.02813 3774.10754 4072.95647 3774.67475 4072.95647 3775.24645 4073.02813 3775.81366 4073.17031 3776.3674 4073.38077 3776.89896 4073.65619 3777.39996 4073.99223 3777.86248 4074.38359 3778.27924 4074.8241 3778.64366 4075.30681 3778.94999 4075.82411 3779.19342 4076.36784 3779.37008 4076.92942 3779.47721 4077.5 3779.51311 4078.07058 3779.47721 4078.63216 3779.37008 4079.17589 3779.19342 4079.69319 3778.94999 4080.1759 3778.64366 4080.61641 3778.27924 4081.00777 3777.86248 4081.34381 3777.39996 4081.61923 3776.89896 4081.6852 3776.73235 4081.77152 3776.59953 4081.90262 3776.51064 4082.05795 3776.4796 4096.47717 3776.50996 4096.79109 3776.4797 4097.07418 3776.39448 4097.33501 3776.25577 4097.58178 3776.05369 4118.50831 3755.12716 4118.63807 3755.04045 4118.79115 3755.01 4151.20885 3755.01 4151.36193 3755.04045 4151.49169 3755.12716 4154.87284 3758.50831 4154.95955 3758.63807 4154.99 3758.79115 4154.99 3776.70885 4154.95955 3776.86193 4154.87284 3776.99169 4151.04658 3780.81796 4150.91835 3780.90403 4150.76708 3780.9351 4150.61531 3780.90656 4150.48566 3780.82265 4150.08839 3780.43844 4149.65723 3780.12076 4149.18757 3779.86338 4148.6878 3779.67089 4148.16683 3779.54674 4147.63396 3779.49313 4147.09871 3779.51103 4146.57061 3779.60011 4146.0591 3779.75878 4145.5733 3779.98422 4145.12188 3780.27239 4144.7129 3780.61816 4144.35366 3781.01536 4144.05056 3781.45689 4143.80902 3781.93489 4143.63334 3782.44081 4143.52667 3782.96564 4143.4909 3783.5 4143.52667 3784.03436 4143.63334 3784.55919 4143.80902 3785.06511 4144.05056 3785.54311 4144.35366 3785.98464 4144.7129 3786.38184 4145.12188 3786.72761 4145.5733 3787.01578 4146.0591 3787.24122 4146.57061 3787.39989 4147.09871 3787.48897 4147.63396 3787.50687 Z M 4107.4997 3834.80022 L 4108.16372 3834.76293 4108.81939 3834.65153 4109.45846 3834.46741 4110.0729 3834.2129 4110.65498 3833.8912 4111.19738 3833.50635 4111.69328 3833.06318 4112.13645 3832.56728 4112.5213 3832.02488 4112.843 3831.4428 4113.09751 3830.82836 4113.28163 3830.18929 4113.39303 3829.53362 4113.43032 3828.8696 4113.39303 3828.20558 4113.28163 3827.54991 4113.09751 3826.91084 4112.843 3826.2964 4112.5213 3825.71432 4112.13645 3825.17192 4111.69328 3824.67602 4111.19738 3824.23285 4110.65498 3823.848 4110.0729 3823.5263 4109.45846 3823.27179 4108.81939 3823.08767 4108.16372 3822.97627 4107.4997 3822.93898 4106.83568 3822.97627 4106.18001 3823.08767 4105.54094 3823.27179 4104.9265 3823.5263 4104.34442 3823.848 4103.80202 3824.23285 4103.30612 3824.67602 4102.86295 3825.17192 4102.4781 3825.71432 4102.1564 3826.2964 4101.90189 3826.91084 4101.71777 3827.54991 4101.60637 3828.20558 4101.56908 3828.8696 4101.60637 3829.53362 4101.71777 3830.18929 4101.90189 3830.82836 4102.1564 3831.4428 4102.4781 3832.02488 4102.86295 3832.56728 4103.30612 3833.06318 4103.80202 3833.50635 4104.34442 3833.8912 4104.9265 3834.2129 4105.54094 3834.46741 4106.18001 3834.65153 4106.83568 3834.76293 4107.4997 3834.80022 Z M 4150.47754 3797.51 L 4150.72418 3797.48221 4150.93712 3797.4077 4151.12815 3797.28767 4151.28767 3797.12815 4151.4077 3796.93712 4151.48221 3796.72418 4151.51 3796.47754 4151.51 3790.52246 4151.48221 3790.27582 4151.4077 3790.06288 4151.28767 3789.87185 4151.12815 3789.71233 4150.93712 3789.5923 4150.72418 3789.51779 4150.47754 3789.49 4144.52246 3789.49 4144.27582 3789.51779 4144.06288 3789.5923 4143.87185 3789.71233 4143.71233 3789.87185 4143.5923 3790.06288 4143.51779 3790.27582 4143.49 3790.52246 4143.49 3796.47754 4143.51779 3796.72418 4143.5923 3796.93712 4143.71233 3797.12815 4143.87185 3797.28767 4144.06288 3797.4077 4144.27582 3797.48221 4144.52246 3797.51 4150.47754 3797.51 Z M 4117.63396 3797.50687 L 4118.16683 3797.45326 4118.6878 3797.32911 4119.18757 3797.13662 4119.65723 3796.87924 4120.08839 3796.56156 4120.47336 3796.18925 4120.80527 3795.76894 4121.0782 3795.30815 4121.28728 3794.81509 4121.42877 3794.29856 4121.50015 3793.76778 4121.50015 3793.23222 4121.42877 3792.70144 4121.28728 3792.18491 4121.0782 3791.69185 4120.80527 3791.23106 4120.47336 3790.81075 4120.08839 3790.43844 4119.65723 3790.12076 4119.18757 3789.86338 4118.6878 3789.67089 4118.16683 3789.54674 4117.63396 3789.49313 4117.09871 3789.51103 4116.57061 3789.60011 4116.0591 3789.75878 4115.5733 3789.98422 4115.12188 3790.27239 4114.7129 3790.61816 4114.35366 3791.01536 4114.05056 3791.45689 4113.80902 3791.93489 4113.63334 3792.44081 4113.52667 3792.96564 4113.4909 3793.5 4113.52667 3794.03436 4113.63334 3794.55919 4113.80902 3795.06511 4114.05056 3795.54311 4114.35366 3795.98464 4114.7129 3796.38184 4115.12188 3796.72761 4115.5733 3797.01578 4116.0591 3797.24122 4116.57061 3797.39989 4117.09871 3797.48897 4117.63396 3797.50687 Z M 4147.09871 3777.48897 L 4147.63396 3777.50687 4148.16683 3777.45326 4148.6878 3777.32911 4149.18757 3777.13662 4149.65723 3776.87924 4150.08839 3776.56156 4150.47336 3776.18925 4150.80527 3775.76894 4151.0782 3775.30815 4151.28728 3774.81509 4151.42877 3774.29856 4151.50015 3773.76778 4151.50015 3773.23222 4151.42877 3772.70144 4151.28728 3772.18491 4151.0782 3771.69185 4150.80527 3771.23106 4150.47336 3770.81075 4150.08839 3770.43844 4149.65723 3770.12076 4149.18757 3769.86338 4148.6878 3769.67089 4148.16683 3769.54674 4147.63396 3769.49313 4147.09871 3769.51103 4146.57061 3769.60011 4146.0591 3769.75878 4145.5733 3769.98422 4145.12188 3770.27239 4144.7129 3770.61816 4144.35366 3771.01536 4144.05056 3771.45689 4143.80902 3771.93489 4143.63334 3772.44081 4143.52667 3772.96564 4143.4909 3773.5 4143.52667 3774.03436 4143.63334 3774.55919 4143.80902 3775.06511 4144.05056 3775.54311 4144.35366 3775.98464 4144.7129 3776.38184 4145.12188 3776.72761 4145.5733 3777.01578 4146.0591 3777.24122 4146.57061 3777.39989 4147.09871 3777.48897 Z M 4117.63396 3787.50687 L 4118.16683 3787.45326 4118.6878 3787.32911 4119.18757 3787.13662 4119.65723 3786.87924 4120.08839 3786.56156 4120.47336 3786.18925 4120.80527 3785.76894 4121.0782 3785.30815 4121.28728 3784.81509 4121.42877 3784.29856 4121.50015 3783.76778 4121.50015 3783.23222 4121.42877 3782.70144 4121.28728 3782.18491 4121.0782 3781.69185 4120.80527 3781.23106 4120.47336 3780.81075 4120.08839 3780.43844 4119.65723 3780.12076 4119.18757 3779.86338 4118.6878 3779.67089 4118.16683 3779.54674 4117.63396 3779.49313 4117.09871 3779.51103 4116.57061 3779.60011 4116.0591 3779.75878 4115.5733 3779.98422 4115.12188 3780.27239 4114.7129 3780.61816 4114.35366 3781.01536 4114.05056 3781.45689 4113.80902 3781.93489 4113.63334 3782.44081 4113.52667 3782.96564 4113.4909 3783.5 4113.52667 3784.03436 4113.63334 3784.55919 4113.80902 3785.06511 4114.05056 3785.54311 4114.35366 3785.98464 4114.7129 3786.38184 4115.12188 3786.72761 4115.5733 3787.01578 4116.0591 3787.24122 4116.57061 3787.39989 4117.09871 3787.48897 4117.63396 3787.50687 Z M 4104.78908 3747.41877 L 4104.78908 3744.86205 4104.34442 3745.1078 4103.80202 3745.49265 4103.30612 3745.93582 4102.86295 3746.43172 4102.4781 3746.97412 4102.23235 3747.41877 4104.78908 3747.41877 Z M 4110.21033 3752.84002 L 4110.21033 3755.39675 4110.65498 3755.151 4111.19738 3754.76615 4111.69328 3754.32298 4112.13645 3753.82708 4112.5213 3753.28468 4112.76705 3752.84002 4110.21033 3752.84002 Z M 4112.76705 3747.41877 L 4112.5213 3746.97412 4112.13645 3746.43172 4111.69328 3745.93582 4111.19738 3745.49265 4110.65498 3745.1078 4110.21033 3744.86205 4110.21033 3747.41877 4112.76705 3747.41877 Z M 4104.34442 3755.151 L 4104.78908 3755.39675 4104.78908 3752.84002 4102.23235 3752.84002 4102.4781 3753.28468 4102.86295 3753.82708 4103.30612 3754.32298 4103.80202 3754.76615 4104.34442 3755.151 Z M 4075.47835 3749.10951 L 4075.47835 3747.06105 4073.42655 3747.06105 4073.65619 3747.47876 4073.99223 3747.94128 4074.38359 3748.35804 4074.8241 3748.72246 4075.30681 3749.02879 4075.47835 3749.10951 Z M 4079.52165 3747.06105 L 4079.52165 3749.10951 4079.69319 3749.02879 4080.1759 3748.72246 4080.61641 3748.35804 4081.00777 3747.94128 4081.34381 3747.47876 4081.57345 3747.06105 4079.52165 3747.06105 Z M 4075.47835 3743.01775 L 4075.47835 3740.96929 4075.30681 3741.05001 4074.8241 3741.35634 4074.38359 3741.72076 4073.99223 3742.13752 4073.65619 3742.60004 4073.42655 3743.01775 4075.47835 3743.01775 Z M 4079.52165 3740.96929 L 4079.52165 3743.01775 4081.57345 3743.01775 4081.34381 3742.60004 4081.00777 3742.13752 4080.61641 3741.72076 4080.1759 3741.35634 4079.69319 3741.05001 4079.52165 3740.96929 Z M 4149.25 3759.89759 L 4149.25 3761.75 4151.10286 3761.75 4151.0782 3761.69185 4150.80527 3761.23106 4150.47336 3760.81075 4150.08839 3760.43844 4149.65723 3760.12076 4149.25 3759.89759 Z M 4149.25 3767.10241 L 4149.65723 3766.87924 4150.08839 3766.56156 4150.47336 3766.18925 4150.80527 3765.76894 4151.0782 3765.30815 4151.10286 3765.25 4149.25 3765.25 4149.25 3767.10241 Z M 4145.75 3761.75 L 4145.75 3759.90222 4145.5733 3759.98422 4145.12188 3760.27239 4144.7129 3760.61816 4144.35366 3761.01536 4144.05056 3761.45689 4143.90245 3761.75 4145.75 3761.75 Z M 4145.75 3767.09778 L 4145.75 3765.25 4143.90245 3765.25 4144.05056 3765.54311 4144.35366 3765.98464 4144.7129 3766.38184 4145.12188 3766.72761 4145.5733 3767.01578 4145.75 3767.09778 Z " stroke-width="0" stroke="#FF0000" fill="#FF0000" layerid="1" attachedcopperid="gge146" c_shapetype="line"/><polyline points="4147.5 3783.5 4150.5 3783.5 4156.5 3777.5 4156.5 3758 4152 3753.5 4118 3753.5 4096.5 3775 4077.5 3774.96" stroke-width="1" c_shapetype="line" stroke-linecap="round" fill="none" layerid="1" locked="0"/><polyline points="4056.5 3821.5 4062 3816 4062 3798" stroke-width="1" c_shapetype="line" stroke-linecap="round" fill="none" layerid="1" locked="0"/><polyline points="4062 3798 4083 3798 4117.5 3763.5" stroke-width="1" c_shapetype="line" stroke-linecap="round" fill="none" layerid="1" locked="0"/><polyline points="4117.5 3773.5 4113.5 3773.5 4096.5 3790.5 4096.5 3802 4105 3810.5 4145.5 3810.5 4156.5 3821.5" stroke-width="1" c_shapetype="line" stroke-linecap="round" fill="none" layerid="1" locked="0"/><path d="M 4049 3728 L 4166 3728 L 4166.5 3728.5 L 4166.5 3845 L 4165.5 3846 L 4047.5 3846 L4047.5,3728.5 L4048,3728 Z" stroke-width="1" clearance_width="1" grid_clearance="1" grid_track_width="1" fill_style="solid" fill="none" thermal="spoke" keep_island="none" stroke-dasharray="3,3" layerid="1" copper="1" c_shapetype="line" locked="0" name="gge146" order="1" to_board_outline="1" fabrication_improve="yes" spoke_width="0"/></g><g before-id="layer_10"><path d="M 4049.41 3845.1002 L 4049.25693 3845.06975 4049.12716 3844.98304 4049.04045 3844.85327 4049.01 3844.7002 4049.01 3729.41 4049.04045 3729.25693 4049.12716 3729.12716 4049.25693 3729.04045 4049.41 3729.01 4164.7002 3729.01 4164.85327 3729.04045 4164.98304 3729.12716 4165.06975 3729.25693 4165.1002 3729.41 4165.1002 3844.7002 4165.06975 3844.85327 4164.98304 3844.98304 4164.85327 3845.06975 4164.7002 3845.1002 4049.41 3845.1002 Z M 4155.67459 3827.45244 L 4156.33442 3827.50711 4156.99625 3827.48887 4157.65206 3827.39793 4158.29389 3827.23539 4158.91395 3827.00324 4159.5047 3826.70429 4160.05897 3826.34216 4160.57005 3825.92125 4161.03172 3825.44668 4161.43838 3824.9242 4161.7851 3824.36015 4162.06767 3823.76139 4162.28265 3823.13518 4162.42743 3822.48911 4162.50027 3821.83104 4162.50027 3821.16896 4162.42743 3820.51089 4162.28265 3819.86482 4162.06767 3819.23861 4161.7851 3818.63985 4161.43838 3818.0758 4161.03172 3817.55332 4160.57005 3817.07875 4160.05897 3816.65784 4159.5047 3816.29571 4158.91395 3815.99676 4158.29389 3815.76461 4157.65206 3815.60207 4156.99625 3815.51113 4156.33442 3815.49289 4155.67459 3815.54756 4155.02478 3815.67449 4154.39288 3815.87214 4153.78656 3816.13809 4153.21317 3816.46914 4152.67969 3816.86125 4152.19257 3817.30967 4151.75775 3817.80896 4151.38048 3818.35304 4151.06536 3818.93533 4150.81621 3819.54875 4150.63606 3820.18586 4150.52708 3820.83892 4150.49061 3821.5 4150.52708 3822.16108 4150.63606 3822.81414 4150.81621 3823.45125 4151.06536 3824.06467 4151.38048 3824.64696 4151.75775 3825.19104 4152.19257 3825.69033 4152.67969 3826.13875 4153.21317 3826.53086 4153.78656 3826.86191 4154.39288 3827.12786 4155.02478 3827.32551 4155.67459 3827.45244 Z M 4056.33442 3827.50711 L 4056.99625 3827.48887 4057.65206 3827.39793 4058.29389 3827.23539 4058.91395 3827.00324 4059.5047 3826.70429 4060.05897 3826.34216 4060.57005 3825.92125 4061.03172 3825.44668 4061.43838 3824.9242 4061.7851 3824.36015 4062.06767 3823.76139 4062.28265 3823.13518 4062.42743 3822.48911 4062.50027 3821.83104 4062.50027 3821.16896 4062.42743 3820.51089 4062.28265 3819.86482 4062.06767 3819.23861 4061.7851 3818.63985 4061.43838 3818.0758 4061.03172 3817.55332 4060.57005 3817.07875 4060.05897 3816.65784 4059.5047 3816.29571 4058.91395 3815.99676 4058.29389 3815.76461 4057.65206 3815.60207 4056.99625 3815.51113 4056.33442 3815.49289 4055.67459 3815.54756 4055.02478 3815.67449 4054.39288 3815.87214 4053.78656 3816.13809 4053.21317 3816.46914 4052.67969 3816.86125 4052.19257 3817.30967 4051.75775 3817.80896 4051.38048 3818.35304 4051.06536 3818.93533 4050.81621 3819.54875 4050.63606 3820.18586 4050.52708 3820.83892 4050.49061 3821.5 4050.52708 3822.16108 4050.63606 3822.81414 4050.81621 3823.45125 4051.06536 3824.06467 4051.38048 3824.64696 4051.75775 3825.19104 4052.19257 3825.69033 4052.67969 3826.13875 4053.21317 3826.53086 4053.78656 3826.86191 4054.39288 3827.12786 4055.02478 3827.32551 4055.67459 3827.45244 4056.33442 3827.50711 Z M 4107.4997 3756.06002 L 4108.16372 3756.02273 4108.81939 3755.91133 4109.45846 3755.72721 4110.0729 3755.4727 4110.65498 3755.151 4111.19738 3754.76615 4111.69328 3754.32298 4112.13645 3753.82708 4112.5213 3753.28468 4112.843 3752.7026 4113.09751 3752.08816 4113.28163 3751.44909 4113.39303 3750.79342 4113.43032 3750.1294 4113.39303 3749.46538 4113.28163 3748.80971 4113.09751 3748.17064 4112.843 3747.5562 4112.5213 3746.97412 4112.13645 3746.43172 4111.69328 3745.93582 4111.19738 3745.49265 4110.65498 3745.1078 4110.0729 3744.7861 4109.45846 3744.53159 4108.81939 3744.34747 4108.16372 3744.23607 4107.4997 3744.19878 4106.83568 3744.23607 4106.18001 3744.34747 4105.54094 3744.53159 4104.9265 3744.7861 4104.34442 3745.1078 4103.80202 3745.49265 4103.30612 3745.93582 4102.86295 3746.43172 4102.4781 3746.97412 4102.1564 3747.5562 4101.90189 3748.17064 4101.71777 3748.80971 4101.60637 3749.46538 4101.56908 3750.1294 4101.60637 3750.79342 4101.71777 3751.44909 4101.90189 3752.08816 4102.1564 3752.7026 4102.4781 3753.28468 4102.86295 3753.82708 4103.30612 3754.32298 4103.80202 3754.76615 4104.34442 3755.151 4104.9265 3755.4727 4105.54094 3755.72721 4106.18001 3755.91133 4106.83568 3756.02273 4107.4997 3756.06002 Z M 4077.5 3749.59191 L 4078.07058 3749.55601 4078.63216 3749.44888 4079.17589 3749.27222 4079.69319 3749.02879 4080.1759 3748.72246 4080.61641 3748.35804 4081.00777 3747.94128 4081.34381 3747.47876 4081.61923 3746.97776 4081.82969 3746.4462 4081.97187 3745.89246 4082.04353 3745.32525 4082.04353 3744.75355 4081.97187 3744.18634 4081.82969 3743.6326 4081.61923 3743.10104 4081.34381 3742.60004 4081.00777 3742.13752 4080.61641 3741.72076 4080.1759 3741.35634 4079.69319 3741.05001 4079.17589 3740.80658 4078.63216 3740.62992 4078.07058 3740.52279 4077.5 3740.48689 4076.92942 3740.52279 4076.36784 3740.62992 4075.82411 3740.80658 4075.30681 3741.05001 4074.8241 3741.35634 4074.38359 3741.72076 4073.99223 3742.13752 4073.65619 3742.60004 4073.38077 3743.10104 4073.17031 3743.6326 4073.02813 3744.18634 4072.95647 3744.75355 4072.95647 3745.32525 4073.02813 3745.89246 4073.17031 3746.4462 4073.38077 3746.97776 4073.65619 3747.47876 4073.99223 3747.94128 4074.38359 3748.35804 4074.8241 3748.72246 4075.30681 3749.02879 4075.82411 3749.27222 4076.36784 3749.44888 4076.92942 3749.55601 4077.5 3749.59191 Z M 4077.5 3779.51311 L 4078.07058 3779.47721 4078.63216 3779.37008 4079.17589 3779.19342 4079.69319 3778.94999 4080.1759 3778.64366 4080.61641 3778.27924 4081.00777 3777.86248 4081.34381 3777.39996 4081.61923 3776.89896 4081.82969 3776.3674 4081.97187 3775.81366 4082.04353 3775.24645 4082.04353 3774.67475 4081.97187 3774.10754 4081.82969 3773.5538 4081.61923 3773.02224 4081.34381 3772.52124 4081.00777 3772.05872 4080.61641 3771.64196 4080.1759 3771.27754 4079.69319 3770.97121 4079.17589 3770.72778 4078.63216 3770.55112 4078.07058 3770.44399 4077.5 3770.40809 4076.92942 3770.44399 4076.36784 3770.55112 4075.82411 3770.72778 4075.30681 3770.97121 4074.8241 3771.27754 4074.38359 3771.64196 4073.99223 3772.05872 4073.65619 3772.52124 4073.38077 3773.02224 4073.17031 3773.5538 4073.02813 3774.10754 4072.95647 3774.67475 4072.95647 3775.24645 4073.02813 3775.81366 4073.17031 3776.3674 4073.38077 3776.89896 4073.65619 3777.39996 4073.99223 3777.86248 4074.38359 3778.27924 4074.8241 3778.64366 4075.30681 3778.94999 4075.82411 3779.19342 4076.36784 3779.37008 4076.92942 3779.47721 4077.5 3779.51311 Z M 4058.67582 3802.08221 L 4058.92246 3802.11 4065.07754 3802.11 4065.32418 3802.08221 4065.53712 3802.0077 4065.72815 3801.88767 4065.88767 3801.72815 4066.0077 3801.53712 4066.08221 3801.32418 4066.11 3801.07754 4066.11 3794.92246 4066.08221 3794.67582 4066.0077 3794.46288 4065.88767 3794.27185 4065.72815 3794.11233 4065.53712 3793.9923 4065.32418 3793.91779 4065.07754 3793.89 4058.92246 3793.89 4058.67582 3793.91779 4058.46288 3793.9923 4058.27185 3794.11233 4058.11233 3794.27185 4057.9923 3794.46288 4057.91779 3794.67582 4057.89 3794.92246 4057.89 3801.07754 4057.91779 3801.32418 4057.9923 3801.53712 4058.11233 3801.72815 4058.27185 3801.88767 4058.46288 3802.0077 4058.67582 3802.08221 Z M 4150.47754 3797.51 L 4150.72418 3797.48221 4150.93712 3797.4077 4151.12815 3797.28767 4151.28767 3797.12815 4151.4077 3796.93712 4151.48221 3796.72418 4151.51 3796.47754 4151.51 3790.52246 4151.48221 3790.27582 4151.4077 3790.06288 4151.28767 3789.87185 4151.12815 3789.71233 4150.93712 3789.5923 4150.72418 3789.51779 4150.47754 3789.49 4144.52246 3789.49 4144.27582 3789.51779 4144.06288 3789.5923 4143.87185 3789.71233 4143.71233 3789.87185 4143.5923 3790.06288 4143.51779 3790.27582 4143.49 3790.52246 4143.49 3796.47754 4143.51779 3796.72418 4143.5923 3796.93712 4143.71233 3797.12815 4143.87185 3797.28767 4144.06288 3797.4077 4144.27582 3797.48221 4144.52246 3797.51 4150.47754 3797.51 Z M 4147.63396 3767.50687 L 4148.16683 3767.45326 4148.6878 3767.32911 4149.18757 3767.13662 4149.65723 3766.87924 4150.08839 3766.56156 4150.47336 3766.18925 4150.80527 3765.76894 4151.0782 3765.30815 4151.28728 3764.81509 4151.42877 3764.29856 4151.50015 3763.76778 4151.50015 3763.23222 4151.42877 3762.70144 4151.28728 3762.18491 4151.0782 3761.69185 4150.80527 3761.23106 4150.47336 3760.81075 4150.08839 3760.43844 4149.65723 3760.12076 4149.18757 3759.86338 4148.6878 3759.67089 4148.16683 3759.54674 4147.63396 3759.49313 4147.09871 3759.51103 4146.57061 3759.60011 4146.0591 3759.75878 4145.5733 3759.98422 4145.12188 3760.27239 4144.7129 3760.61816 4144.35366 3761.01536 4144.05056 3761.45689 4143.80902 3761.93489 4143.63334 3762.44081 4143.52667 3762.96564 4143.4909 3763.5 4143.52667 3764.03436 4143.63334 3764.55919 4143.80902 3765.06511 4144.05056 3765.54311 4144.35366 3765.98464 4144.7129 3766.38184 4145.12188 3766.72761 4145.5733 3767.01578 4146.0591 3767.24122 4146.57061 3767.39989 4147.09871 3767.48897 4147.63396 3767.50687 Z M 4147.63396 3787.50687 L 4148.16683 3787.45326 4148.6878 3787.32911 4149.18757 3787.13662 4149.65723 3786.87924 4150.08839 3786.56156 4150.47336 3786.18925 4150.80527 3785.76894 4151.0782 3785.30815 4151.28728 3784.81509 4151.42877 3784.29856 4151.50015 3783.76778 4151.50015 3783.23222 4151.42877 3782.70144 4151.28728 3782.18491 4151.0782 3781.69185 4150.80527 3781.23106 4150.47336 3780.81075 4150.08839 3780.43844 4149.65723 3780.12076 4149.18757 3779.86338 4148.6878 3779.67089 4148.16683 3779.54674 4147.63396 3779.49313 4147.09871 3779.51103 4146.57061 3779.60011 4146.0591 3779.75878 4145.5733 3779.98422 4145.12188 3780.27239 4144.7129 3780.61816 4144.35366 3781.01536 4144.05056 3781.45689 4143.80902 3781.93489 4143.63334 3782.44081 4143.52667 3782.96564 4143.4909 3783.5 4143.52667 3784.03436 4143.63334 3784.55919 4143.80902 3785.06511 4144.05056 3785.54311 4144.35366 3785.98464 4144.7129 3786.38184 4145.12188 3786.72761 4145.5733 3787.01578 4146.0591 3787.24122 4146.57061 3787.39989 4147.09871 3787.48897 4147.63396 3787.50687 Z M 4117.63396 3787.50687 L 4118.16683 3787.45326 4118.6878 3787.32911 4119.18757 3787.13662 4119.65723 3786.87924 4120.08839 3786.56156 4120.47336 3786.18925 4120.80527 3785.76894 4121.0782 3785.30815 4121.28728 3784.81509 4121.42877 3784.29856 4121.50015 3783.76778 4121.50015 3783.23222 4121.42877 3782.70144 4121.28728 3782.18491 4121.0782 3781.69185 4120.80527 3781.23106 4120.47336 3780.81075 4120.08839 3780.43844 4119.65723 3780.12076 4119.18757 3779.86338 4118.6878 3779.67089 4118.16683 3779.54674 4117.63396 3779.49313 4117.09871 3779.51103 4116.57061 3779.60011 4116.0591 3779.75878 4115.5733 3779.98422 4115.12188 3780.27239 4114.7129 3780.61816 4114.35366 3781.01536 4114.05056 3781.45689 4113.80902 3781.93489 4113.63334 3782.44081 4113.52667 3782.96564 4113.4909 3783.5 4113.52667 3784.03436 4113.63334 3784.55919 4113.80902 3785.06511 4114.05056 3785.54311 4114.35366 3785.98464 4114.7129 3786.38184 4115.12188 3786.72761 4115.5733 3787.01578 4116.0591 3787.24122 4116.57061 3787.39989 4117.09871 3787.48897 4117.63396 3787.50687 Z M 4117.63396 3767.50687 L 4118.16683 3767.45326 4118.6878 3767.32911 4119.18757 3767.13662 4119.65723 3766.87924 4120.08839 3766.56156 4120.47336 3766.18925 4120.80527 3765.76894 4121.0782 3765.30815 4121.28728 3764.81509 4121.42877 3764.29856 4121.50015 3763.76778 4121.50015 3763.23222 4121.42877 3762.70144 4121.28728 3762.18491 4121.0782 3761.69185 4120.80527 3761.23106 4120.47336 3760.81075 4120.08839 3760.43844 4119.65723 3760.12076 4119.18757 3759.86338 4118.6878 3759.67089 4118.16683 3759.54674 4117.63396 3759.49313 4117.09871 3759.51103 4116.57061 3759.60011 4116.0591 3759.75878 4115.5733 3759.98422 4115.12188 3760.27239 4114.7129 3760.61816 4114.35366 3761.01536 4114.05056 3761.45689 4113.80902 3761.93489 4113.63334 3762.44081 4113.52667 3762.96564 4113.4909 3763.5 4113.52667 3764.03436 4113.63334 3764.55919 4113.80902 3765.06511 4114.05056 3765.54311 4114.35366 3765.98464 4114.7129 3766.38184 4115.12188 3766.72761 4115.5733 3767.01578 4116.0591 3767.24122 4116.57061 3767.39989 4117.09871 3767.48897 4117.63396 3767.50687 Z M 4147.63396 3777.50687 L 4148.16683 3777.45326 4148.6878 3777.32911 4149.18757 3777.13662 4149.65723 3776.87924 4150.08839 3776.56156 4150.47336 3776.18925 4150.80527 3775.76894 4151.0782 3775.30815 4151.28728 3774.81509 4151.42877 3774.29856 4151.50015 3773.76778 4151.50015 3773.23222 4151.42877 3772.70144 4151.28728 3772.18491 4151.0782 3771.69185 4150.80527 3771.23106 4150.47336 3770.81075 4150.08839 3770.43844 4149.65723 3770.12076 4149.18757 3769.86338 4148.6878 3769.67089 4148.16683 3769.54674 4147.63396 3769.49313 4147.09871 3769.51103 4146.57061 3769.60011 4146.0591 3769.75878 4145.5733 3769.98422 4145.12188 3770.27239 4144.7129 3770.61816 4144.35366 3771.01536 4144.05056 3771.45689 4143.80902 3771.93489 4143.63334 3772.44081 4143.52667 3772.96564 4143.4909 3773.5 4143.52667 3774.03436 4143.63334 3774.55919 4143.80902 3775.06511 4144.05056 3775.54311 4144.35366 3775.98464 4144.7129 3776.38184 4145.12188 3776.72761 4145.5733 3777.01578 4146.0591 3777.24122 4146.57061 3777.39989 4147.09871 3777.48897 4147.63396 3777.50687 Z M 4117.09871 3777.48897 L 4117.63396 3777.50687 4118.16683 3777.45326 4118.6878 3777.32911 4119.18757 3777.13662 4119.65723 3776.87924 4120.08839 3776.56156 4120.47336 3776.18925 4120.80527 3775.76894 4121.0782 3775.30815 4121.28728 3774.81509 4121.42877 3774.29856 4121.50015 3773.76778 4121.50015 3773.23222 4121.42877 3772.70144 4121.28728 3772.18491 4121.0782 3771.69185 4120.80527 3771.23106 4120.47336 3770.81075 4120.08839 3770.43844 4119.65723 3770.12076 4119.18757 3769.86338 4118.6878 3769.67089 4118.16683 3769.54674 4117.63396 3769.49313 4117.09871 3769.51103 4116.57061 3769.60011 4116.0591 3769.75878 4115.5733 3769.98422 4115.12188 3770.27239 4114.7129 3770.61816 4114.35366 3771.01536 4114.05056 3771.45689 4113.80902 3771.93489 4113.63334 3772.44081 4113.52667 3772.96564 4113.4909 3773.5 4113.52667 3774.03436 4113.63334 3774.55919 4113.80902 3775.06511 4114.05056 3775.54311 4114.35366 3775.98464 4114.7129 3776.38184 4115.12188 3776.72761 4115.5733 3777.01578 4116.0591 3777.24122 4116.57061 3777.39989 4117.09871 3777.48897 Z M 4110.21033 3831.58023 L 4110.21033 3834.13695 4110.65498 3833.8912 4111.19738 3833.50635 4111.69328 3833.06318 4112.13645 3832.56728 4112.5213 3832.02488 4112.76705 3831.58023 4110.21033 3831.58023 Z M 4104.78908 3826.15897 L 4104.78908 3823.60225 4104.34442 3823.848 4103.80202 3824.23285 4103.30612 3824.67602 4102.86295 3825.17192 4102.4781 3825.71432 4102.23235 3826.15897 4104.78908 3826.15897 Z M 4110.21033 3823.60225 L 4110.21033 3826.15897 4112.76705 3826.15897 4112.5213 3825.71432 4112.13645 3825.17192 4111.69328 3824.67602 4111.19738 3824.23285 4110.65498 3823.848 4110.21033 3823.60225 Z M 4104.78908 3834.13695 L 4104.78908 3831.58023 4102.23235 3831.58023 4102.4781 3832.02488 4102.86295 3832.56728 4103.30612 3833.06318 4103.80202 3833.50635 4104.34442 3833.8912 4104.78908 3834.13695 Z M 4121.10286 3791.75 L 4121.0782 3791.69185 4120.80527 3791.23106 4120.47336 3790.81075 4120.08839 3790.43844 4119.65723 3790.12076 4119.25 3789.89759 4119.25 3791.75 4121.10286 3791.75 Z M 4119.25 3795.25 L 4119.25 3797.10241 4119.65723 3796.87924 4120.08839 3796.56156 4120.47336 3796.18925 4120.80527 3795.76894 4121.0782 3795.30815 4121.10286 3795.25 4119.25 3795.25 Z M 4115.75 3791.75 L 4115.75 3789.90222 4115.5733 3789.98422 4115.12188 3790.27239 4114.7129 3790.61816 4114.35366 3791.01536 4114.05056 3791.45689 4113.90245 3791.75 4115.75 3791.75 Z M 4115.75 3797.09778 L 4115.75 3795.25 4113.90245 3795.25 4114.05056 3795.54311 4114.35366 3795.98464 4114.7129 3796.38184 4115.12188 3796.72761 4115.5733 3797.01578 4115.75 3797.09778 Z " stroke-width="0" stroke="#FF0000" fill="#FF0000" layerid="2" attachedcopperid="gge148" c_shapetype="line"/><path d="M 4047.5 3728.5 L 4048 3728 L 4048 3728.5 L 4165.5 3728.5 L 4165.5 3845.5 L 4166 3846 L 4048.5 3846 L 4048 3846.5 L 4048 3728.5 L 4047.5 3728.5  Z" stroke-width="1" clearance_width="1" grid_clearance="1" grid_track_width="1" fill_style="solid" fill="none" thermal="spoke" keep_island="none" stroke-dasharray="3,3" layerid="2" copper="2" c_shapetype="line" locked="0" name="gge148" order="2" to_board_outline="1" fabrication_improve="yes" spoke_width="0"/><g c_origin="4107.5,3789.5" c_para="package`BAT-TH_BS-2-1`" c_partid="part_lib_gge057b3ef4f7902166" locked="0" c_shapetype="group" c_etype="pinpart" layerid="2" uuid="25a043cd6bfe4528a121551d6550b565" utime="1585829145"><g c_partid="part_pcbtext" c_etype="" c_origin="4107.952,3733.524" c_rotation="0" c_mirror="1" locked="0" layerid="4" c_shapetype="group" display="none" before-id="gge111" style=""><path c_fontsize="4.5" c_fontfamily="" c_text="CR2032-BS-2-1" d="M 4104.882 3730.004 L 4105.092 3729.594 L 4105.502 3729.184 L 4105.902 3728.984 L 4106.722 3728.984 L 4107.132 3729.184 L 4107.542 3729.594 L 4107.752 3730.004 L 4107.952 3730.624 L 4107.952 3731.644 L 4107.752 3732.254 L 4107.542 3732.664 L 4107.132 3733.074 L 4106.722 3733.274 L 4105.902 3733.274 L 4105.502 3733.074 L 4105.092 3732.664 L 4104.882 3732.254 M 4103.532 3728.984 L 4103.532 3733.274 M 4103.532 3728.984 L 4101.692 3728.984 L 4101.082 3729.184 L 4100.872 3729.394 L 4100.672 3729.804 L 4100.672 3730.214 L 4100.872 3730.624 L 4101.082 3730.824 L 4101.692 3731.024 L 4103.532 3731.024 M 4102.102 3731.024 L 4100.672 3733.274 M 4099.112 3730.004 L 4099.112 3729.804 L 4098.912 3729.394 L 4098.702 3729.184 L 4098.302 3728.984 L 4097.482 3728.984 L 4097.072 3729.184 L 4096.862 3729.394 L 4096.662 3729.804 L 4096.662 3730.214 L 4096.862 3730.624 L 4097.272 3731.234 L 4099.322 3733.274 L 4096.452 3733.274 M 4093.882 3728.984 L 4094.492 3729.184 L 4094.902 3729.804 L 4095.102 3730.824 L 4095.102 3731.434 L 4094.902 3732.464 L 4094.492 3733.074 L 4093.882 3733.274 L 4093.472 3733.274 L 4092.852 3733.074 L 4092.452 3732.464 L 4092.242 3731.434 L 4092.242 3730.824 L 4092.452 3729.804 L 4092.852 3729.184 L 4093.472 3728.984 L 4093.882 3728.984 M 4090.482 3728.984 L 4088.232 3728.984 L 4089.462 3730.624 L 4088.852 3730.624 L 4088.442 3730.824 L 4088.232 3731.024 L 4088.032 3731.644 L 4088.032 3732.054 L 4088.232 3732.664 L 4088.642 3733.074 L 4089.252 3733.274 L 4089.872 3733.274 L 4090.482 3733.074 L 4090.692 3732.874 L 4090.892 3732.464 M 4086.472 3730.004 L 4086.472 3729.804 L 4086.272 3729.394 L 4086.062 3729.184 L 4085.652 3728.984 L 4084.842 3728.984 L 4084.432 3729.184 L 4084.222 3729.394 L 4084.022 3729.804 L 4084.022 3730.214 L 4084.222 3730.624 L 4084.632 3731.234 L 4086.682 3733.274 L 4083.812 3733.274 M 4082.462 3731.434 L 4078.782 3731.434 M 4077.432 3728.984 L 4077.432 3733.274 M 4077.432 3728.984 L 4075.592 3728.984 L 4074.982 3729.184 L 4074.772 3729.394 L 4074.572 3729.804 L 4074.572 3730.214 L 4074.772 3730.624 L 4074.982 3730.824 L 4075.592 3731.024 M 4077.432 3731.024 L 4075.592 3731.024 L 4074.982 3731.234 L 4074.772 3731.434 L 4074.572 3731.844 L 4074.572 3732.464 L 4074.772 3732.874 L 4074.982 3733.074 L 4075.592 3733.274 L 4077.432 3733.274 M 4070.352 3729.594 L 4070.762 3729.184 L 4071.382 3728.984 L 4072.202 3728.984 L 4072.812 3729.184 L 4073.222 3729.594 L 4073.222 3730.004 L 4073.012 3730.414 L 4072.812 3730.624 L 4072.402 3730.824 L 4071.172 3731.234 L 4070.762 3731.434 L 4070.562 3731.644 L 4070.352 3732.054 L 4070.352 3732.664 L 4070.762 3733.074 L 4071.382 3733.274 L 4072.202 3733.274 L 4072.812 3733.074 L 4073.222 3732.664 M 4069.002 3731.434 L 4065.322 3731.434 M 4063.772 3730.004 L 4063.772 3729.804 L 4063.562 3729.394 L 4063.362 3729.184 L 4062.952 3728.984 L 4062.132 3728.984 L 4061.722 3729.184 L 4061.522 3729.394 L 4061.312 3729.804 L 4061.312 3730.214 L 4061.522 3730.624 L 4061.932 3731.234 L 4063.972 3733.274 L 4061.112 3733.274 M 4059.762 3731.434 L 4056.082 3731.434 M 4054.732 3729.804 L 4054.322 3729.594 L 4053.702 3728.984 L 4053.702 3733.274" fill="none" stroke-width="0.6" c_note="note_name" style=""/></g><g c_partid="part_pcbtext" c_etype="" c_origin="4107.952,3740.524" c_rotation="0" c_mirror="1" locked="0" layerid="4" c_shapetype="group" before-id="gge113" style=""><path c_fontsize="4.5" c_fontfamily="" c_text="B1" d="M 4107.952 3735.984 L 4107.952 3740.274 M 4107.952 3735.984 L 4106.112 3735.984 L 4105.502 3736.184 L 4105.292 3736.394 L 4105.092 3736.804 L 4105.092 3737.214 L 4105.292 3737.624 L 4105.502 3737.824 L 4106.112 3738.024 M 4107.952 3738.024 L 4106.112 3738.024 L 4105.502 3738.234 L 4105.292 3738.434 L 4105.092 3738.844 L 4105.092 3739.464 L 4105.292 3739.874 L 4105.502 3740.074 L 4106.112 3740.274 L 4107.952 3740.274 M 4103.742 3736.804 L 4103.332 3736.594 L 4102.712 3735.984 L 4102.712 3740.274" fill="none" stroke-width="0.6" c_note="note_pre" style=""/></g><polyline points="4092.3422 3836.3499 4092.3422 3824.9326" stroke-width="1" c_shapetype="line" stroke-linecap="round" fill="none" layerid="4" locked="0" before-id="gge114"/><polyline points="4122.6572 3836.3499 4122.6572 3825.3263" stroke-width="1" c_shapetype="line" stroke-linecap="round" fill="none" layerid="4" locked="0" before-id="gge115"/><polyline points="4122.6572 3836.3499 4092.3422 3836.3499" stroke-width="1" c_shapetype="line" stroke-linecap="round" fill="none" layerid="4" locked="0" before-id="gge116"/><polyline points="4107.4997 3821.6649 4107.4997 3811.6649" stroke-width="1" c_shapetype="line" stroke-linecap="round" fill="none" layerid="4" locked="0" before-id="gge117"/><polyline points="4107.106 3770.2081 4107.106 3760.2081" stroke-width="1" c_shapetype="line" stroke-linecap="round" fill="none" layerid="4" locked="0" before-id="gge118"/><polyline points="4102.106 3816.6649 4112.106 3816.6649" stroke-width="1" c_shapetype="line" stroke-linecap="round" fill="none" layerid="4" locked="0" before-id="gge119"/><path d="M 4092.3422 3824.9326 A 43.5039 43.5039 0 1 1 4122.6177 3824.962" locked="0" c_shapetype="line" fill="none" stroke-width="1" c_helper_type="arc2" layerid="4" before-id="gge120"/><path d="M 4090.9643 3819.0271 A 38.5959 38.5959 0 1 1 4091.312 3819.1901" locked="0" c_shapetype="line" fill="none" stroke-width="1" c_helper_type="arc2" layerid="4" before-id="gge121"/><g c_width="96.022618978" c_height="87.39978583" c_rotation="0,0,90" z="-11.811" c_origin="4107.4996,3785.5625" uuid="661e46af028a451e91a13c58568baeba" c_etype="outline3D" layerid="19" transform="scale(1) translate(0, 0)" before-id="gge123" style=""><polyline fill="none" c_shapetype="line" points="4105.6099 3737.5508 4107.6965 3737.5508 4109.3894 3737.5508 4110.2162 3737.5901 4113.0902 3737.8657 4115.6099 3738.2594 4116.791 3738.4956 4120.413 3739.4799 4120.8461 3739.598 4123.9563 3740.7397 4125.9248 3741.5665 4127.3421 3742.2752 4130.4524 3744.0468 4130.2161 3743.8893 4128.5626 3742.9838 4128.6413 3743.0626 4130.6098 3744.1255 4130.2161 3743.8893 4130.4524 3744.0468 4130.6886 3744.1649 4130.6098 3744.1649 4130.6886 3744.1649 4130.4524 3744.0468 4127.3421 3742.3145 4130.2161 3743.8893 4130.6098 3744.1255 4130.6886 3744.1649 4133.7201 3746.2515 4135.098 3747.3145 4136.5941 3748.6137 4138.8775 3750.7791 4138.9169 3750.8184 4141.2004 3753.4169 4141.8303 3754.2436 4141.8697 3754.3224 4141.9484 3754.4011 4142.5783 3755.1491 4143.5626 3756.4877 4145.5311 3759.7161 4145.413 3759.5192 4145.4917 3759.6767 4145.5311 3759.7161 4143.5626 3756.4877 4145.4917 3759.6767 4145.413 3759.5192 4143.5626 3756.5665 4143.6019 3756.6452 4145.3736 3759.4405 4145.5311 3759.7161 4145.5704 3759.7554 4145.6492 3759.9129 4145.6886 3759.9523 4145.8067 3760.1885 4145.8067 3760.1491 4145.6098 3759.8735 4145.5311 3759.7554 4145.5704 3759.7554 4145.5311 3759.7161 4145.6098 3759.8342 4145.8067 3760.1491 4145.9641 3760.5035 4146.1216 3760.7397 4146.0429 3760.6216 4146.0823 3760.7003 4146.1216 3760.7397 4145.9641 3760.5035 4146.0823 3760.7003 4145.8067 3760.2279 4145.9641 3760.5035 4145.8067 3760.2279 4146.0823 3760.7003 4146.0429 3760.6216 4145.9641 3760.5035 4145.8067 3760.2279 4145.9248 3760.4641 4145.9641 3760.5822 4146.0035 3760.6216 4145.9248 3760.5035 4145.9641 3760.5822 4145.8854 3760.4247 4145.9248 3760.5035 4145.8067 3760.2672 4145.8854 3760.4247 4145.9248 3760.4641 4145.8067 3760.2279 4145.9641 3760.5428 4146.0823 3760.7003 4145.9641 3760.5035 4145.8067 3760.1491 4145.8067 3760.1885 4146.0429 3760.6216 4146.1216 3760.7397 4146.4366 3761.3302 4146.7515 3761.9995 4146.7909 3762.1176 4147.1452 3762.8263 4147.4996 3763.5743 4147.9326 3764.5979 4148.7988 3766.9208 4149.6649 3769.7554 4149.8224 3770.346 4150.5704 3773.8499 4150.7673 3775.0704 4151.0429 3777.3932 4151.2004 3780.4641 4151.2004 3780.9365 4151.0822 3784.5192 4150.9641 3785.8971 4150.6492 3788.0625 4150.1374 3790.6609 4150.0193 3791.2514 4149.9799 3791.4089 4149.9405 3791.5664 4148.9563 3794.9916 4148.4445 3796.4483 4147.6964 3798.338 4146.2397 3801.4483 4146.161 3801.5664 4146.1216 3801.6845 4145.7673 3802.3144 4145.6492 3802.5506 4145.3736 3803.0231 4145.2949 3803.1805 4144.9012 3803.8498 4144.5468 3804.401 4144.2712 3804.8341 4144.0744 3805.1097 4144.035 3805.1884 4143.4445 3806.0546 4141.5547 3808.5742 4142.4996 3807.2357 4143.3264 3806.0939 4142.3815 3807.3931 4142.4602 3807.3144 4142.4996 3807.2357 4141.5547 3808.5742 4141.2791 3808.9286 4141.2004 3809.0073 4140.098 3810.3065 4138.0901 3812.3931 4138.2083 3812.275 4138.4051 3812.0388 4138.0901 3812.3931 4139.1925 3811.212 4139.1531 3811.2514 4138.4051 3812.0388 4138.2083 3812.275 4138.9563 3811.4089 4138.6807 3811.7238 4139.9012 3810.3853 4139.8224 3810.3853 4138.4838 3811.8813 4138.6807 3811.7238 4138.9563 3811.4089 4139.9405 3810.3459 4139.9012 3810.3853 4138.6807 3811.7238 4138.0508 3812.3931 4138.0508 3812.4325 4138.0901 3812.3931 4138.4051 3812.0388 4139.0744 3811.2908 4138.9563 3811.4089 4138.2083 3812.275 4138.0901 3812.3931 4138.0508 3812.4325 4138.0114 3812.4719 4136.2398 3814.1254 4135.0193 3815.1097 4134.9799 3815.149 4135.5311 3814.6766 4135.4524 3814.7553 4134.9405 3815.1884 4134.5075 3815.5821 4133.7201 3816.1333 4131.9484 3817.4325 4130.9642 3818.0624 4130.6098 3818.2986 4129.4287 3818.9679 4127.2634 3820.1884 4126.7122 3820.464 4126.476 3820.5821 4122.2634 3822.3537 4122.2634 3833.5742 4111.6335 3833.5742 4109.1926 3833.5742 4106.2398 3833.5742 4103.602 3833.5742 4092.7359 3833.5742 4092.7359 3822.3537 4092.1454 3822.1175 4087.8147 3820.2278 4087.7359 3820.1884 4083.6808 3817.8656 4083.0509 3817.4325 4082.3029 3816.8813 4079.8619 3815.0703 4079.232 3814.5191 4078.7596 3814.1254 4076.358 3811.8813 4076.3186 3811.8419 4075.8855 3811.3695 4075.4525 3810.8577 4074.9013 3810.3065 4073.2084 3808.338 4072.106 3806.7632 4071.5548 3806.0546 4070.7281 3804.8341 4070.6493 3804.6766 4070.61 3804.6372 4070.7674 3804.7947 4070.5312 3804.4798 4070.7281 3804.7553 4070.7281 3804.716 4070.5312 3804.4798 4070.7674 3804.7947 4070.8462 3804.9522 4070.9249 3805.0309 4070.8068 3804.8735 4070.4525 3804.3223 4070.7281 3804.716 4070.8068 3804.8735 4070.8462 3804.9128 4070.7281 3804.7553 4070.9249 3805.0309 4070.4919 3804.3223 4070.8068 3804.8735 4070.7281 3804.716 4070.7281 3804.7553 4070.8462 3804.9128 4070.9643 3805.0703 4070.4919 3804.2829 4070.9249 3805.0309 4070.9643 3805.0703 4070.8462 3804.9128 4071.0037 3805.1097 4070.9643 3805.0703 4071.0824 3805.2672 4071.1611 3805.3853 4071.6336 3806.0546 4071.0037 3805.149 4071.0824 3805.2672 4070.9643 3805.1097 4071.0037 3805.149 4070.8462 3804.9522 4070.9249 3805.0703 4070.9249 3805.0309 4070.8462 3804.9522 4071.0037 3805.149 4070.9249 3805.0309 4070.9249 3805.0703 4070.9643 3805.1097 4070.8068 3804.9128 4070.7281 3804.7553 4070.7281 3804.8341 4070.8462 3804.9522 4070.7674 3804.8341 4070.8068 3804.9128 4070.8462 3804.9522 4070.7281 3804.8341 4071.5548 3806.0546 4070.6493 3804.6766 4070.7281 3804.8341 4070.7281 3804.7553 4070.61 3804.6372 4070.4525 3804.401 4070.2556 3804.0861 4069.9013 3803.4955 4070.0588 3803.7711 4069.9013 3803.4955 4070.1375 3803.8498 4070.2556 3804.0073 4069.9013 3803.4561 4070.0588 3803.7711 4070.1375 3803.8498 4069.9013 3803.4955 4070.2556 3804.0861 4070.1375 3803.8498 4070.0588 3803.7711 4070.2556 3804.0467 4070.1375 3803.8498 4070.2556 3804.0861 4070.2556 3804.0467 4070.0588 3803.7711 4069.9013 3803.4955 4069.6651 3803.0624 4069.232 3802.3144 4068.8383 3801.5664 4068.7596 3801.4089 4067.3029 3798.338 4066.5549 3796.4483 4066.043 3794.9916 4065.0588 3791.5664 4065.0194 3791.4483 4064.9801 3791.2514 4064.8619 3790.6609 4064.3501 3788.0625 4064.0352 3785.8971 4063.9171 3784.5192 4063.799 3780.9365 4063.799 3780.4641 4063.9564 3777.3932 4064.232 3775.0704 4064.4289 3773.8499 4065.1769 3770.346 4065.3344 3769.7554 4066.2005 3766.9208 4067.0667 3764.5979 4067.4997 3763.5743 4067.8541 3762.8657 4068.169 3762.157 4068.5234 3761.4483 4068.8383 3760.8578 4069.0352 3760.4641 4069.1139 3760.346 4069.232 3760.1098 4069.1533 3760.2672 4069.3895 3759.8342 4069.4682 3759.7161 4069.4682 3759.7554 4069.4682 3759.7161 4069.4289 3759.7948 4069.3501 3759.9523 4069.4289 3759.7554 4069.4682 3759.7161 4069.5076 3759.6373 4069.7438 3759.283 4071.2793 3756.7633 4069.4682 3759.7161 4069.6651 3759.4011 4069.5076 3759.6373 4069.4682 3759.7161 4071.2793 3756.7633 4071.4761 3756.5271 4072.421 3755.1491 4073.6415 3753.5743 4075.2556 3751.7633 4076.0824 3750.8184 4075.5312 3751.4484 4075.9249 3751.0153 4076.0824 3750.8184 4075.2556 3751.7633 4073.6415 3753.6137 4073.6021 3753.6925 4075.2163 3751.8027 4073.6415 3753.6137 4075.2556 3751.7633 4073.6415 3753.5743 4073.6415 3753.6137 4075.2163 3751.8027 4075.5312 3751.4484 4076.0824 3750.8184 4076.1218 3750.7791 4078.4052 3748.6137 4079.9013 3747.3145 4081.2792 3746.2515 4084.3107 3744.1649 4083.5627 3744.6767 4083.9958 3744.4011 4084.3107 3744.1649 4083.8383 3744.5192 4083.9958 3744.4011 4083.5627 3744.6767 4082.7359 3745.3066 4084.3107 3744.1649 4083.9958 3744.4011 4083.8383 3744.5192 4082.5391 3745.4248 4081.8304 3745.9366 4082.7359 3745.3066 4083.5627 3744.6767 4082.5391 3745.4248 4083.8383 3744.5192 4081.2792 3746.2515 4081.3186 3746.2909 4082.5391 3745.4248 4083.5627 3744.6767 4084.3107 3744.1649 4084.3895 3744.1255 4084.7832 3743.8893 4087.6572 3742.2752 4084.5469 3744.0468 4084.3501 3744.1649 4084.3895 3744.1255 4084.3107 3744.1649 4084.5469 3744.0468 4084.3895 3744.1649 4086.358 3743.0626 4084.3895 3744.1255 4084.5469 3744.0468 4084.7832 3743.8893 4084.3895 3744.1255 4086.358 3743.0626 4086.4367 3742.9838 4084.7832 3743.8893 4084.5469 3744.0468 4087.6572 3742.2752 4089.0745 3741.5665 4091.043 3740.7397 4094.1532 3739.598 4094.5863 3739.4799 4098.2083 3738.4956 4099.3894 3738.2594 4101.9091 3737.8657 4104.7831 3737.5901 4105.6099 3737.5508 4105.6099 3737.5508"/></g><g c_partid="part_pad" c_etype="pinpart" c_origin="4107.5,3828.87" layerid="11" plated="Y" c_shapetype="group" locked="0" c_rotation="270" c_width="9.8425" c_height="9.8425" c_shape="ELLIPSE" pasteexpansion="0" solderexpansion="0.4" before-id="gge128"><ellipse cx="4107.5" cy="3828.87" rx="5.32125" ry="5.32125" layerid="8" stroke-width="0" c_etype="pad_outer"/><ellipse cx="4107.5" cy="3828.87" rx="5.32125" ry="5.32125" layerid="7" stroke-width="0" c_etype="pad_outer"/><ellipse c_etype="pad_shell" cx="4107.5" cy="3828.87" rx="4.92125" ry="4.92125" layerid="11" stroke-width="0"/><circle c_etype="pad_hole" cx="4107.4997" cy="3828.8696" r="2.9528" layerid="11" stroke-width="0"/></g><g c_partid="part_pad" c_etype="pinpart" c_origin="4107.5,3750.13" layerid="11" plated="Y" c_shapetype="group" locked="0" c_rotation="270" c_width="9.8425" c_height="9.8425" c_shape="ELLIPSE" pasteexpansion="0" solderexpansion="0.4"><ellipse cx="4107.5" cy="3750.13" rx="5.32125" ry="5.32125" layerid="8" stroke-width="0" c_etype="pad_outer"/><ellipse cx="4107.5" cy="3750.13" rx="5.32125" ry="5.32125" layerid="7" stroke-width="0" c_etype="pad_outer"/><ellipse c_etype="pad_shell" cx="4107.5" cy="3750.13" rx="4.92125" ry="4.92125" layerid="11" stroke-width="0"/><circle c_etype="pad_hole" cx="4107.4997" cy="3750.1294" r="2.9528" layerid="11" stroke-width="0"/></g></g><g c_origin="4077.5,3760" c_para="package`BUZ-TH_BD12.0-P7.60-D0.6-FD`" c_partid="part_lib_ggeed089911d370c56a" locked="0" c_shapetype="group" c_etype="pinpart" layerid="1" c_rotation="90" uuid="4937126739894c52921de221c4760bbc" utime="1588142082" moved-from="1"><g c_partid="part_pcbtext" c_etype="" c_origin="4045,3760.5" c_rotation="90" c_mirror="0" locked="0" layerid="3" c_shapetype="group" display="none" before-id="gge5" style=""><path c_fontsize="4.5" c_fontfamily="" c_text="HMB1206-03" d="M 4040.46 3760.4995 L 4044.75 3760.4995 M 4040.46 3757.6395 L 4044.75 3757.6395 M 4042.5 3760.4995 L 4042.5 3757.6395 M 4040.46 3756.2895 L 4044.75 3756.2895 M 4040.46 3756.2895 L 4044.75 3754.6495 M 4040.46 3753.0095 L 4044.75 3754.6495 M 4040.46 3753.0095 L 4044.75 3753.0095 M 4040.46 3751.6595 L 4044.75 3751.6595 M 4040.46 3751.6595 L 4040.46 3749.8195 L 4040.66 3749.2095 L 4040.87 3748.9995 L 4041.28 3748.7995 L 4041.69 3748.7995 L 4042.1 3748.9995 L 4042.3 3749.2095 L 4042.5 3749.8195 M 4042.5 3751.6595 L 4042.5 3749.8195 L 4042.71 3749.2095 L 4042.91 3748.9995 L 4043.32 3748.7995 L 4043.94 3748.7995 L 4044.35 3748.9995 L 4044.55 3749.2095 L 4044.75 3749.8195 L 4044.75 3751.6595 M 4041.28 3747.4495 L 4041.07 3747.0395 L 4040.46 3746.4295 L 4044.75 3746.4295 M 4041.48 3744.8695 L 4041.28 3744.8695 L 4040.87 3744.6695 L 4040.66 3744.4595 L 4040.46 3744.0495 L 4040.46 3743.2395 L 4040.66 3742.8295 L 4040.87 3742.6195 L 4041.28 3742.4195 L 4041.69 3742.4195 L 4042.1 3742.6195 L 4042.71 3743.0295 L 4044.75 3745.0795 L 4044.75 3742.2095 M 4040.46 3739.6395 L 4040.66 3740.2495 L 4041.28 3740.6595 L 4042.3 3740.8595 L 4042.91 3740.8595 L 4043.94 3740.6595 L 4044.55 3740.2495 L 4044.75 3739.6395 L 4044.75 3739.2295 L 4044.55 3738.6095 L 4043.94 3738.1995 L 4042.91 3737.9995 L 4042.3 3737.9995 L 4041.28 3738.1995 L 4040.66 3738.6095 L 4040.46 3739.2295 L 4040.46 3739.6395 M 4041.07 3734.1995 L 4040.66 3734.3995 L 4040.46 3735.0095 L 4040.46 3735.4195 L 4040.66 3736.0395 L 4041.28 3736.4495 L 4042.3 3736.6495 L 4043.32 3736.6495 L 4044.14 3736.4495 L 4044.55 3736.0395 L 4044.75 3735.4195 L 4044.75 3735.2195 L 4044.55 3734.5995 L 4044.14 3734.1995 L 4043.53 3733.9895 L 4043.32 3733.9895 L 4042.71 3734.1995 L 4042.3 3734.5995 L 4042.1 3735.2195 L 4042.1 3735.4195 L 4042.3 3736.0395 L 4042.71 3736.4495 L 4043.32 3736.6495 M 4042.91 3732.6395 L 4042.91 3728.9595 M 4040.46 3726.3795 L 4040.66 3726.9995 L 4041.28 3727.3995 L 4042.3 3727.6095 L 4042.91 3727.6095 L 4043.94 3727.3995 L 4044.55 3726.9995 L 4044.75 3726.3795 L 4044.75 3725.9695 L 4044.55 3725.3595 L 4043.94 3724.9495 L 4042.91 3724.7495 L 4042.3 3724.7495 L 4041.28 3724.9495 L 4040.66 3725.3595 L 4040.46 3725.9695 L 4040.46 3726.3795 M 4040.46 3722.9895 L 4040.46 3720.7395 L 4042.1 3721.9595 L 4042.1 3721.3495 L 4042.3 3720.9395 L 4042.5 3720.7395 L 4043.12 3720.5295 L 4043.53 3720.5295 L 4044.14 3720.7395 L 4044.55 3721.1495 L 4044.75 3721.7595 L 4044.75 3722.3695 L 4044.55 3722.9895 L 4044.35 3723.1895 L 4043.94 3723.3995" fill="none" stroke-width="0.6" c_note="note_name" style=""/></g><g c_partid="part_pcbtext" c_etype="" c_origin="4052,3760.5" c_rotation="90" c_mirror="0" locked="0" layerid="3" c_shapetype="group" before-id="gge7" style=""><path c_fontsize="4.5" c_fontfamily="" c_text="BUZZER1" d="M 4047.46 3760.4995 L 4051.75 3760.4995 M 4047.46 3760.4995 L 4047.46 3758.6595 L 4047.66 3758.0495 L 4047.87 3757.8395 L 4048.28 3757.6395 L 4048.69 3757.6395 L 4049.1 3757.8395 L 4049.3 3758.0495 L 4049.5 3758.6595 M 4049.5 3760.4995 L 4049.5 3758.6595 L 4049.71 3758.0495 L 4049.91 3757.8395 L 4050.32 3757.6395 L 4050.94 3757.6395 L 4051.35 3757.8395 L 4051.55 3758.0495 L 4051.75 3758.6595 L 4051.75 3760.4995 M 4047.46 3756.2895 L 4050.53 3756.2895 L 4051.14 3756.0795 L 4051.55 3755.6695 L 4051.75 3755.0595 L 4051.75 3754.6495 L 4051.55 3754.0395 L 4051.14 3753.6295 L 4050.53 3753.4195 L 4047.46 3753.4195 M 4047.46 3749.2095 L 4051.75 3752.0695 M 4047.46 3752.0695 L 4047.46 3749.2095 M 4051.75 3752.0695 L 4051.75 3749.2095 M 4047.46 3744.9995 L 4051.75 3747.8595 M 4047.46 3747.8595 L 4047.46 3744.9995 M 4051.75 3747.8595 L 4051.75 3744.9995 M 4047.46 3743.6495 L 4051.75 3743.6495 M 4047.46 3743.6495 L 4047.46 3740.9895 M 4049.5 3743.6495 L 4049.5 3742.0095 M 4051.75 3743.6495 L 4051.75 3740.9895 M 4047.46 3739.6395 L 4051.75 3739.6395 M 4047.46 3739.6395 L 4047.46 3737.7995 L 4047.66 3737.1795 L 4047.87 3736.9795 L 4048.28 3736.7695 L 4048.69 3736.7695 L 4049.1 3736.9795 L 4049.3 3737.1795 L 4049.5 3737.7995 L 4049.5 3739.6395 M 4049.5 3738.1995 L 4051.75 3736.7695 M 4048.28 3735.4195 L 4048.07 3735.0095 L 4047.46 3734.3995 L 4051.75 3734.3995" fill="none" stroke-width="0.6" c_note="note_pre" style=""/></g><g c_partid="part_pcbtext" c_etype="" c_origin="4070.55,3777.5" c_rotation="90" c_mirror="0" locked="0" layerid="3" c_shapetype="group" before-id="gge9" style=""><path c_fontsize="5" c_fontfamily="" c_text="+" d="M 4068.5 3775.4501 L 4072.6 3775.4501 M 4070.55 3777.5001 L 4070.55 3773.4101" fill="none" stroke-width="0.6"/></g><circle cx="4077.5" cy="3760.001" r="5" stroke-width="1" fill="none" layerid="3" locked="0" c_shapetype="line" before-id="gge10"/><circle cx="4077.5" cy="3760.001" r="23.622" stroke-width="1" fill="none" layerid="3" locked="0" c_shapetype="line" before-id="gge11"/><g c_width="47.244" c_height="47.2176" c_rotation="0,0,180" z="-17.7165" c_origin="4077.5,3760.0787" uuid="659b7b30e5a340e8a7eddac89d8c69d7" c_etype="outline3D" layerid="19" transform="scale(1) translate(0, 0)" before-id="gge13" style=""><polyline fill="none" c_shapetype="line" points="4101.122 3760.0787 4100.9251 3756.9291 4100.2952 3753.8189 4100.1377 3753.3464 4099.9803 3752.7952 4099.2322 3750.8661 4097.8149 3748.0315 4096.0433 3745.433 4095.059 3744.2913 4093.9173 3743.1102 4091.5157 3741.063 4090.1771 3740.1968 4088.8385 3739.3701 4086.0039 3738.0315 4082.9724 3737.0866 4079.9409 3736.5748 4079.8622 3736.5748 4076.6732 3736.4567 4075.6496 3736.5748 4074.9016 3736.6535 4073.563 3736.7716 4076.437 3736.4961 4076.0433 3736.5354 4076.6732 3736.4567 4076.437 3736.4961 4073.563 3736.7716 4070.4921 3737.5197 4067.5394 3738.6614 4064.7835 3740.1575 4062.2638 3742.0472 4059.9803 3744.2519 4059.941 3744.2913 4058.0118 3746.6929 4056.3977 3749.4094 4055.1772 3752.3228 4055.0197 3752.7952 4054.9016 3753.2677 4054.3504 3755.3543 4053.9174 3758.5039 4053.878 3760.0787 4053.9174 3761.6535 4054.3504 3764.8031 4055.1772 3767.8346 4056.3977 3770.748 4058.0118 3773.4645 4059.9803 3775.9054 4062.2638 3778.1101 4064.7835 3779.9999 4067.5394 3781.496 4070.4921 3782.6377 4072.5787 3783.1889 4073.563 3783.3857 4076.7126 3783.7007 4079.8622 3783.5826 4082.4212 3783.1889 4082.9724 3783.0708 4086.0039 3782.1259 4088.8385 3780.7873 4091.5157 3779.0944 4093.9173 3777.0472 4096.0433 3774.7243 4097.8149 3772.1259 4099.2322 3769.2913 4099.6653 3768.1102 4100.2952 3766.3385 4100.9251 3763.2283 4101.122 3760.0787 4101.122 3760.0787"/></g><g c_partid="part_pad" c_etype="pinpart" c_origin="4077.5,3745.04" layerid="11" plated="Y" c_shapetype="group" locked="0" c_rotation="90" c_width="7.0866" c_height="7.0866" c_shape="ELLIPSE" pasteexpansion="0" solderexpansion="0.4" before-id="gge18"><ellipse cx="4077.5" cy="3745.04" rx="3.9433" ry="3.9433" layerid="8" stroke-width="0" c_etype="pad_outer"/><ellipse cx="4077.5" cy="3745.04" rx="3.9433" ry="3.9433" layerid="7" stroke-width="0" c_etype="pad_outer"/><ellipse c_etype="pad_shell" cx="4077.5" cy="3745.04" rx="3.5433" ry="3.5433" layerid="11" stroke-width="0"/><circle c_etype="pad_hole" cx="4077.5" cy="3745.0394" r="1.9685" layerid="11" stroke-width="0"/></g><g c_partid="part_pad" c_etype="pinpart" c_origin="4077.5,3774.961" layerid="11" plated="Y" c_shapetype="group" locked="0" c_rotation="90" c_width="7.0866" c_height="7.0866" c_shape="ELLIPSE" pasteexpansion="0" solderexpansion="0.4"><ellipse cx="4077.5" cy="3774.961" rx="3.9433" ry="3.9433" layerid="8" stroke-width="0" c_etype="pad_outer"/><ellipse cx="4077.5" cy="3774.961" rx="3.9433" ry="3.9433" layerid="7" stroke-width="0" c_etype="pad_outer"/><ellipse c_etype="pad_shell" cx="4077.5" cy="3774.961" rx="3.5433" ry="3.5433" layerid="11" stroke-width="0"/><circle c_etype="pad_hole" cx="4077.5" cy="3774.9606" r="1.9685" layerid="11" stroke-width="0"/></g></g><g c_origin="4106.5,3821.5" c_para="package`R_AXIAL-1.0`" c_partid="part_lib_gge743db80b52eae3fb" locked="0" c_shapetype="group" c_etype="pinpart" layerid="1" c_rotation="180" uuid="dd710703be1e4fec99153f373fdbc90f" utime="1585822033" moved-from="1"><g c_partid="part_pcbtext" c_etype="" c_origin="4101.88,3849.29" c_rotation="0" c_mirror="0" locked="0" layerid="3" c_shapetype="group" display="none" before-id="gge27" style=""><path c_fontsize="4.5" c_fontfamily="" c_text="1k" d="M 4101.8799 3845.57 L 4102.2899 3845.36 L 4102.8999 3844.75 L 4102.8999 3849.04 M 4104.2499 3844.75 L 4104.2499 3849.04 M 4106.2999 3846.18 L 4104.2499 3848.23 M 4105.0699 3847.41 L 4106.4999 3849.04" fill="none" stroke-width="0.6" c_note="note_name" style=""/></g><g c_partid="part_pcbtext" c_etype="" c_origin="4106.5,3837.5" c_rotation="180" c_mirror="0" locked="0" layerid="3" c_shapetype="group" before-id="gge29" style=""><path c_fontsize="4.5" c_fontfamily="" c_text="R1" d="M 4106.5 3842.04 L 4106.5 3837.75 M 4106.5 3842.04 L 4104.66 3842.04 L 4104.05 3841.84 L 4103.84 3841.63 L 4103.64 3841.22 L 4103.64 3840.81 L 4103.84 3840.4 L 4104.05 3840.2 L 4104.66 3840 L 4106.5 3840 M 4105.07 3840 L 4103.64 3837.75 M 4102.29 3841.22 L 4101.88 3841.43 L 4101.26 3842.04 L 4101.26 3837.75" fill="none" stroke-width="0.6" c_note="note_pre" style=""/></g><polyline points="4071.5 3821.5 4056.5 3821.5" stroke-width="1" c_shapetype="line" stroke-linecap="round" fill="none" layerid="3" locked="0" before-id="gge30"/><polyline points="4141.5 3836.5 4071.5 3836.5 4071.5 3806.5 4141.5 3806.5 4141.5 3821.5 4141.5 3836.5" stroke-width="1" c_shapetype="line" stroke-linecap="round" fill="none" layerid="3" locked="0" before-id="gge31"/><polyline points="4156.5 3821.5 4141.5 3821.5" stroke-width="1" c_shapetype="line" stroke-linecap="round" fill="none" layerid="3" locked="0" before-id="gge32"/><g c_width="103.2973" c_height="23.622" c_rotation="0,0,180" z="-13.7795" c_origin="4106.4999,3821.5" uuid="dac8533b3fd84a03a5e959c8b2dbfd9e" c_etype="outline3D" layerid="19" transform="scale(1.0033) translate(-13.5069, -12.5695)" before-id="gge34" style=""><polyline fill="none" c_shapetype="line" points="4157.9762 3821.5 4157.9369 3821.1063 4157.7794 3820.752 4157.5825 3820.437 4157.2676 3820.2402 4156.9132 3820.0827 4156.5195 3820.0433 4156.4408 3820.0433 4156.1652 3820.0433 4155.929 3820.0433 4155.8502 3820.0433 4155.7321 3820.0433 4155.4172 3820.0433 4155.1416 3820.0433 4154.7873 3820.0433 4154.3936 3820.0433 4153.5668 3820.0433 4153.0943 3820.0433 4152.6219 3820.0433 4151.6377 3820.0433 4150.614 3820.0433 4139.9841 3820.0433 4139.9841 3819.9646 4139.9841 3819.1772 4139.9841 3818.4685 4139.9841 3817.6811 4139.9841 3817.0512 4139.9841 3816.3032 4139.9841 3815.752 4139.9841 3815.004 4139.9841 3814.5315 4139.9841 3813.8622 4139.9841 3813.5079 4139.9841 3812.9173 4139.9841 3812.6418 4139.9841 3811.9725 4139.9841 3811.5394 4139.9841 3811.2244 4139.9448 3810.8701 4139.7873 3810.5158 4139.5117 3810.2008 4139.1967 3809.9252 4138.803 3809.7677 4138.4093 3809.7284 4131.8345 3809.7677 4131.8345 3809.7284 4129.866 3809.7284 4129.866 3809.7677 4128.5668 3809.7284 4128.37 3809.7677 4128.0944 3809.8859 4127.7007 3810.1614 4126.6771 3811.0276 4126.4015 3811.2244 4126.2834 3811.2638 4126.2046 3811.2638 4121.2834 3811.2244 4119.3149 3811.2638 4110.7322 3811.2244 4108.7637 3811.2638 4100.1811 3811.2244 4098.2126 3811.2638 4086.8346 3811.2638 4086.7559 3811.2638 4086.6378 3811.2244 4086.559 3811.1851 4085.6929 3810.437 4084.9842 3809.9252 4084.6299 3809.7677 4084.4724 3809.7284 4083.252 3809.7677 4083.252 3809.7284 4081.2835 3809.7284 4081.2835 3809.7677 4074.6299 3809.7284 4074.2362 3809.7677 4073.8425 3809.9252 4073.5276 3810.2008 4073.252 3810.5158 4073.0945 3810.8701 4073.0551 3811.2244 4073.0551 3811.5394 4073.0551 3812.0118 4073.0551 3812.2874 4073.0551 3812.6418 4073.0551 3813.1536 4073.0551 3813.5079 4073.0551 3813.5866 4073.0551 3814.5315 4073.0551 3815.004 4073.0551 3815.752 4073.0551 3816.7362 4073.0551 3816.9331 4073.0551 3817.0512 4073.0551 3817.0906 4073.0551 3817.4055 4073.0551 3817.6024 4073.0551 3817.7992 4073.0551 3817.878 4073.0551 3817.9961 4073.0551 3818.0354 4073.0551 3818.0748 4073.0551 3818.2717 4073.0551 3818.311 4073.0551 3818.4291 4073.0551 3818.5079 4073.0551 3818.5866 4073.0551 3818.626 4073.0551 3818.6654 4073.0551 3818.7441 4073.0551 3818.7835 4073.0551 3818.8228 4073.0551 3818.8622 4073.0551 3818.9016 4073.0551 3818.941 4073.0551 3819.0197 4073.0551 3819.0591 4073.0551 3819.0984 4073.0551 3819.1772 4073.0551 3819.2165 4073.0551 3819.3347 4073.0551 3819.4134 4073.0551 3819.4528 4073.0551 3819.5315 4073.0551 3819.5709 4073.0551 3819.6496 4073.0551 3819.7677 4073.0551 3819.8465 4073.0551 3819.9646 4073.0551 3820.0039 4073.0551 3820.0433 4062.4252 3820.0433 4061.4016 3820.0433 4060.4174 3820.0433 4059.4725 3820.0433 4058.6457 3820.0433 4057.8977 3820.0433 4057.3071 3820.0433 4056.8741 3820.0433 4056.7166 3820.0433 4056.5591 3820.0433 4056.5197 3820.0433 4056.126 3820.0827 4055.7717 3820.2402 4055.4567 3820.437 4055.2599 3820.752 4055.1024 3821.1063 4055.0237 3821.5 4055.1024 3821.8937 4055.2599 3822.248 4055.4567 3822.563 4055.7717 3822.7598 4056.126 3822.9173 4056.5197 3822.9961 4056.5985 3822.9961 4056.7166 3822.9961 4056.8741 3822.9961 4057.3071 3822.9961 4057.8977 3822.9961 4058.6457 3822.9961 4059.4725 3822.9961 4060.4174 3822.9961 4061.4016 3822.9961 4062.4252 3822.9961 4073.0551 3822.9961 4073.0551 3823.0354 4073.0551 3823.0748 4073.0551 3823.1535 4073.0551 3823.1929 4073.0551 3823.2323 4073.0551 3823.311 4073.0551 3823.3504 4073.0551 3823.4291 4073.0551 3823.4685 4073.0551 3823.5079 4073.0551 3823.5472 4073.0551 3823.5866 4073.0551 3823.626 4073.0551 3823.6654 4073.0551 3823.7835 4073.0551 3823.8228 4073.0551 3823.8622 4073.0551 3823.9016 4073.0551 3823.9409 4073.0551 3824.2953 4073.0551 3824.4134 4073.0551 3824.4528 4073.0551 3824.5709 4073.0551 3824.6496 4073.0551 3824.9252 4073.0551 3825.0039 4073.0551 3825.0433 4073.0551 3825.0827 4073.0551 3825.122 4073.0551 3825.1614 4073.0551 3825.3189 4073.0551 3825.3976 4073.0551 3825.437 4073.0551 3825.4764 4073.0551 3825.5551 4073.0551 3825.5945 4073.0551 3825.752 4073.0551 3825.9488 4073.0551 3826.6968 4073.0551 3827.248 4073.0551 3827.9961 4073.0551 3828.4685 4073.0551 3829.0984 4073.0551 3829.4134 4073.0551 3829.4921 4073.0551 3829.8464 4073.0551 3830.3583 4073.0551 3830.7126 4073.0551 3831.0275 4073.0551 3831.4606 4073.0551 3831.7756 4073.0945 3832.1299 4073.252 3832.4842 4073.5276 3832.7992 4073.8425 3833.0748 4074.2362 3833.2323 4074.6299 3833.2716 4081.2835 3833.2323 4081.2835 3833.2716 4083.252 3833.2716 4083.252 3833.2323 4084.4724 3833.2716 4084.6299 3833.2323 4084.9842 3833.0748 4085.6929 3832.563 4086.559 3831.8149 4086.6378 3831.7756 4086.7559 3831.7362 4086.8346 3831.7362 4098.2126 3831.7756 4100.1811 3831.7362 4108.7637 3831.7756 4110.7322 3831.7362 4119.3149 3831.7756 4121.2834 3831.7362 4126.2046 3831.7362 4126.2834 3831.7362 4126.4015 3831.7756 4126.6771 3831.9724 4127.7007 3832.8386 4128.0944 3833.1142 4128.37 3833.2323 4128.5668 3833.2716 4129.866 3833.2323 4129.866 3833.2716 4131.8345 3833.2716 4131.8345 3833.2323 4138.4093 3833.2716 4138.803 3833.2323 4139.1967 3833.0748 4139.5117 3832.7992 4139.7873 3832.4842 4139.9448 3832.1299 4139.9841 3831.7756 4139.9841 3831.4606 4139.9841 3831.0275 4139.9841 3830.8701 4139.9841 3830.3583 4139.9841 3830.0827 4139.9841 3829.4921 4139.9841 3829.1378 4139.9841 3828.4685 4139.9841 3827.9961 4139.9841 3827.248 4139.9841 3825.9488 4139.9841 3825.3189 4139.9841 3824.5315 4139.9841 3823.8228 4139.9841 3823.0354 4139.9841 3822.9961 4150.614 3822.9961 4151.6377 3822.9961 4152.6219 3822.9961 4153.5668 3822.9961 4154.3936 3822.9961 4155.1416 3822.9961 4155.7321 3822.9961 4156.1652 3822.9961 4156.4802 3822.9961 4156.5195 3822.9961 4156.9132 3822.9173 4157.2676 3822.7598 4157.5825 3822.563 4157.7794 3822.248 4157.9369 3821.8937 4157.9762 3821.5 4157.9762 3821.5"/></g><g c_partid="part_pad" c_etype="pinpart" c_origin="4156.5,3821.5" layerid="11" plated="Y" c_shapetype="group" locked="0" c_rotation="180" c_width="10" c_height="10" c_shape="ELLIPSE" pasteexpansion="0" solderexpansion="0.4" before-id="gge39"><ellipse cx="4156.5" cy="3821.5" rx="5.4" ry="5.4" layerid="8" stroke-width="0" c_etype="pad_outer"/><ellipse cx="4156.5" cy="3821.5" rx="5.4" ry="5.4" layerid="7" stroke-width="0" c_etype="pad_outer"/><ellipse c_etype="pad_shell" cx="4156.5" cy="3821.5" rx="5" ry="5" layerid="11" stroke-width="0"/><circle c_etype="pad_hole" cx="4156.5" cy="3821.5" r="2" layerid="11" stroke-width="0"/></g><g c_partid="part_pad" c_etype="pinpart" c_origin="4056.5,3821.5" layerid="11" plated="Y" c_shapetype="group" locked="0" c_rotation="180" c_width="10" c_height="10" c_shape="ELLIPSE" pasteexpansion="0" solderexpansion="0.4"><ellipse cx="4056.5" cy="3821.5" rx="5.4" ry="5.4" layerid="8" stroke-width="0" c_etype="pad_outer"/><ellipse cx="4056.5" cy="3821.5" rx="5.4" ry="5.4" layerid="7" stroke-width="0" c_etype="pad_outer"/><ellipse c_etype="pad_shell" cx="4056.5" cy="3821.5" rx="5" ry="5" layerid="11" stroke-width="0"/><circle c_etype="pad_hole" cx="4056.5" cy="3821.5" r="2" layerid="11" stroke-width="0"/></g></g><g c_origin="4062,3798" c_para="package`HDR-M-2.54_1X1`" c_partid="part_lib_gge83363d898f2a2c4f" locked="0" c_shapetype="group" c_etype="pinpart" layerid="1" uuid="19c77e72422b43b59c26b9fa67af5de4" utime="1585833053" moved-from="1"><g c_partid="part_pcbtext" c_etype="" c_origin="4062,3785.4" c_rotation="0" c_mirror="0" locked="0" layerid="3" c_shapetype="group" display="none" before-id="gge48" style=""><path c_fontsize="4.5" c_fontfamily="" c_text="Touch" d="M 4063.43 3780.86 L 4063.43 3785.15 M 4062 3780.86 L 4064.86 3780.86 M 4067.24 3782.29 L 4066.83 3782.5 L 4066.42 3782.9 L 4066.21 3783.52 L 4066.21 3783.93 L 4066.42 3784.54 L 4066.83 3784.95 L 4067.24 3785.15 L 4067.85 3785.15 L 4068.26 3784.95 L 4068.67 3784.54 L 4068.87 3783.93 L 4068.87 3783.52 L 4068.67 3782.9 L 4068.26 3782.5 L 4067.85 3782.29 L 4067.24 3782.29 M 4070.22 3782.29 L 4070.22 3784.34 L 4070.43 3784.95 L 4070.84 3785.15 L 4071.45 3785.15 L 4071.86 3784.95 L 4072.47 3784.34 M 4072.47 3782.29 L 4072.47 3785.15 M 4076.28 3782.9 L 4075.87 3782.5 L 4075.46 3782.29 L 4074.85 3782.29 L 4074.44 3782.5 L 4074.03 3782.9 L 4073.82 3783.52 L 4073.82 3783.93 L 4074.03 3784.54 L 4074.44 3784.95 L 4074.85 3785.15 L 4075.46 3785.15 L 4075.87 3784.95 L 4076.28 3784.54 M 4077.63 3780.86 L 4077.63 3785.15 M 4077.63 3783.11 L 4078.24 3782.5 L 4078.65 3782.29 L 4079.26 3782.29 L 4079.67 3782.5 L 4079.88 3783.11 L 4079.88 3785.15" fill="none" stroke-width="0.6" c_note="note_name" style=""/></g><g c_partid="part_pcbtext" c_etype="" c_origin="4062,3792.4" c_rotation="0" c_mirror="0" locked="0" layerid="3" c_shapetype="group" before-id="gge50" style=""><path c_fontsize="4.5" c_fontfamily="" c_text="J1" d="M 4064.05 3787.86 L 4064.05 3791.13 L 4063.84 3791.75 L 4063.64 3791.95 L 4063.23 3792.15 L 4062.82 3792.15 L 4062.41 3791.95 L 4062.2 3791.75 L 4062 3791.13 L 4062 3790.72 M 4065.4 3788.68 L 4065.8 3788.47 L 4066.42 3787.86 L 4066.42 3792.15" fill="none" stroke-width="0.6" c_note="note_pre" style=""/></g><polyline points="4067 3803 4057 3803 4057 3793 4067 3793 4067 3800.5" stroke-width="0.8" c_shapetype="line" stroke-linecap="round" fill="none" layerid="3" locked="0" before-id="gge51"/><polyline points="4067 3803 4067 3800.5" stroke-width="0.79921" c_shapetype="line" stroke-linecap="round" fill="none" layerid="3" locked="0" before-id="gge52"/><g c_width="10" c_height="10" c_rotation="0,0,0" z="-11.811" c_origin="4062,3798" uuid="54349f0c2ddb4402a162ef764d42aefd" c_etype="outline3D" layerid="19" transform="scale(1) translate(0, 0)" before-id="gge54" style=""><polyline fill="none" c_shapetype="line" points="4057 3794.1811 4057 3795.3622 4057 3800.6378 4057 3801.8189 4058.1811 3803 4065.8189 3803 4067 3801.8189 4067 3800.6378 4067 3795.3622 4067 3794.1811 4065.8189 3793 4058.1811 3793 4057 3794.1811 4057 3794.1811"/></g><g c_partid="part_pad" c_etype="pinpart" c_origin="4062,3798" layerid="11" plated="Y" c_shapetype="group" locked="0" c_rotation="270" c_width="6.2" c_height="6.2" c_shape="RECT" pasteexpansion="0" solderexpansion="0.4"><polygon points="4065.1 3794.9 4065.1 3801.1 4058.9 3801.1 4058.9 3794.9" layerid="8" stroke-width="0.8" c_etype="pad_outer"/><polygon points="4065.1 3794.9 4065.1 3801.1 4058.9 3801.1 4058.9 3794.9" layerid="7" stroke-width="0.8" c_etype="pad_outer"/><polygon c_etype="pad_shell" points="4065.1 3794.9 4065.1 3801.1 4058.9 3801.1 4058.9 3794.9" layerid="11" stroke-width="0"/><circle c_etype="pad_hole" cx="4062" cy="3798" r="1.75" layerid="11" stroke-width="0"/></g></g><g c_origin="4137.5,3773.5" c_para="package`ATTINY85`" c_partid="part_lib_gged8f1fb8a777e622b" locked="0" c_shapetype="group" c_etype="pinpart" layerid="1" c_rotation="180" uuid="a0eff1a9d28d47b7bd163b4af7cbee96" utime="1507573815" moved-from="1"><g c_partid="part_pcbtext" c_etype="" c_origin="4086.4,3810.29" c_rotation="0" c_mirror="0" locked="0" layerid="3" c_shapetype="group" display="none" before-id="gge63" style=""><path c_fontsize="4.5" c_fontfamily="" c_text="ATTINY85 THT" d="M 4088.0399 3805.75 L 4086.3999 3810.04 M 4088.0399 3805.75 L 4089.6699 3810.04 M 4087.0099 3808.61 L 4089.0599 3808.61 M 4092.4499 3805.75 L 4092.4499 3810.04 M 4091.0199 3805.75 L 4093.8899 3805.75 M 4096.6699 3805.75 L 4096.6699 3810.04 M 4095.2399 3805.75 L 4098.0999 3805.75 M 4099.4499 3805.75 L 4099.4499 3810.04 M 4100.7999 3805.75 L 4100.7999 3810.04 M 4100.7999 3805.75 L 4103.6599 3810.04 M 4103.6599 3805.75 L 4103.6599 3810.04 M 4105.0099 3805.75 L 4106.6499 3807.79 L 4106.6499 3810.04 M 4108.2899 3805.75 L 4106.6499 3807.79 M 4110.6599 3805.75 L 4110.0499 3805.95 L 4109.8399 3806.36 L 4109.8399 3806.77 L 4110.0499 3807.18 L 4110.4499 3807.39 L 4111.2699 3807.59 L 4111.8899 3807.79 L 4112.2999 3808.2 L 4112.4999 3808.61 L 4112.4999 3809.23 L 4112.2999 3809.64 L 4112.0899 3809.84 L 4111.4799 3810.04 L 4110.6599 3810.04 L 4110.0499 3809.84 L 4109.8399 3809.64 L 4109.6399 3809.23 L 4109.6399 3808.61 L 4109.8399 3808.2 L 4110.2499 3807.79 L 4110.8599 3807.59 L 4111.6799 3807.39 L 4112.0899 3807.18 L 4112.2999 3806.77 L 4112.2999 3806.36 L 4112.0899 3805.95 L 4111.4799 3805.75 L 4110.6599 3805.75 M 4116.2999 3805.75 L 4114.2599 3805.75 L 4114.0499 3807.59 L 4114.2599 3807.39 L 4114.8699 3807.18 L 4115.4899 3807.18 L 4116.0999 3807.39 L 4116.5099 3807.79 L 4116.7099 3808.41 L 4116.7099 3808.82 L 4116.5099 3809.43 L 4116.0999 3809.84 L 4115.4899 3810.04 L 4114.8699 3810.04 L 4114.2599 3809.84 L 4114.0499 3809.64 L 4113.8499 3809.23 M 4122.6499 3805.75 L 4122.6499 3810.04 M 4121.2099 3805.75 L 4124.0799 3805.75 M 4125.4299 3805.75 L 4125.4299 3810.04 M 4128.2899 3805.75 L 4128.2899 3810.04 M 4125.4299 3807.79 L 4128.2899 3807.79 M 4131.0699 3805.75 L 4131.0699 3810.04 M 4129.6399 3805.75 L 4132.4999 3805.75" fill="none" stroke-width="0.6" c_note="note_name" style=""/></g><g c_partid="part_pcbtext" c_etype="" c_origin="4132.5,3798.5" c_rotation="180" c_mirror="0" locked="0" layerid="3" c_shapetype="group" before-id="gge65" style=""><path c_fontsize="4.5" c_fontfamily="" c_text="U2" d="M 4132.5 3803.04 L 4132.5 3799.97 L 4132.3 3799.36 L 4131.89 3798.95 L 4131.27 3798.75 L 4130.86 3798.75 L 4130.25 3798.95 L 4129.84 3799.36 L 4129.64 3799.97 L 4129.64 3803.04 M 4128.08 3802.02 L 4128.08 3802.22 L 4127.88 3802.63 L 4127.67 3802.84 L 4127.26 3803.04 L 4126.45 3803.04 L 4126.04 3802.84 L 4125.83 3802.63 L 4125.63 3802.22 L 4125.63 3801.81 L 4125.83 3801.4 L 4126.24 3800.79 L 4128.29 3798.75 L 4125.42 3798.75" fill="none" stroke-width="0.6" c_note="note_pre" style=""/></g><polyline points="4129.5 3794.5 4129.5 3794.5 4122.5 3794.5 4122.5 3762.5 4142.5 3762.5 4142.5 3794.5 4135.5 3794.5 4135.5 3794.5" stroke-width="1" c_shapetype="line" stroke-linecap="round" fill="none" layerid="3" locked="0" before-id="gge66"/><path d="M 4135.5 3794.5 A 3 3 0 1 0 4129.5 3794.5" locked="0" c_shapetype="line" fill="none" stroke-width="1" c_helper_type="arc2" layerid="3" before-id="gge67"/><g c_partid="part_pad" c_etype="pinpart" c_origin="4147.5,3793.5" layerid="11" plated="Y" c_shapetype="group" locked="0" c_rotation="180" c_width="6" c_height="6" c_shape="RECT" pasteexpansion="0" solderexpansion="0.4" before-id="gge72"><polygon points="4150.5 3796.5 4144.5 3796.5 4144.5 3790.5 4150.5 3790.5" layerid="8" stroke-width="0.8" c_etype="pad_outer"/><polygon points="4150.5 3796.5 4144.5 3796.5 4144.5 3790.5 4150.5 3790.5" layerid="7" stroke-width="0.8" c_etype="pad_outer"/><polygon c_etype="pad_shell" points="4150.5 3796.5 4144.5 3796.5 4144.5 3790.5 4150.5 3790.5" layerid="11" stroke-width="0"/><circle c_etype="pad_hole" cx="4147.5" cy="3793.5" r="1.8" layerid="11" stroke-width="0"/></g><g c_partid="part_pad" c_etype="pinpart" c_origin="4147.5,3783.5" layerid="11" plated="Y" c_shapetype="group" locked="0" c_rotation="180" c_width="6" c_height="6" c_shape="ELLIPSE" pasteexpansion="0" solderexpansion="0.4" before-id="gge77"><ellipse cx="4147.5" cy="3783.5" rx="3.4" ry="3.4" layerid="8" stroke-width="0" c_etype="pad_outer"/><ellipse cx="4147.5" cy="3783.5" rx="3.4" ry="3.4" layerid="7" stroke-width="0" c_etype="pad_outer"/><ellipse c_etype="pad_shell" cx="4147.5" cy="3783.5" rx="3" ry="3" layerid="11" stroke-width="0"/><circle c_etype="pad_hole" cx="4147.5" cy="3783.5" r="1.8" layerid="11" stroke-width="0"/></g><g c_partid="part_pad" c_etype="pinpart" c_origin="4147.5,3773.5" layerid="11" plated="Y" c_shapetype="group" locked="0" c_rotation="180" c_width="6" c_height="6" c_shape="ELLIPSE" pasteexpansion="0" solderexpansion="0.4" before-id="gge82"><ellipse cx="4147.5" cy="3773.5" rx="3.4" ry="3.4" layerid="8" stroke-width="0" c_etype="pad_outer"/><ellipse cx="4147.5" cy="3773.5" rx="3.4" ry="3.4" layerid="7" stroke-width="0" c_etype="pad_outer"/><ellipse c_etype="pad_shell" cx="4147.5" cy="3773.5" rx="3" ry="3" layerid="11" stroke-width="0"/><circle c_etype="pad_hole" cx="4147.5" cy="3773.5" r="1.8" layerid="11" stroke-width="0"/></g><g c_partid="part_pad" c_etype="pinpart" c_origin="4147.5,3763.5" layerid="11" plated="Y" c_shapetype="group" locked="0" c_rotation="180" c_width="6" c_height="6" c_shape="ELLIPSE" pasteexpansion="0" solderexpansion="0.4" before-id="gge87"><ellipse cx="4147.5" cy="3763.5" rx="3.4" ry="3.4" layerid="8" stroke-width="0" c_etype="pad_outer"/><ellipse cx="4147.5" cy="3763.5" rx="3.4" ry="3.4" layerid="7" stroke-width="0" c_etype="pad_outer"/><ellipse c_etype="pad_shell" cx="4147.5" cy="3763.5" rx="3" ry="3" layerid="11" stroke-width="0"/><circle c_etype="pad_hole" cx="4147.5" cy="3763.5" r="1.8" layerid="11" stroke-width="0"/></g><g c_partid="part_pad" c_etype="pinpart" c_origin="4117.5,3763.5" layerid="11" plated="Y" c_shapetype="group" locked="0" c_rotation="180" c_width="6" c_height="6" c_shape="ELLIPSE" pasteexpansion="0" solderexpansion="0.4" before-id="gge92"><ellipse cx="4117.5" cy="3763.5" rx="3.4" ry="3.4" layerid="8" stroke-width="0" c_etype="pad_outer"/><ellipse cx="4117.5" cy="3763.5" rx="3.4" ry="3.4" layerid="7" stroke-width="0" c_etype="pad_outer"/><ellipse c_etype="pad_shell" cx="4117.5" cy="3763.5" rx="3" ry="3" layerid="11" stroke-width="0"/><circle c_etype="pad_hole" cx="4117.5" cy="3763.5" r="1.8" layerid="11" stroke-width="0"/></g><g c_partid="part_pad" c_etype="pinpart" c_origin="4117.5,3773.5" layerid="11" plated="Y" c_shapetype="group" locked="0" c_rotation="180" c_width="6" c_height="6" c_shape="ELLIPSE" pasteexpansion="0" solderexpansion="0.4" before-id="gge97"><ellipse cx="4117.5" cy="3773.5" rx="3.4" ry="3.4" layerid="8" stroke-width="0" c_etype="pad_outer"/><ellipse cx="4117.5" cy="3773.5" rx="3.4" ry="3.4" layerid="7" stroke-width="0" c_etype="pad_outer"/><ellipse c_etype="pad_shell" cx="4117.5" cy="3773.5" rx="3" ry="3" layerid="11" stroke-width="0"/><circle c_etype="pad_hole" cx="4117.5" cy="3773.5" r="1.8" layerid="11" stroke-width="0"/></g><g c_partid="part_pad" c_etype="pinpart" c_origin="4117.5,3783.5" layerid="11" plated="Y" c_shapetype="group" locked="0" c_rotation="180" c_width="6" c_height="6" c_shape="ELLIPSE" pasteexpansion="0" solderexpansion="0.4" before-id="gge102"><ellipse cx="4117.5" cy="3783.5" rx="3.4" ry="3.4" layerid="8" stroke-width="0" c_etype="pad_outer"/><ellipse cx="4117.5" cy="3783.5" rx="3.4" ry="3.4" layerid="7" stroke-width="0" c_etype="pad_outer"/><ellipse c_etype="pad_shell" cx="4117.5" cy="3783.5" rx="3" ry="3" layerid="11" stroke-width="0"/><circle c_etype="pad_hole" cx="4117.5" cy="3783.5" r="1.8" layerid="11" stroke-width="0"/></g><g c_partid="part_pad" c_etype="pinpart" c_origin="4117.5,3793.5" layerid="11" plated="Y" c_shapetype="group" locked="0" c_rotation="180" c_width="6" c_height="6" c_shape="ELLIPSE" pasteexpansion="0" solderexpansion="0.4"><ellipse cx="4117.5" cy="3793.5" rx="3.4" ry="3.4" layerid="8" stroke-width="0" c_etype="pad_outer"/><ellipse cx="4117.5" cy="3793.5" rx="3.4" ry="3.4" layerid="7" stroke-width="0" c_etype="pad_outer"/><ellipse c_etype="pad_shell" cx="4117.5" cy="3793.5" rx="3" ry="3" layerid="11" stroke-width="0"/><circle c_etype="pad_hole" cx="4117.5" cy="3793.5" r="1.8" layerid="11" stroke-width="0"/></g></g></g></g></svg>